COMMENT @(#)58	1.3  src/bos/usr/lpp/tls/fonts/Chtp217.bdf, cmdtw, bos411, 9428A410j 2/24/94 13:29:57
COMMENT
COMMENT   COMPONENT_NAME: cmdtw
COMMENT
COMMENT   FUNCTIONS: none
COMMENT
COMMENT   ORIGINS: 27
COMMENT
COMMENT   IBM CONFIDENTIAL -- (IBM Confidential Restricted when
COMMENT   combined with the aggregated modules for this product)
COMMENT                    SOURCE MATERIALS
COMMENT
COMMENT   (C) COPYRIGHT International Business Machines Corp. 1992
COMMENT   All Rights Reserved
COMMENT   US Government Users Restricted Rights - Use, duplication or
COMMENT   disclosure restricted by GSA ADP Schedule Contract with IBM Corp.
COMMENT
STARTFONT 2.1
FONT  -IBM_AIX-Sung-Medium-R-Normal--27-170-100-100-M-260-CNS11643.1986-2
SIZE 27 100 100
FONTBOUNDINGBOX 26 27 0 -1
STARTPROPERTIES 20
FONTNAME_REGISTRY "-"
FOUNDRY "IBM_AIX"
FAMILY_NAME "Sung"
WEIGHT_NAME "Medium"
SLANT "R"
SETWIDTH_NAME "Normal"
ADD_STYLE_NAME ""
PIXEL_SIZE 27
POINT_SIZE 170
RESOLUTION_X 100
RESOLUTION_Y 100
SPACING "M"
AVERAGE_WIDTH 260
CHARSET_REGISTRY "CNS11643.1986"
CHARSET_ENCODING "2"
FONT_ASCENT 26
FONT_DESCENT 1
DEFAULT_CHAR 7683
CAP_HEIGHT 27
COPYRIGHT "Copyright, 1992 by IBM."
ENDPROPERTIES
CHARS 7651
STARTCHAR 2121
ENCODING 8481
SWIDTH 962 0
DWIDTH 26 0
BBX 26 27 0 -1
BITMAP
00000000
00000000
00000000
00001c00
04001800
04003000
06003000
02006000
03006000
0180c000
0080c000
00c18000
00418000
00630000
00360000
001c0000
001c0000
00160000
00330000
00618000
00c0c000
01807000
07003c00
1c001f00
f0000600
00000000
00000000
ENDCHAR
STARTCHAR 2122
ENCODING 8482
SWIDTH 962 0
DWIDTH 26 0
BBX 26 27 0 -1
BITMAP
00000000
00000000
00000000
0e000000
0c000000
0c001800
0c007c00
0c0f9c00
0c3c1800
0dc01800
1e001000
ec003000
0c003000
0c002000
0c006000
0c004000
0c004000
0c000000
0c000000
0c000200
0c000200
0c000200
0c000300
0fffff00
07fffe00
00000000
00000000
ENDCHAR
STARTCHAR 2123
ENCODING 8483
SWIDTH 962 0
DWIDTH 26 0
BBX 26 27 0 -1
BITMAP
00000000
00000000
38000e00
30000c00
30000c00
30000c00
30000c00
30000c00
30000c00
30000c00
30000c00
30000c00
30000c00
30000c00
30000c00
30000c00
30000c00
30000c00
30000c00
30000c00
30000c00
3ffffc00
30000c00
30000c00
30000c00
00000000
00000000
ENDCHAR
STARTCHAR 2124
ENCODING 8484
SWIDTH 962 0
DWIDTH 26 0
BBX 26 27 0 -1
BITMAP
00000000
00000400
40000e00
7fffff00
60000000
60000000
60000000
60000000
60000000
60000000
60000000
60000000
60000000
60000000
60000000
60000000
60000000
60000000
60000000
60000000
60000400
60000e00
7fffff00
60000000
60000000
00000000
00000000
ENDCHAR
STARTCHAR 2125
ENCODING 8485
SWIDTH 962 0
DWIDTH 26 0
BBX 26 27 0 -1
BITMAP
00000000
00000400
20000e00
3fffff00
30000000
30000000
30000000
30000000
30000000
30000000
30000000
30000000
30000000
30000000
30000000
30000000
30000000
30000000
30000000
60000000
60000000
60000000
40000000
40000000
80000000
00000000
00000000
ENDCHAR
STARTCHAR 2126
ENCODING 8486
SWIDTH 962 0
DWIDTH 26 0
BBX 26 27 0 -1
BITMAP
00000000
00000400
00000e00
ffffff00
00600000
00600000
00600000
00600000
00c00000
00c00800
00fffc00
00c01c00
00c01800
01801800
01801800
01801800
03001800
03001800
06001800
06001800
0c003000
0c003000
18007000
300fe000
c000c000
00000000
00000000
ENDCHAR
STARTCHAR 2127
ENCODING 8487
SWIDTH 962 0
DWIDTH 26 0
BBX 26 27 0 -1
BITMAP
00000000
00000400
00000e00
ffffff00
01818000
01818000
01818000
01818000
01818000
01818000
01818000
01818000
01818000
01818000
01818000
03018000
03018000
03018000
06018000
06018000
0c018000
0c018000
18018000
30018000
c0018000
00000000
00000000
ENDCHAR
STARTCHAR 2128
ENCODING 8488
SWIDTH 962 0
DWIDTH 26 0
BBX 26 27 0 -1
BITMAP
00000000
00078000
001e0000
00f00000
0fe00000
fc600000
00600000
00600000
00600000
00600000
00600000
00600600
ffffff00
00600000
00600000
00600000
00600000
00600000
00600400
00600400
00600400
00600400
00600600
007ffe00
003ffc00
00000000
00000000
ENDCHAR
STARTCHAR 2129
ENCODING 8489
SWIDTH 962 0
DWIDTH 26 0
BBX 26 27 0 -1
BITMAP
00000000
00000000
00001800
3ffffc00
00000000
00000000
00000000
00000000
00000000
00000000
00000400
00000e00
ffffff00
00180000
00180000
00180000
00180000
00180000
00180000
00180000
00180000
00180000
00180000
07f80000
00f00000
00000000
00000000
ENDCHAR
STARTCHAR 212a
ENCODING 8490
SWIDTH 962 0
DWIDTH 26 0
BBX 26 27 0 -1
BITMAP
00000000
00000000
20000400
3ffffe00
30000e00
30000c00
30000c00
30000c00
30000c00
30000c00
30000c00
30000c00
30000c00
30000c00
30000c00
30000c00
30000c00
30000c00
30000c00
30000c00
30000c00
30000c00
3ffffc00
30000c00
30000c00
00000000
00000000
ENDCHAR
STARTCHAR 212b
ENCODING 8491
SWIDTH 962 0
DWIDTH 26 0
BBX 26 27 0 -1
BITMAP
00000000
001c0000
00180000
00180000
38180e00
30180c00
30180c00
30180c00
30180c00
30180c00
30180c00
30180c00
30180c00
3ffffc00
30180c00
00180000
00180000
00180000
00180000
00180000
00180000
00180000
00180000
00180000
00180000
00000000
00000000
ENDCHAR
STARTCHAR 212c
ENCODING 8492
SWIDTH 962 0
DWIDTH 26 0
BBX 26 27 0 -1
BITMAP
00000000
00060000
00070000
000e0000
00180000
00318000
0061c000
01838000
0e070000
000c0000
00180000
00380000
00780000
00d80000
03180000
0c180000
70180000
00180000
00180000
00180000
00180000
00180000
00180000
00180000
00180000
00000000
00000000
ENDCHAR
STARTCHAR 212d
ENCODING 8493
SWIDTH 962 0
DWIDTH 26 0
BBX 26 27 0 -1
BITMAP
00000000
00000600
ffffff00
00300000
00300000
00300000
00300000
38300400
303ffe00
30300e00
30300c00
30300c00
30300c00
30300c00
3ffffc00
30000c00
30001c00
00001c00
00001c00
00001800
00003800
00003800
0000f000
007fe000
00078000
00000000
00000000
ENDCHAR
STARTCHAR 212e
ENCODING 8494
SWIDTH 962 0
DWIDTH 26 0
BBX 26 27 0 -1
BITMAP
00000000
00380000
00300000
00300000
00600600
ffffff00
00c00000
01800000
01801000
03fff800
07003800
0f003000
1b003000
33003000
c3003000
03003000
03003000
03003000
03003000
03003000
03003000
03003000
03003000
0307f000
0300e000
00000000
00000000
ENDCHAR
STARTCHAR 212f
ENCODING 8495
SWIDTH 962 0
DWIDTH 26 0
BBX 26 27 0 -1
BITMAP
00000000
0e000000
0c000000
0c001000
0c003800
0ffffc00
18000000
18000000
18000400
1ffffe00
18000e00
00000c00
00000c00
00000c00
00018c00
7fffcc00
00000c00
00000c00
00000c00
00000c00
00001c00
00001800
00003800
001ff000
0001c000
00000000
00000000
ENDCHAR
STARTCHAR 2130
ENCODING 8496
SWIDTH 962 0
DWIDTH 26 0
BBX 26 27 0 -1
BITMAP
00000000
20000800
3ffffc00
00301c00
00301800
00301800
00301800
00301800
00301800
0fffd800
0fffd800
00301800
00301800
00301800
1ffff800
1ffff800
00301800
00301800
00301800
00301900
00300d00
00300d00
00300700
00300700
00300200
00000000
00000000
ENDCHAR
STARTCHAR 2131
ENCODING 8497
SWIDTH 962 0
DWIDTH 26 0
BBX 26 27 0 -1
BITMAP
00000000
00000000
00001800
3ffffc00
00000000
00000000
00000000
00000000
00000000
00000600
ffffff00
01818000
01818000
01818000
01818000
01818000
01818000
01818000
01818000
03018000
03018000
03018000
06018000
0e018000
7c018000
00000000
00000000
ENDCHAR
STARTCHAR 2132
ENCODING 8498
SWIDTH 962 0
DWIDTH 26 0
BBX 26 27 0 -1
BITMAP
00000000
06038000
07030000
06030000
0e030000
0c030000
0c030200
1cffff00
18030700
18030600
38030600
2c060600
6c060600
4c060600
8c060600
8c0c0600
0c0c0600
0c0c0600
0c180600
0c180600
0c300c00
0c300c00
0c601c00
0cc3f800
0d00f000
00000000
00000000
ENDCHAR
STARTCHAR 2133
ENCODING 8499
SWIDTH 962 0
DWIDTH 26 0
BBX 26 27 0 -1
BITMAP
00000000
0e000000
0c000000
0c000000
0c102000
181ff000
181ff000
18186000
30186000
30186000
30186000
70186000
58186000
d8186000
98306000
18306000
18306000
18306000
18606200
18606200
18406200
18c06300
18806300
19007f00
1a003e00
00000000
00000000
ENDCHAR
STARTCHAR 2134
ENCODING 8500
SWIDTH 962 0
DWIDTH 26 0
BBX 26 27 0 -1
BITMAP
00000000
06000000
06000000
07030000
0e010000
0c018000
1c018000
18188000
381cc000
3c18c000
6c18c000
cc186000
0c186000
0c186000
0c303000
0c303000
0c303000
0c601800
0c601800
0c600c00
0cc00e00
0cc00700
0d800700
0f000200
0c000000
00000000
00000000
ENDCHAR
STARTCHAR 2135
ENCODING 8501
SWIDTH 962 0
DWIDTH 26 0
BBX 26 27 0 -1
BITMAP
00000000
001c0000
00180000
00180000
00180000
20180200
3fffff00
60180700
e0180600
60180c00
00181000
00180000
00360000
00360000
00360000
00660000
00660000
00660000
00c60000
00c60000
01860200
03060200
06060300
0c07ff00
3003fe00
00000000
00000000
ENDCHAR
STARTCHAR 2136
ENCODING 8502
SWIDTH 962 0
DWIDTH 26 0
BBX 26 27 0 -1
BITMAP
00000000
07000000
06000000
06000000
06000200
0fffff00
0c000700
0c000600
18e00600
18c00600
30c40600
67fe0600
80ce0600
00cc0600
00cc0600
018c0600
018c2600
030c3600
030ff600
0607ec00
08000c00
00000c00
00001800
0007f800
00007000
00000000
00000000
ENDCHAR
STARTCHAR 2137
ENCODING 8503
SWIDTH 962 0
DWIDTH 26 0
BBX 26 27 0 -1
BITMAP
00000000
00600000
21f20200
3e03ff00
30030700
30030600
30030600
30030600
30030600
30030600
30030600
30030600
30030600
30030600
30030600
30e30600
37830600
3c030600
10037e00
00031c00
00030000
00030000
00030000
00030000
00030000
00000000
00000000
ENDCHAR
STARTCHAR 2138
ENCODING 8504
SWIDTH 962 0
DWIDTH 26 0
BBX 26 27 0 -1
BITMAP
00000000
00380000
00300000
00304000
7fffe000
0060e000
0060c000
00c0c200
00c0c200
0180c200
0300c300
0c00ff00
f0007e00
00000000
00380000
00300000
00300000
00708000
00606000
00c03000
00801800
00800c00
0103fc00
7ffc0e00
3f800600
00000000
00000000
ENDCHAR
STARTCHAR 2139
ENCODING 8505
SWIDTH 962 0
DWIDTH 26 0
BBX 26 27 0 -1
BITMAP
00000000
0e070000
0c060000
0c060000
0c060000
0c060000
0c060000
0cc60000
7fe60000
0c060000
0c060000
0c060000
0c060000
0c060000
0c060000
0c060000
0ce60000
0f860200
7c060200
70060200
20060200
00060300
00060300
0007fe00
0001fc00
00000000
00000000
ENDCHAR
STARTCHAR 213a
ENCODING 8506
SWIDTH 962 0
DWIDTH 26 0
BBX 26 27 0 -1
BITMAP
00000000
00008000
7fffc000
0c00c000
0c00c000
0c018000
0c018000
18018000
18030200
1813ff00
3ffb0700
34180600
26100600
62300600
43600600
81c00600
01c00600
03600600
06300600
1c1c0c00
600f0c00
00001800
00007800
0007f000
0000e000
00000000
00000000
ENDCHAR
STARTCHAR 213b
ENCODING 8507
SWIDTH 962 0
DWIDTH 26 0
BBX 26 27 0 -1
BITMAP
00000000
00380000
00300000
00300000
00302000
3ffff000
00307000
00306000
00306000
00306000
00306000
00306000
00306600
ffffff00
00700000
00680000
00c80000
00c40000
01860000
01830000
03018000
0600e000
0c007800
30001f00
c0000600
00000000
00000000
ENDCHAR
STARTCHAR 213c
ENCODING 8508
SWIDTH 962 0
DWIDTH 26 0
BBX 26 27 0 -1
BITMAP
00000000
001c0000
00180000
00180000
00180000
0618c000
06183000
0e181800
0c180c00
18180600
18180700
30180300
30180000
60180000
9c180000
0c180000
06000000
03000000
01800000
00c00000
00600000
00380000
001e0000
000f8000
0003f000
00000000
00000000
ENDCHAR
STARTCHAR 213d
ENCODING 8509
SWIDTH 962 0
DWIDTH 26 0
BBX 26 27 0 -1
BITMAP
00000000
00380000
00300000
00300000
00300600
ffffff00
00300000
00300000
00300000
20300800
3ffffc00
30301c00
30301800
30301800
30301800
30301800
30301800
30301800
30301800
30301800
3031f800
30307000
00300000
00300000
00300000
00000000
00000000
ENDCHAR
STARTCHAR 213e
ENCODING 8510
SWIDTH 962 0
DWIDTH 26 0
BBX 26 27 0 -1
BITMAP
00000000
00006000
0ffff000
0c0c0000
0c0c0000
0c0c0000
0c0c0000
0c0c0000
180c0000
18180600
1fffff00
00300000
00370000
00360000
00660000
00660000
00c60000
00c60000
01860000
03860200
03060200
06060300
0c060300
3007ff00
c003fe00
00000000
00000000
ENDCHAR
STARTCHAR 213f
ENCODING 8511
SWIDTH 962 0
DWIDTH 26 0
BBX 26 27 0 -1
BITMAP
00000000
02008000
03ffc000
0301c000
03018000
03018000
03018000
03018000
06018000
0601ff00
0c00fe00
70000000
00002000
0ffff000
02007000
01006000
0180c000
00c18000
00630000
003e0000
003c0000
00f60000
0383c000
0e00ff00
70001e00
00000000
00000000
ENDCHAR
STARTCHAR 2140
ENCODING 8512
SWIDTH 962 0
DWIDTH 26 0
BBX 26 27 0 -1
BITMAP
00000000
10000800
1ffffc00
18181c00
18181800
18181800
18181800
18181800
18181800
18181800
18181b00
ffffff00
30303000
30303000
30303000
30303000
30303000
30303000
30603000
30603600
3ffffe00
30c03000
00c03000
0181f000
0200e000
00000000
00000000
ENDCHAR
STARTCHAR 2141
ENCODING 8513
SWIDTH 962 0
DWIDTH 26 0
BBX 26 27 0 -1
BITMAP
00000000
0e000000
0c000000
0c001800
0ffffc00
18000000
10000000
30006000
27fff000
40000000
80000000
00002000
fffff000
00007000
00006000
00006000
00006000
00006000
00003100
00003100
00003100
00001900
00001d00
00000f00
00000200
00000000
00000000
ENDCHAR
STARTCHAR 2142
ENCODING 8514
SWIDTH 962 0
DWIDTH 26 0
BBX 26 27 0 -1
BITMAP
00000000
00007000
03806000
03006000
03006000
03006000
03006000
03006000
03006000
03ffe000
02006000
00006000
00006000
04006000
07ffe000
06006000
06006000
06006000
06006000
06006000
06006000
0c006000
0c006000
18006000
30006000
00000000
00000000
ENDCHAR
STARTCHAR 2143
ENCODING 8515
SWIDTH 962 0
DWIDTH 26 0
BBX 26 27 0 -1
BITMAP
00000000
00738000
00630000
00630000
00630000
1c630e00
18630c00
18630c00
18630c00
18630c00
18630c00
18630c00
18630c00
18630c00
1fe3fc00
18630c00
18630c00
00c30000
00c30000
01830000
01830000
03030000
06030000
18030000
60030000
00000000
00000000
ENDCHAR
STARTCHAR 2144
ENCODING 8516
SWIDTH 962 0
DWIDTH 26 0
BBX 26 27 0 -1
BITMAP
00000000
0380e000
0300c000
0300c000
0300c000
0300cc00
7ffffe00
0300c000
0300c000
0330c000
0318c000
031cc000
0308c000
0300c000
0300c300
ffffff00
0300c000
0300c000
0600c000
0600c000
0c00c000
0c00c000
1800c000
3000c000
c000c000
00000000
00000000
ENDCHAR
STARTCHAR 2145
ENCODING 8517
SWIDTH 962 0
DWIDTH 26 0
BBX 26 27 0 -1
BITMAP
00000000
03000000
03000000
03000000
06000c00
067ffe00
06000000
0c000000
0c000000
18000000
18000000
3c000000
6c001800
4c3ffc00
8c000000
0c000000
0c000000
0c000000
0c000000
0c000000
0c000600
0dffff00
0c000000
0c000000
0c000000
00000000
00000000
ENDCHAR
STARTCHAR 2146
ENCODING 8518
SWIDTH 962 0
DWIDTH 26 0
BBX 26 27 0 -1
BITMAP
00000000
03000000
03000000
03000000
06000c00
067ffe00
06030000
0c030000
0c030000
18030000
18030000
3c030000
6c030000
4c030000
8c030000
0c030000
0c030000
0c030000
0c030000
0c030400
0c030e00
0dffff00
0c000000
0c000000
0c000000
00000000
00000000
ENDCHAR
STARTCHAR 2147
ENCODING 8519
SWIDTH 962 0
DWIDTH 26 0
BBX 26 27 0 -1
BITMAP
00000000
06038000
06030000
06030000
0c030000
0c030000
0c030000
18030000
18030000
18030000
38030c00
2c03fe00
6c030000
4c030000
8c030000
0c030000
0c030000
0c030000
0c030000
0c030000
0c030000
0c030000
0c030600
0dffff00
0c000000
00000000
00000000
ENDCHAR
STARTCHAR 2148
ENCODING 8520
SWIDTH 962 0
DWIDTH 26 0
BBX 26 27 0 -1
BITMAP
00000000
0e180000
0c180000
0c300000
18300c00
183ffe00
18600000
30400000
30800000
78801000
d83ffc00
d8007800
9800e000
1801c000
18038000
18070000
180e0000
181c0000
18300200
18300200
18600200
18600300
187fff00
183ffe00
18000000
00000000
00000000
ENDCHAR
STARTCHAR 2149
ENCODING 8521
SWIDTH 962 0
DWIDTH 26 0
BBX 26 27 0 -1
BITMAP
00000000
00380000
00300000
00680000
00640000
00c60000
01830000
03018000
0600e000
0c007800
18001f00
30000e00
c0000000
07ffe000
00180000
00180000
00180000
00180000
00180000
00180000
00180000
00180000
00180000
3ffffc00
00000000
00000000
00000000
ENDCHAR
STARTCHAR 214a
ENCODING 8522
SWIDTH 962 0
DWIDTH 26 0
BBX 26 27 0 -1
BITMAP
00000000
001c0000
00180000
00340000
00660000
00c30000
01818000
0300c000
06006000
0c1c3000
18181c00
30180f00
c0180600
0e183800
0c183000
0c183000
0c183000
0c183000
0c183000
0c183000
0c183000
0c183000
0ffff000
0c003000
0c000000
00000000
00000000
ENDCHAR
STARTCHAR 214b
ENCODING 8523
SWIDTH 962 0
DWIDTH 26 0
BBX 26 27 0 -1
BITMAP
00000000
00700700
00600600
00600600
0060e600
0060c600
0060c600
006cc600
fffec600
0060c600
0060c600
0060c600
1060c600
0860c600
0c60c600
0c60c600
0660c600
0460c600
0060c600
0060c600
00600600
00600600
00600600
03e03e00
01c01c00
00000000
00000000
ENDCHAR
STARTCHAR 214c
ENCODING 8524
SWIDTH 962 0
DWIDTH 26 0
BBX 26 27 0 -1
BITMAP
00000000
18000300
18000300
30000300
300c0300
3ffe0300
60007300
40006300
80006300
80106300
3ffc6300
00786300
00e06300
01c06300
03806300
07006300
0e006300
1c006300
30026300
30020300
60020300
60030300
7fff0300
3ffe1f00
00000c00
00000000
00000000
ENDCHAR
STARTCHAR 214d
ENCODING 8525
SWIDTH 962 0
DWIDTH 26 0
BBX 26 27 0 -1
BITMAP
00000000
80000600
ffffff00
c0000000
c3870000
c3060000
c3060000
c3060000
c3060800
c307fc00
c3fe1c00
df061800
c3061800
c3061800
c3063000
c3064000
c3060000
c3000800
c3000c00
c3fffc00
c1fff800
c0000000
c0000000
ffffff00
7ffffe00
00000000
00000000
ENDCHAR
STARTCHAR 214e
ENCODING 8526
SWIDTH 962 0
DWIDTH 26 0
BBX 26 27 0 -1
BITMAP
00000000
10000800
18c61c00
18c61c00
18c61800
18c61800
18c61800
18c61800
18c61800
18c61800
18c61900
ffffff00
18c61800
18c61800
18c61800
18c61800
18c61800
18c61800
18c61800
18c61800
18c61800
18c61800
18c61800
1800f800
18003000
00000000
00000000
ENDCHAR
STARTCHAR 214f
ENCODING 8527
SWIDTH 962 0
DWIDTH 26 0
BBX 26 27 0 -1
BITMAP
00000000
1c000600
18ffff00
1800c000
1800c000
1800c000
1800c000
1980c000
ffc0c000
1800c000
1800c000
1800c000
1800c000
1800c000
1800c000
1800c000
19c0c000
1f00c000
f800c000
e000c000
4000c000
0000c000
0000c000
001fc000
00078000
00000000
00000000
ENDCHAR
STARTCHAR 2150
ENCODING 8528
SWIDTH 962 0
DWIDTH 26 0
BBX 26 27 0 -1
BITMAP
00000000
00006000
1ffff000
04006000
0400c000
03018000
01830000
00c60000
006c0000
00380000
006c0000
01c70000
0701c000
1c1c7000
70181e00
00180000
00186000
0ffff000
00180000
00180000
00180000
00180000
00180c00
7ffffe00
00000000
00000000
00000000
ENDCHAR
STARTCHAR 2151
ENCODING 8529
SWIDTH 962 0
DWIDTH 26 0
BBX 26 27 0 -1
BITMAP
00000000
03800000
03030200
0303ff00
061b0700
07ff0600
0c1b0600
0c1b0600
181b0600
181b0600
34330600
23330600
41a31e00
81e30c00
00c30000
00c30000
01830000
01830000
03030000
06030000
0c030200
18030300
30030300
c003ff00
0001fe00
00000000
00000000
ENDCHAR
STARTCHAR 2152
ENCODING 8530
SWIDTH 962 0
DWIDTH 26 0
BBX 26 27 0 -1
BITMAP
00000000
001c0000
00180000
00180000
00180000
00180600
ffffff00
00300000
00660000
01c38000
0700e000
1c703800
e0600f00
00600600
00601000
1ffff800
00c03800
00c03000
00c03000
01803000
01803000
03006000
06006000
181fc000
00078000
00000000
00000000
ENDCHAR
STARTCHAR 2153
ENCODING 8531
SWIDTH 962 0
DWIDTH 26 0
BBX 26 27 0 -1
BITMAP
00000000
001c0000
00180000
00180000
20180200
3fffff00
60000600
e0000600
c0000c00
00000000
0fffe000
00180000
00180000
00180000
00180000
00180000
00180000
00180000
00180000
00180000
00180000
00180000
00180000
07f80000
00700000
00000000
00000000
ENDCHAR
STARTCHAR 2154
ENCODING 8532
SWIDTH 962 0
DWIDTH 26 0
BBX 26 27 0 -1
BITMAP
00000000
001c0000
00180000
20180200
3fffff00
60000700
e0700600
60600c00
00600000
00600000
00604000
1fffe000
0060e000
0060c000
0060c000
00c0c000
00c0c000
00c0c000
0180c000
0180c200
0300c200
0300c300
0600c300
0c00ff00
30007e00
00000000
00000000
ENDCHAR
STARTCHAR 2155
ENCODING 8533
SWIDTH 962 0
DWIDTH 26 0
BBX 26 27 0 -1
BITMAP
00000000
00380000
00300000
00680000
00640000
00c60000
01830000
03018000
0600e000
0c007800
18001f00
301c0600
60180000
80180000
00180000
0618c000
06183000
0c181800
0c180c00
18180600
18180700
30180300
40180000
01f80000
00300000
00000000
00000000
ENDCHAR
STARTCHAR 2156
ENCODING 8534
SWIDTH 962 0
DWIDTH 26 0
BBX 26 27 0 -1
BITMAP
00000000
10000800
1ffffc00
18001c00
18001800
18001800
18001800
1ffff800
18181800
18180000
18180000
18180000
18182000
1bfff000
18187000
18186000
30306000
30306000
30306200
20606200
20606200
40c06300
41806300
83007f00
0c003e00
00000000
00000000
ENDCHAR
STARTCHAR 2157
ENCODING 8535
SWIDTH 962 0
DWIDTH 26 0
BBX 26 27 0 -1
BITMAP
00000000
001c0000
00180000
1c181c00
18181800
18181800
18181800
18181800
1ffff800
18001800
00380000
00300000
00300000
7ffffc00
00301c00
00301800
00601800
00601800
00601800
00c01800
00c03000
01803000
03007000
0c0fe000
3003c000
00000000
00000000
ENDCHAR
STARTCHAR 2158
ENCODING 8536
SWIDTH 962 0
DWIDTH 26 0
BBX 26 27 0 -1
BITMAP
00000000
00e00000
00300000
00180000
003c0000
00660000
00c30000
01818000
0300c000
06006000
0c1c3000
18181c00
30180f00
c0180600
0e183800
0c183000
0c183000
0c183000
0c183000
0c183000
0c183000
0c183000
0ffff000
0c003000
00000000
00000000
00000000
ENDCHAR
STARTCHAR 2159
ENCODING 8537
SWIDTH 962 0
DWIDTH 26 0
BBX 26 27 0 -1
BITMAP
00000000
0e000000
0c000600
0c1fff00
0c006000
8c406000
ffe06000
cce06000
ccc06000
ccc06000
ccc06000
ccc06000
ccc06000
ccc06000
ccc06000
ccc06000
ccc06000
cfc06000
cd806000
0c006000
0c006000
0c006000
0c006000
0c07e000
0c01c000
00000000
00000000
ENDCHAR
STARTCHAR 215a
ENCODING 8538
SWIDTH 962 0
DWIDTH 26 0
BBX 26 27 0 -1
BITMAP
00000000
000e0000
000c0000
200c0600
3fffff00
30000000
31c00000
31800000
31800000
31800000
31800000
31807000
31806000
3180c000
31818000
31870000
319c0400
31f00400
61800600
61800600
61800600
41800600
c1fffe00
80fffc00
00000000
00000000
00000000
ENDCHAR
STARTCHAR 215b
ENCODING 8539
SWIDTH 962 0
DWIDTH 26 0
BBX 26 27 0 -1
BITMAP
00000000
000e0000
000c0000
200c0600
3fffff00
30000000
30070000
30060000
30060000
30060000
30060000
30060000
30060000
30060000
300d0000
300d8000
3018c000
30306000
60606000
60c03000
61801c00
46000f00
c0000600
80000000
00000000
00000000
00000000
ENDCHAR
STARTCHAR 215c
ENCODING 8540
SWIDTH 962 0
DWIDTH 26 0
BBX 26 27 0 -1
BITMAP
00000000
1c000000
18000000
18000200
183fff00
18018700
1c018600
5a018600
5b018600
59018600
d8018600
98018600
98018600
18018600
18030600
18030600
18030600
18060600
18060600
180c0600
180c0c00
18180c00
18181c00
1831f800
18c03000
00000000
00000000
ENDCHAR
STARTCHAR 215d
ENCODING 8541
SWIDTH 962 0
DWIDTH 26 0
BBX 26 27 0 -1
BITMAP
00000000
000ee000
000c3800
000c1800
000c0000
200c0600
3fffff00
300c0000
300c0000
300c0000
300c1800
300e1c00
30061800
30063000
30073000
30036000
3003c000
30c38000
37038200
3c06c200
700ce200
60387200
00e03b00
03801f00
1c000600
00000000
00000000
ENDCHAR
STARTCHAR 215e
ENCODING 8542
SWIDTH 962 0
DWIDTH 26 0
BBX 26 27 0 -1
BITMAP
00000000
1c038000
18030000
18030000
18030000
1a030000
ff030200
18ffff00
18030700
19030600
1a030600
1c060600
18060600
38060600
f8060600
d80c0600
180c0600
180c0600
18180600
18180600
18300c00
18300c00
18601c00
f8c3f800
3100f000
00000000
00000000
ENDCHAR
STARTCHAR 215f
ENCODING 8543
SWIDTH 962 0
DWIDTH 26 0
BBX 26 27 0 -1
BITMAP
00000000
0e000000
0c001800
1ffffc00
18000000
30000000
6ffff000
80000000
00000000
fffff800
00383800
00303000
00303000
00303000
00303000
00303000
00301800
00301900
00601900
00601900
00e00d00
00c00d00
00c00700
01800700
02000200
00000000
00000000
ENDCHAR
STARTCHAR 2160
ENCODING 8544
SWIDTH 962 0
DWIDTH 26 0
BBX 26 27 0 -1
BITMAP
00000000
00001000
3ffff800
00003800
00006000
00004000
00078000
001c0000
00180c00
00180c00
00981800
ffdc3000
01da4000
019a8000
03190000
03190000
06188000
0618c000
0c186000
18183000
30181c00
60180f00
80180600
01f80000
00700000
00000000
00000000
ENDCHAR
STARTCHAR 2161
ENCODING 8545
SWIDTH 962 0
DWIDTH 26 0
BBX 26 27 0 -1
BITMAP
00000000
00000000
60000000
38030000
18010000
00018000
02018000
02318000
c2388000
6430c000
6430c000
0c30c000
08306000
18306000
18606000
30603000
30603000
f0c03000
60c01800
60c01800
61800c00
31800e00
33000700
36000700
38000200
00000000
00000000
ENDCHAR
STARTCHAR 2162
ENCODING 8546
SWIDTH 962 0
DWIDTH 26 0
BBX 26 27 0 -1
BITMAP
00000000
180e0000
0c0c0000
060c0000
060c1000
000c7800
000fb000
017c3000
610c3000
320c3000
320c3000
060c3000
040c3000
0c183000
0c183000
18303000
18303000
78303000
30603200
30603200
30c03300
19803300
1b003f00
1c001e00
18000000
00000000
00000000
ENDCHAR
STARTCHAR 2163
ENCODING 8547
SWIDTH 962 0
DWIDTH 26 0
BBX 26 27 0 -1
BITMAP
00000000
00070000
60060000
30060000
30060000
00060000
00060400
00fffe00
c2060e00
62060c00
62060c00
04060c00
04060c00
0c060c00
08060c00
18060c00
100c0c00
f00c0c00
600c0c00
60180c00
60181800
70301800
30303800
3063f000
31806000
00000000
00000000
ENDCHAR
STARTCHAR 2164
ENCODING 8548
SWIDTH 962 0
DWIDTH 26 0
BBX 26 27 0 -1
BITMAP
00000000
03800000
03000000
03010000
03018000
0301c000
0300c400
03000e00
ffffff00
06000000
06000000
06000000
06e07000
0c606000
0c30c000
0c198000
0c0f0000
18060000
180f0000
18198000
3030c000
30607000
31801c00
66000700
c0000000
00000000
00000000
ENDCHAR
STARTCHAR 2165
ENCODING 8549
SWIDTH 962 0
DWIDTH 26 0
BBX 26 27 0 -1
BITMAP
00000000
831c0000
43980000
26180000
3c180000
18182000
3818f000
6c1f7000
8df86000
0c186000
0c186000
1c186000
1c186000
3c186000
6c306000
4c306000
8c306000
0c306000
0c606200
0c606200
0c406200
0cc06300
18806300
f9007f00
32003e00
00000000
00000000
ENDCHAR
STARTCHAR 2166
ENCODING 8550
SWIDTH 962 0
DWIDTH 26 0
BBX 26 27 0 -1
BITMAP
00000000
00000c00
7ffffe00
00180000
00180000
00188000
00186000
00183800
00181c00
00180800
00180000
00181800
3ffffc00
00180000
00180000
00180000
00180000
00180000
00180000
00180000
00180000
00180400
00180e00
ffffff00
00000000
00000000
00000000
ENDCHAR
STARTCHAR 2167
ENCODING 8551
SWIDTH 962 0
DWIDTH 26 0
BBX 26 27 0 -1
BITMAP
00000000
001c0000
00180000
00180000
00180000
20180400
3ffffe00
30180e00
30180c00
30180c00
30180c00
30110c00
30318c00
30308c00
3030cc00
30606c00
3067ec00
37fc6c00
33006c00
30000c00
30000c00
30000c00
30000c00
3001fc00
30003800
00000000
00000000
ENDCHAR
STARTCHAR 2168
ENCODING 8552
SWIDTH 962 0
DWIDTH 26 0
BBX 26 27 0 -1
BITMAP
00000000
41000000
7f800000
63800400
633ffe00
63001e00
63003800
7b007000
6f00e000
6301c000
63018000
63038000
63070000
670e0000
6f0c0000
7b1c0000
63380000
63700000
63600200
43600200
43600300
43600300
c37fff00
9f3ffe00
86000000
00000000
00000000
ENDCHAR
STARTCHAR 2169
ENCODING 8553
SWIDTH 962 0
DWIDTH 26 0
BBX 26 27 0 -1
BITMAP
00000000
41038000
7f830000
63830000
63030000
66030000
66030200
64ffff00
64030700
68030600
64030600
66060600
63060600
63060600
61860600
618c0600
618c0600
670c0600
7e180600
6c180600
60300c00
60300c00
60601c00
60c3f800
6100f000
00000000
00000000
ENDCHAR
STARTCHAR 216a
ENCODING 8554
SWIDTH 962 0
DWIDTH 26 0
BBX 26 27 0 -1
BITMAP
00000000
07038000
06030000
06030000
0c030600
0dffff00
0c030000
18030000
18030000
18030000
38030400
38fffe00
6c000c00
4c101800
cc301800
8c483000
8c8c6000
0c06c000
0c038000
0c038000
0c06c000
0c0c6000
0c183800
0c601f00
0d800600
00000000
00000000
ENDCHAR
STARTCHAR 216b
ENCODING 8555
SWIDTH 962 0
DWIDTH 26 0
BBX 26 27 0 -1
BITMAP
00000000
0c038000
0c031800
0c030c00
0c030c00
18030000
18030000
18030600
30ffff00
30030000
3002e000
7806c000
5806c000
9806c000
1806c000
180cc000
180cc000
180cc000
180cc000
1818c200
1818c200
1830c200
1860c300
18c0ff00
18007e00
00000000
00000000
ENDCHAR
STARTCHAR 216c
ENCODING 8556
SWIDTH 962 0
DWIDTH 26 0
BBX 26 27 0 -1
BITMAP
00000000
0c400800
0e7ffc00
0c601c00
0c601800
1c601800
18601800
18601800
18601800
30601800
307ff800
30641800
70640000
58640000
d8660000
98620000
18c30000
18c10000
18c18000
1880c000
1880c000
19806000
19003800
1a001f00
18000600
00000000
00000000
ENDCHAR
STARTCHAR 216d
ENCODING 8557
SWIDTH 962 0
DWIDTH 26 0
BBX 26 27 0 -1
BITMAP
00000000
061c0000
07180000
06180000
0c180000
0c300c00
0c3ffe00
18318000
18618000
1c618000
3cc18000
2d018000
6c018600
4c7fff00
8c018000
0c018000
0c018000
0c018000
0c018000
0c018000
0c018000
0c018000
0c018000
0c018000
0c018000
00000000
00000000
ENDCHAR
STARTCHAR 216e
ENCODING 8558
SWIDTH 962 0
DWIDTH 26 0
BBX 26 27 0 -1
BITMAP
00000000
0c000000
0c000000
0c800400
0cfffe00
19800e00
19801c00
19803000
31800000
30000000
301b8000
781b0000
581b0000
981b0000
181b0000
181b0000
181b0000
181b0000
18330000
18330200
18630200
18c30200
19830300
1b03ff00
1801fe00
00000000
00000000
ENDCHAR
STARTCHAR 216f
ENCODING 8559
SWIDTH 962 0
DWIDTH 26 0
BBX 26 27 0 -1
BITMAP
00000000
0c070000
0c060000
0c0d0000
0c0d8000
1818c000
18106000
18303000
30601c00
30400f00
309fe200
79000000
58000000
98000800
19fffc00
18001c00
18001800
18003000
18003000
18003000
18006000
18006000
18006000
1800c000
1800c000
00000000
00000000
ENDCHAR
STARTCHAR 2170
ENCODING 8560
SWIDTH 962 0
DWIDTH 26 0
BBX 26 27 0 -1
BITMAP
00000000
06002000
06063000
0c062000
0c0c2000
0c0c3000
180c3000
18181000
30181800
30100c00
70338e00
58230700
d8430200
98860000
18060000
18060000
180c0000
180c3000
18081800
18080c00
18180c00
18103e00
187fc600
183c0600
18000200
00000000
00000000
ENDCHAR
STARTCHAR 2171
ENCODING 8561
SWIDTH 962 0
DWIDTH 26 0
BBX 26 27 0 -1
BITMAP
00000000
07038000
06030000
06068000
06064000
0c0c6000
0c0c2000
0c183000
18181800
18300c00
18600700
38ce3a00
2d0c3000
6c0c3000
4c0c3000
8c0c3000
8c0c3000
0c0c3000
0c0c3000
0c0c3000
0c183000
0c183000
0c303000
0c603000
0c803000
00000000
00000000
ENDCHAR
STARTCHAR 2172
ENCODING 8562
SWIDTH 962 0
DWIDTH 26 0
BBX 26 27 0 -1
BITMAP
00000000
0e000000
0c0e0000
0c038000
0c01c000
1800c000
18000000
181c0000
30180000
30180000
30180000
78180800
58580400
58580600
98d80600
98980300
19980300
19981300
1b981000
1b181000
18181800
18181800
181ff800
180ff000
18000000
00000000
00000000
ENDCHAR
STARTCHAR 2173
ENCODING 8563
SWIDTH 962 0
DWIDTH 26 0
BBX 26 27 0 -1
BITMAP
00000000
06000000
06001800
067ffc00
0c000000
0c000000
0c000000
18000000
18000000
18000600
39ffff00
28060000
6c060000
4c060000
8c040000
0c0c0000
0c082000
0c181000
0c101800
0c300c00
0c203e00
0c43c600
0dfe0700
0cc00300
0c000200
00000000
00000000
ENDCHAR
STARTCHAR 2174
ENCODING 8564
SWIDTH 962 0
DWIDTH 26 0
BBX 26 27 0 -1
BITMAP
00000000
0c038000
0e030000
0c030000
1c030600
19ffff00
18030000
38030000
30030000
20830400
78fffe00
78c30e00
d8c30c00
98c30c00
18c30c00
18c30c00
18c30c00
18c30c00
18c30c00
18c30c00
18c33c00
18c31800
18c30000
18030000
18030000
00000000
00000000
ENDCHAR
STARTCHAR 2175
ENCODING 8565
SWIDTH 962 0
DWIDTH 26 0
BBX 26 27 0 -1
BITMAP
00000000
06038000
06030000
07030000
0e030c00
0cfffe00
1c030000
1c030000
18e30e00
38c30c00
30c30c00
70c30c00
78c30c00
d8c30c00
98c30c00
18c30c00
18fffc00
18c30c00
18c30000
18c30000
18030200
18030200
18030300
1803ff00
1801fe00
00000000
00000000
ENDCHAR
STARTCHAR 2176
ENCODING 8566
SWIDTH 962 0
DWIDTH 26 0
BBX 26 27 0 -1
BITMAP
00000000
07000c00
06fffe00
06006000
0e006000
0c386000
0c306000
1c306000
18306000
30306000
3c606000
6c606600
cc7fff00
8c00e000
0c01e000
0c03e000
0c076000
0c0e6000
0c186000
0c306000
0cc06000
0f006000
0c006000
0c0fe000
0c01c000
00000000
00000000
ENDCHAR
STARTCHAR 2177
ENCODING 8567
SWIDTH 962 0
DWIDTH 26 0
BBX 26 27 0 -1
BITMAP
00000000
07000000
06000600
06ffff00
0600e000
0c00c000
0c00c000
18018000
18018000
30030000
3c072000
6c079000
cc0d9800
8c198c00
0c318600
0c618600
0cc18300
0d018200
0c018000
0c018000
0c018000
0c018000
0c018000
0c018000
0c018000
00000000
00000000
ENDCHAR
STARTCHAR 2178
ENCODING 8568
SWIDTH 962 0
DWIDTH 26 0
BBX 26 27 0 -1
BITMAP
00000000
06000000
07000000
06000400
0cfffe00
0c030e00
0c030c00
18030c00
18830c00
18fffc00
30c30000
30c30000
71830000
59830200
d9ffff00
99830700
18030600
18030600
18030600
18030600
18031e00
18030c00
18030000
18030000
18030000
00000000
00000000
ENDCHAR
STARTCHAR 2179
ENCODING 8569
SWIDTH 962 0
DWIDTH 26 0
BBX 26 27 0 -1
BITMAP
00000000
06000000
07100400
061ffe00
0c180e00
0c180c00
0c180c00
18180c00
181ffc00
1c180c00
3c180c00
2c180c00
6c180c00
4c180c00
8c1ffc00
0c180c00
0c180c00
0c180c00
0c180c00
0c300c00
0c300c00
0c600c00
0c600c00
0cc1fc00
0d003800
00000000
00000000
ENDCHAR
STARTCHAR 217a
ENCODING 8570
SWIDTH 962 0
DWIDTH 26 0
BBX 26 27 0 -1
BITMAP
00000000
0e000e00
0c003f00
0c21f000
0c3f0000
0c300000
18300000
18300000
18300000
30300600
303fff00
78303000
58303000
98303000
18303000
18303000
18303000
18303000
18603000
18603000
18403000
18c03000
18803000
19003000
1a003000
00000000
00000000
ENDCHAR
STARTCHAR 217b
ENCODING 8571
SWIDTH 962 0
DWIDTH 26 0
BBX 26 27 0 -1
BITMAP
00000000
00000000
00000600
81ffff00
601c0000
30180000
30180000
02180000
02180800
063ffc00
04301c00
0c301800
0c301800
18701800
18603800
30603000
f07ff000
60e03000
60c03000
60c03000
30007000
30006000
30006600
33ffff00
00000000
00000000
00000000
ENDCHAR
STARTCHAR 217c
ENCODING 8572
SWIDTH 962 0
DWIDTH 26 0
BBX 26 27 0 -1
BITMAP
00000000
00000700
00300600
7ff80600
00000600
0000e600
0000c600
0000c600
0000c600
0018c600
fffcc600
1980c600
1980c600
1980c600
1980c600
1980c600
3180c600
3180c600
3180c600
61840600
61840600
c1840600
81860600
01fe1e00
00fc0c00
00000000
00000000
ENDCHAR
STARTCHAR 217d
ENCODING 8573
SWIDTH 962 0
DWIDTH 26 0
BBX 26 27 0 -1
BITMAP
00000000
10100700
1ff80600
1838e600
1830c600
1a30c600
1b30c600
1b30c600
1bb0c600
1bb0c600
1930c600
1834c600
fffec600
1830c600
1830c600
1830c600
1830c600
1830c600
1830c600
1830c600
30300600
30300600
30300600
23f07e00
40e01c00
00000000
00000000
ENDCHAR
STARTCHAR 217e
ENCODING 8574
SWIDTH 962 0
DWIDTH 26 0
BBX 26 27 0 -1
BITMAP
00000000
00380000
00300000
00301000
1ffff800
00303800
00603000
00603000
00c03000
03807000
0e03e000
3801c000
e0000000
00000000
0700e000
0620c200
7ff7ff00
0670c700
0c618600
0c618600
18630600
30660600
30e60e00
67cc7c00
c3983800
00000000
00000000
ENDCHAR
STARTCHAR 2221
ENCODING 8737
SWIDTH 962 0
DWIDTH 26 0
BBX 26 27 0 -1
BITMAP
00000000
80000600
ffffff00
c0000000
c1c00000
c1800000
c1800800
c1fffc00
c3319c00
c3319800
c6319800
d8631800
c0631800
c0631800
c0c61800
c0c63000
c18c3000
c3183000
c6303000
d8606000
c187e000
c001c000
c0000600
ffffff00
c0000000
00000000
00000000
ENDCHAR
STARTCHAR 2222
ENCODING 8738
SWIDTH 962 0
DWIDTH 26 0
BBX 26 27 0 -1
BITMAP
00000000
40000c00
7ffffe00
60000000
600e0000
600c3000
63fff800
60000000
60000000
60808000
60ffc000
60c1c000
60c18000
60c18000
60c18000
60c18000
60c19000
61819000
61819000
63019000
66019800
6c01f800
7000f000
7ffffe00
60000000
00000000
00000000
ENDCHAR
STARTCHAR 2223
ENCODING 8739
SWIDTH 962 0
DWIDTH 26 0
BBX 26 27 0 -1
BITMAP
00000000
00080700
fffc0600
001c0600
00180600
00180600
00180600
00180600
00180600
00180600
00180600
40180600
7ffffe00
60180600
60180600
60180000
60180000
60180000
60180000
60180000
60180000
60180000
60180600
601fff00
60180000
00000000
00000000
ENDCHAR
STARTCHAR 2224
ENCODING 8740
SWIDTH 962 0
DWIDTH 26 0
BBX 26 27 0 -1
BITMAP
00000000
08000600
0fffff00
0c000000
0c001800
0c1ffc00
0c00c000
0c70c000
0c60c000
0c60c000
0cc0c000
0cc0cc00
0cfffe00
0c00c000
1801c000
1803c000
1807c000
180ec000
301cc000
3030c000
3060c000
6180c000
6200c000
800fc000
00038000
00000000
00000000
ENDCHAR
STARTCHAR 2225
ENCODING 8741
SWIDTH 962 0
DWIDTH 26 0
BBX 26 27 0 -1
BITMAP
00000000
00000200
001fff00
00000300
40800600
7fc00c00
61c07800
61806000
61806000
61806000
61806000
61806000
61806600
61bfff00
61806000
61806000
61806000
61806000
7f806000
61806000
60006000
00006000
00006000
000fe000
0001c000
00000000
00000000
ENDCHAR
STARTCHAR 2226
ENCODING 8742
SWIDTH 962 0
DWIDTH 26 0
BBX 26 27 0 -1
BITMAP
00000000
80000100
ffffff00
c0000300
c0000300
c0700300
c0600300
c0600300
c0c00300
c0c00300
dffffb00
c180c300
c180c300
c3018300
c3018300
c6f30300
c60e0300
c01f8300
c030e300
c1c03b00
de001b00
c0000300
c0000300
ffffff00
c0000300
00000000
00000000
ENDCHAR
STARTCHAR 2227
ENCODING 8743
SWIDTH 962 0
DWIDTH 26 0
BBX 26 27 0 -1
BITMAP
00000000
01c00000
01800000
03000000
03000000
06000000
48000400
7ffffe00
60000e00
6000cc00
6001ec00
60018c00
6e030c00
61830c00
60660c00
601c0c00
603c0c00
60660c00
60c30c00
6381ec00
6c006c00
60000c00
60000c00
7ffffc00
60000c00
00000000
00000000
ENDCHAR
STARTCHAR 2228
ENCODING 8744
SWIDTH 962 0
DWIDTH 26 0
BBX 26 27 0 -1
BITMAP
00000000
0e000000
0c000400
0c1ffe00
0c000e00
0c000c00
0c800c00
ffc00c00
0c000c00
0c000c00
0c100c00
0c1ffc00
0c180c00
0c180c00
0c180000
0c180000
0c180000
0f980000
0e180200
78180200
70180200
20180300
001fff00
000ffe00
00000000
00000000
00000000
ENDCHAR
STARTCHAR 2229
ENCODING 8745
SWIDTH 962 0
DWIDTH 26 0
BBX 26 27 0 -1
BITMAP
00000000
00180000
0e180000
0c300000
0c300c00
0c3ffe00
0c600000
0c400000
0d000000
7f801000
0c1ffc00
0c007800
0c00e000
0c01c000
0c038000
0c070000
0c0e0000
0d9c0000
0f300200
f8300200
70600200
00600300
007fff00
003ffe00
00000000
00000000
00000000
ENDCHAR
STARTCHAR 222a
ENCODING 8746
SWIDTH 962 0
DWIDTH 26 0
BBX 26 27 0 -1
BITMAP
00000000
0e0e0000
0c0c0000
0c0c0000
0c0c0000
0c180000
0c180200
0c9fff00
ffb00700
0c600600
0c400600
0c800600
0c080600
0c0c0600
0c070600
0c078600
0dc3c600
1f018600
f8000600
e0000600
00000600
00000c00
00001c00
0003fc00
00007800
00000000
00000000
ENDCHAR
STARTCHAR 222b
ENCODING 8747
SWIDTH 962 0
DWIDTH 26 0
BBX 26 27 0 -1
BITMAP
00000000
001c0000
00180000
00380000
00300600
ffffff00
00620000
00c18000
0180c000
03006000
06003800
0c001c00
371c7700
e6186200
06186000
06186000
06186000
06186000
06186000
06186000
06186000
0c186000
0c186000
18186000
20186000
00000000
00000000
ENDCHAR
STARTCHAR 222c
ENCODING 8748
SWIDTH 962 0
DWIDTH 26 0
BBX 26 27 0 -1
BITMAP
00000000
00000000
0001c000
00818000
ffc18600
01c18600
019fff00
01830c00
01830c00
01830c00
01830c00
7fc70c00
60061800
60061800
600c1800
600c1000
601c3000
600f6000
6001c000
6040e000
6181b000
67031c00
7c060600
600c0700
00300200
00000000
00000000
ENDCHAR
STARTCHAR 222d
ENCODING 8749
SWIDTH 962 0
DWIDTH 26 0
BBX 26 27 0 -1
BITMAP
00000000
0e000000
0c001800
0c007c00
1803e000
183f0000
18830000
ffc30000
31c30000
31830000
31830c00
3183fe00
21bf0000
61830000
61030000
63030000
d3030000
ce030000
06030000
0f030200
0d830200
19c30200
30830300
6003ff00
8001fe00
00000000
00000000
ENDCHAR
STARTCHAR 222e
ENCODING 8750
SWIDTH 962 0
DWIDTH 26 0
BBX 26 27 0 -1
BITMAP
00000000
0e000000
0c000000
0c000000
0c200000
0c600c00
fff7fe00
0c706000
0c606000
0c606000
18606000
18606000
18606000
30c06000
30c06000
30c06000
7c806000
63806000
01c06000
03606000
06306000
0c206600
180fff00
30000000
c0000000
00000000
00000000
ENDCHAR
STARTCHAR 222f
ENCODING 8751
SWIDTH 962 0
DWIDTH 26 0
BBX 26 27 0 -1
BITMAP
00000000
0e00e000
0c00c000
0c00c000
0c20c200
0c60c600
fff7ff00
0c70c700
18618600
18618600
18618600
18618600
30630600
30c30c00
30c30c00
30c30c00
7c87c800
63863800
01c01c00
03603600
06306300
0c20c200
18018000
30030000
c00c0000
00000000
00000000
ENDCHAR
STARTCHAR 2230
ENCODING 8752
SWIDTH 962 0
DWIDTH 26 0
BBX 26 27 0 -1
BITMAP
00000000
1c007000
18006000
18006000
18406000
18c06000
ffec6300
18ec6300
30cc6300
30cc6300
30cc6300
30cc6300
60cc6300
618c6300
618c6300
618c6300
f90c6300
c70c6300
038c6300
06cc6300
0c6fff00
184c0300
300c0300
60000000
80000000
00000000
00000000
ENDCHAR
STARTCHAR 2231
ENCODING 8753
SWIDTH 962 0
DWIDTH 26 0
BBX 26 27 0 -1
BITMAP
00000000
0e000000
0c003c00
0c00f000
0c03c000
181cc000
1880c000
ffc0c000
19c0c000
1980c000
3180c600
31bfff00
3180c000
3180c000
6180c000
6100c000
6300c000
7a00c000
6600c000
0700c000
0d80c000
1880c000
1000c000
2000c000
c000c000
00000000
00000000
ENDCHAR
STARTCHAR 2232
ENCODING 8754
SWIDTH 962 0
DWIDTH 26 0
BBX 26 27 0 -1
BITMAP
00000000
1c000000
18000000
18038000
18030000
18030000
18830800
ffc61800
19dffc00
19861c00
19861800
398c1800
398c1000
199e3000
3d9b2000
3d80e000
3580e000
3181b000
21833000
61861a00
618c1200
41b00200
41800300
81ffff00
80fffe00
00000000
00000000
ENDCHAR
STARTCHAR 2233
ENCODING 8755
SWIDTH 962 0
DWIDTH 26 0
BBX 26 27 0 -1
BITMAP
00000000
00100200
7ffbff00
00180300
00300600
00600c00
03c07800
03006000
03006000
03006000
03006000
03006000
03606600
fff7ff00
03006000
03006000
03006000
03006000
03006000
03006000
03006000
03006000
03006000
3f03e000
0e00c000
00000000
00000000
ENDCHAR
STARTCHAR 2234
ENCODING 8756
SWIDTH 962 0
DWIDTH 26 0
BBX 26 27 0 -1
BITMAP
00000000
00008000
0fffc000
0181c000
01818000
01818000
01830400
0303fe00
03000e00
03000c00
06000c00
06180c00
0c181800
1819f800
00187000
01188000
0318c000
06186000
0c183000
1c183800
18181800
00180000
00180000
01f80000
00700000
00000000
00000000
ENDCHAR
STARTCHAR 2235
ENCODING 8757
SWIDTH 962 0
DWIDTH 26 0
BBX 26 27 0 -1
BITMAP
00000000
07000000
06000000
06000000
06038000
06330000
fffb0000
06060000
06060400
06cffe00
06cc0e00
06d80c00
0ce00c00
0cc60c00
0cc38c00
0cc1ec00
18c0cc00
18c00c00
18c00c00
30c01c00
30c1fa00
60c07200
40c00300
c0ffff00
807ffe00
00000000
00000000
ENDCHAR
STARTCHAR 2236
ENCODING 8758
SWIDTH 962 0
DWIDTH 26 0
BBX 26 27 0 -1
BITMAP
00000000
00000600
0e7fff00
0c066000
0c066000
0c066000
cc866000
cc866000
cc866000
cc8c6000
cc8c6000
cc8c6000
cc8c6000
cc986000
cc986000
cc986000
cc986000
ccb06000
ccb06000
ccb06200
ffa06200
c0606200
c0c06300
01807f00
02003e00
00000000
00000000
ENDCHAR
STARTCHAR 2237
ENCODING 8759
SWIDTH 962 0
DWIDTH 26 0
BBX 26 27 0 -1
BITMAP
00000000
0e000000
0c000200
0c0fff00
0c000700
0c000600
cc600600
cc600600
cc600600
cc600600
cc680600
cc6ffe00
cc6c0600
cc6c0000
cc6c0000
cc6c0000
cc6c0000
cc6c0000
cc6c0200
cc6c0200
ffec0200
c06c0200
c06c0300
c06fff00
0007fe00
00000000
00000000
ENDCHAR
STARTCHAR 2238
ENCODING 8760
SWIDTH 962 0
DWIDTH 26 0
BBX 26 27 0 -1
BITMAP
00000000
0e000000
0c000200
0c1fff00
0c018700
0c018600
ccc18600
ccc18600
ccc18600
ccc18600
ccc98600
cccd8600
ccc78600
ccc38600
ccc18600
ccc1c600
ccc34600
ccc30600
ccc30600
ccc60600
ffc60600
c00c0c00
c0181c00
0031f800
00407000
00000000
00000000
ENDCHAR
STARTCHAR 2239
ENCODING 8761
SWIDTH 962 0
DWIDTH 26 0
BBX 26 27 0 -1
BITMAP
00000000
07003800
06003000
06003000
06003000
06003000
c6663300
c6663300
c6663300
c6663300
c6663300
c6663300
c6663300
c6663300
c6663300
c6663300
c6663300
c6663300
c6663300
c6663300
c6663300
ffe7ff00
c0660300
c0060000
00000000
00000000
00000000
ENDCHAR
STARTCHAR 223a
ENCODING 8762
SWIDTH 962 0
DWIDTH 26 0
BBX 26 27 0 -1
BITMAP
00000000
001c0000
00180600
7fffff00
18000000
18000000
18000000
18000000
18000000
18000000
1ffffc00
0ffff800
00000000
0738e000
0630c000
0630c000
0630c000
0630c000
0630c000
0630c000
0c30c200
0c30c200
1830c300
3030ff00
c0007e00
00000000
00000000
ENDCHAR
STARTCHAR 223b
ENCODING 8763
SWIDTH 962 0
DWIDTH 26 0
BBX 26 27 0 -1
BITMAP
00000000
00003000
1fe7f800
0180c000
0180c000
0180c000
0180c000
0180c000
ffe0c600
030fff00
0300c000
0300c000
0300c000
0600c000
0600c000
0600c000
0c00c000
1800c000
3000c000
6000c000
8000c000
0000c000
0000c000
0000c000
0000c000
00000000
00000000
ENDCHAR
STARTCHAR 223c
ENCODING 8764
SWIDTH 962 0
DWIDTH 26 0
BBX 26 27 0 -1
BITMAP
00000000
000e0000
000c0000
200c0600
3fffff00
30000000
30070000
30060000
30060000
30060000
30060000
30060c00
33fffe00
30060000
30060000
30060000
30060000
60060000
60060000
60060000
40060000
c0060000
80060600
8fffff00
00000000
00000000
00000000
ENDCHAR
STARTCHAR 223d
ENCODING 8765
SWIDTH 962 0
DWIDTH 26 0
BBX 26 27 0 -1
BITMAP
00000000
00001800
07fff800
00003000
00003000
08003000
0ffff000
0c000000
0c000200
0c000300
0c000300
0fffff00
00000000
01c1c000
01818000
01818000
01818600
ffffff00
01818000
01818000
01818000
03018000
03018000
06018000
1c018000
00000000
00000000
ENDCHAR
STARTCHAR 223e
ENCODING 8766
SWIDTH 962 0
DWIDTH 26 0
BBX 26 27 0 -1
BITMAP
00000000
01808000
03004000
06003000
1c001c00
78000e00
00000600
3ffffc00
00180c00
00180c00
20180c00
3ffffc00
30180c00
30180000
30180000
30180200
3fffff00
00180700
00180600
00180600
00180e00
00181c00
0018f800
00183000
00180000
00000000
00000000
ENDCHAR
STARTCHAR 223f
ENCODING 8767
SWIDTH 962 0
DWIDTH 26 0
BBX 26 27 0 -1
BITMAP
00000000
0c1c0000
0c180000
18180000
18300000
30300200
663fff00
46600700
8c400600
0cc00600
18800600
19000600
38100600
380c0600
78060600
58070600
d8030600
98020600
18000600
18000600
18000600
18000c00
18001c00
1803f800
1800f000
00000000
00000000
ENDCHAR
STARTCHAR 2240
ENCODING 8768
SWIDTH 962 0
DWIDTH 26 0
BBX 26 27 0 -1
BITMAP
00000000
1c038000
18030000
18030000
18030000
18030000
1c030000
5b030000
59830600
58ffff00
d8030000
98030000
98070000
18068000
18068000
180cc000
180c4000
18186000
18186000
18303000
18303000
18601800
18c01e00
19800f00
1e000200
00000000
00000000
ENDCHAR
STARTCHAR 2241
ENCODING 8769
SWIDTH 962 0
DWIDTH 26 0
BBX 26 27 0 -1
BITMAP
00000000
1c180000
18180000
18300000
18300c00
183ffe00
1c600000
5a400000
5b800000
58801000
583ffc00
58007800
d800e000
9801c000
98038000
18070000
180e0000
181c0000
18300200
18300200
18600200
18600300
187fff00
183ffe00
18000000
00000000
00000000
ENDCHAR
STARTCHAR 2242
ENCODING 8770
SWIDTH 962 0
DWIDTH 26 0
BBX 26 27 0 -1
BITMAP
00000000
0e000800
0c001c00
0c00fc00
0c07c000
0cfb0000
0c030000
0c030000
0c030000
4e030000
6d830000
6d830600
6dffff00
2c030000
0c030000
0c030000
0c030000
0c030000
0c030000
0c030000
0c030000
0c030000
0c030000
0c030000
0c030000
00000000
00000000
ENDCHAR
STARTCHAR 2243
ENCODING 8771
SWIDTH 962 0
DWIDTH 26 0
BBX 26 27 0 -1
BITMAP
00000000
1c000000
18000c00
187ffe00
18018000
18018000
19018000
ff818000
18018000
18018000
18018600
18ffff00
18018000
1b018000
fc018000
f8018000
18018000
18018000
18018000
18018000
18018000
18018000
18018000
f80f8000
30030000
00000000
00000000
ENDCHAR
STARTCHAR 2244
ENCODING 8772
SWIDTH 962 0
DWIDTH 26 0
BBX 26 27 0 -1
BITMAP
00000000
0e000000
0c000000
0c000c00
0c1ffe00
0c80c000
ffc0c000
0c00c000
0c00c000
0c80c000
0d00c600
0e3fff00
0c00c000
1c00c000
7c00c000
ec00c000
cc00c000
0c00c000
0c00c000
0c00c000
0c00c000
0c00c000
0c00c000
7c00c000
1800c000
00000000
00000000
ENDCHAR
STARTCHAR 2245
ENCODING 8773
SWIDTH 962 0
DWIDTH 26 0
BBX 26 27 0 -1
BITMAP
00000000
1c000000
18000000
18000000
18000600
187fff00
1a066000
ff066000
18066000
18066000
19066000
1a066000
1c066000
18066000
38066000
f8066000
d8066000
180c6000
180c6000
180c6000
18186100
18186100
18306100
f8407f00
30003e00
00000000
00000000
ENDCHAR
STARTCHAR 2246
ENCODING 8774
SWIDTH 962 0
DWIDTH 26 0
BBX 26 27 0 -1
BITMAP
00000000
1c000000
18000000
1800e000
1800c000
181cc000
1a18c200
ff18cf00
1818f700
1819c600
191ec600
1a78c600
1c18c600
1818c600
3818c600
f818c400
d818c400
1818c000
1818c000
18180000
18180100
18180100
18180100
f81fff00
300ffe00
00000000
00000000
ENDCHAR
STARTCHAR 2247
ENCODING 8775
SWIDTH 962 0
DWIDTH 26 0
BBX 26 27 0 -1
BITMAP
00000000
1c000000
18001c00
18007e00
1807c000
183d8000
1a018000
ff018000
18018000
18018000
18018600
197fff00
1a018000
1c018000
18018000
38018000
f8018000
d8018000
18018000
18018000
18018000
18018000
18018000
f8018000
30018000
00000000
00000000
ENDCHAR
STARTCHAR 2248
ENCODING 8776
SWIDTH 962 0
DWIDTH 26 0
BBX 26 27 0 -1
BITMAP
00000000
0e060000
0c070000
0c060000
0c060000
0c0c0600
0c0fff00
0c980000
ffd00000
0c200200
0c07ff00
0c800700
0d000e00
0e000c00
1c003800
7c003000
ec00e000
cc00c000
0c038000
0c070000
0c0e0100
0c1c0100
0c180100
7c1fff00
180ffe00
00000000
00000000
ENDCHAR
STARTCHAR 2249
ENCODING 8777
SWIDTH 962 0
DWIDTH 26 0
BBX 26 27 0 -1
BITMAP
00000000
0e007000
0c006000
0c006000
0c006000
0c006600
0c9fff00
ffc06000
0c006000
0c086000
0c086000
0c8c6000
0d0c6000
1e066000
fc066000
ec034000
0c01c000
0c018000
0c00c000
0c01c000
0c036000
0c063000
0c0c1c00
fc300f00
38c00600
00000000
00000000
ENDCHAR
STARTCHAR 224a
ENCODING 8778
SWIDTH 962 0
DWIDTH 26 0
BBX 26 27 0 -1
BITMAP
00000000
1c000000
18000600
183fff00
18000600
18100600
19120600
ff930c00
18198c00
1809cc00
180cd800
180c1800
19063000
1e063000
f8036000
d8034000
1801c000
1801c000
18036000
18063000
18043000
180c1800
18180e00
f8300700
30c00300
00000000
00000000
ENDCHAR
STARTCHAR 224b
ENCODING 8779
SWIDTH 962 0
DWIDTH 26 0
BBX 26 27 0 -1
BITMAP
00000000
1c0e0000
180c0000
180c0000
18180000
18180200
183fff00
1a300700
ff600600
18800600
19000600
18040600
1a060600
1c030600
38038600
f8018600
d8000600
18000600
18000600
18000600
18000600
18000600
18001c00
f801f800
30003000
00000000
00000000
ENDCHAR
STARTCHAR 224c
ENCODING 8780
SWIDTH 962 0
DWIDTH 26 0
BBX 26 27 0 -1
BITMAP
00000000
1c000000
18030000
18031800
18037c00
180fc000
1a7b0000
ff030000
18030000
18030000
18030000
1a030000
1c030600
39ffff00
f8030000
d8030000
18030000
18030000
18030200
18030200
18030200
18030300
18030300
f803ff00
3001fe00
00000000
00000000
ENDCHAR
STARTCHAR 224d
ENCODING 8781
SWIDTH 962 0
DWIDTH 26 0
BBX 26 27 0 -1
BITMAP
00000000
00038000
00630000
ffe60000
18060000
18060000
180c0600
300fff00
30080c00
30180c00
30940c00
7fd40c00
61a41800
61861800
01821800
01823000
01833000
01816000
0181e000
0180c000
0181c000
03036000
07063800
7e181f00
1ce00600
00000000
00000000
ENDCHAR
STARTCHAR 224e
ENCODING 8782
SWIDTH 962 0
DWIDTH 26 0
BBX 26 27 0 -1
BITMAP
00000000
10000800
1ffffc00
18001c00
18001800
1ffff800
18001800
18001800
1ffff800
18001800
00e00000
00c00000
00c04000
1fffe000
00c0e000
00c0c000
00c0c000
00c0c000
0180c000
0180c200
0180c200
0300c200
0300c300
0600ff00
18007e00
00000000
00000000
ENDCHAR
STARTCHAR 224f
ENCODING 8783
SWIDTH 962 0
DWIDTH 26 0
BBX 26 27 0 -1
BITMAP
00000000
00700000
00600000
00604000
0fffe000
0060e000
0060c000
0060c000
00c0c000
00c0c200
0180c200
0180c300
0600ff00
08007e00
00000000
08001000
0ffff800
0c003800
0c003000
0c003000
0ffff000
0c003000
0c003000
0c003000
0ffff000
00000000
00000000
ENDCHAR
STARTCHAR 2250
ENCODING 8784
SWIDTH 962 0
DWIDTH 26 0
BBX 26 27 0 -1
BITMAP
00000000
1c000000
18000600
18ffff00
1a018000
ff018000
18018000
18018000
38018000
3c018000
3a018000
7a018000
59018000
59018000
98018000
98018000
18018000
18018000
18018000
18018000
18018000
18018000
18018000
183f8000
18070000
00000000
00000000
ENDCHAR
STARTCHAR 2251
ENCODING 8785
SWIDTH 962 0
DWIDTH 26 0
BBX 26 27 0 -1
BITMAP
00000000
1c1c0000
18180000
18180000
18180000
18182000
1918f000
ff9f7000
19f86000
18186000
38186000
3c186000
3a186000
7b186000
59306000
d8306000
98306000
98306000
18606200
18606200
18406200
18c06300
18806300
19007f00
1a003e00
00000000
00000000
ENDCHAR
STARTCHAR 2252
ENCODING 8786
SWIDTH 962 0
DWIDTH 26 0
BBX 26 27 0 -1
BITMAP
00000000
0e01c000
0c018000
0c018000
0c018000
0c018000
0c818200
ffdfff00
0c018700
0c018600
1c018600
1f018600
1d818600
3cc18600
3cc30600
2c030600
6c030600
4c060600
cc060600
8c060600
8c0c0e00
0c0c0c00
0c181c00
0c31f800
0cc07000
00000000
00000000
ENDCHAR
STARTCHAR 2253
ENCODING 8787
SWIDTH 962 0
DWIDTH 26 0
BBX 26 27 0 -1
BITMAP
00000000
0e000e00
0c000c00
0c000c00
0c070c00
0c060c00
0c060c00
0c060c00
0c860c00
ffc60c00
0c060c00
0c060c00
1c060c00
1e060c00
1d060c00
3d860c00
2cc6fc00
6c9f0c00
4c000c00
4c000c00
8c000c00
0c000c00
0c000c00
0c000c00
0c000c00
00000000
00000000
ENDCHAR
STARTCHAR 2254
ENCODING 8788
SWIDTH 962 0
DWIDTH 26 0
BBX 26 27 0 -1
BITMAP
00000000
0e000000
0c081000
0c0ff800
0c0c3800
0c0c3000
0c8c3000
ffcc3000
0c0c3000
1c0c3000
1c0c3000
1e0c3000
3d0c3000
3c8c3000
2ccc3000
6c4c3000
4c0c3000
4c183000
8c183200
0c183200
0c303200
0c303200
0c603300
0c403f00
0c801e00
00000000
00000000
ENDCHAR
STARTCHAR 2255
ENCODING 8789
SWIDTH 962 0
DWIDTH 26 0
BBX 26 27 0 -1
BITMAP
00000000
001c0000
00180000
00180600
ffffff00
00180000
00180000
10180800
1ffffc00
18181c00
18181800
18181800
18181800
18181800
18381800
1838f800
187c3000
00db0000
01998000
0318c000
06186000
0c183800
30181f00
c0180600
00180000
00000000
00000000
ENDCHAR
STARTCHAR 2256
ENCODING 8790
SWIDTH 962 0
DWIDTH 26 0
BBX 26 27 0 -1
BITMAP
00000000
0e000000
0c0e0000
0c0c0000
0c0c0000
0c0c0000
0d0c0000
ff8c0c00
0c0c1e00
0c0c7000
1c0dc000
1c0f0000
1e3c0000
3d0c0000
2d8c0000
6ccc0000
4ccc0000
4c0c0200
8c0c0200
0c0c0200
0c0c0200
0c0c0300
0c0fff00
0c07fe00
0c000000
00000000
00000000
ENDCHAR
STARTCHAR 2257
ENCODING 8791
SWIDTH 962 0
DWIDTH 26 0
BBX 26 27 0 -1
BITMAP
00000000
0e000000
0c030000
0c010000
0c018000
0c018000
0c818000
ffd88000
0c1cc000
0c18c000
1c184000
1c186000
1f186000
3d982000
2db03000
6c303000
4c301800
4c601c00
8c600c00
0c600e00
0cc00600
0cc00700
0d800300
0d000200
0c000000
00000000
00000000
ENDCHAR
STARTCHAR 2258
ENCODING 8792
SWIDTH 962 0
DWIDTH 26 0
BBX 26 27 0 -1
BITMAP
00000000
0e000000
0c001800
1ffffc00
18000000
30000000
6ffff000
80000000
00000000
fffff800
00003800
039c3000
03183000
03183000
03183000
03183000
03181800
07181900
06181900
06181900
06180d00
0c180d00
0c180700
18180700
20180200
00000000
00000000
ENDCHAR
STARTCHAR 2259
ENCODING 8793
SWIDTH 962 0
DWIDTH 26 0
BBX 26 27 0 -1
BITMAP
00000000
00080000
01fe0000
00740000
00e30000
01c18000
0318e000
06187800
18181f00
e0180600
001c0000
001c0000
001a0800
ff9a1c00
019b3000
01996000
03198000
0318c000
0618c000
0c186000
18183800
30181e00
c0180c00
00f80000
00300000
00000000
00000000
ENDCHAR
STARTCHAR 225a
ENCODING 8794
SWIDTH 962 0
DWIDTH 26 0
BBX 26 27 0 -1
BITMAP
00000000
00000000
20038000
18030000
0c030000
0c030000
00030000
80030400
62030e00
33fffe00
32600000
04600000
04600000
0c600000
08600000
18600000
18600000
30600000
e0600000
60600000
60600000
30600000
307ffc00
303ffc00
30000000
00000000
00000000
ENDCHAR
STARTCHAR 225b
ENCODING 8795
SWIDTH 962 0
DWIDTH 26 0
BBX 26 27 0 -1
BITMAP
00000000
30200400
183ffe00
0c300e00
08300c00
01300c00
01300c00
c1300c00
62300c00
62300c00
063ffc00
04300c00
0c300000
0c300000
18300000
18300000
38300000
f0300000
70300000
30300200
30300200
18300300
18300300
183fff00
181ffe00
00000000
00000000
ENDCHAR
STARTCHAR 225c
ENCODING 8796
SWIDTH 962 0
DWIDTH 26 0
BBX 26 27 0 -1
BITMAP
00000000
00070000
20060000
18060000
0c060000
0c060000
00060000
80060200
62060700
33ffff00
32060000
04060000
040d0000
0c0d0000
080d8000
1818c000
18184000
30306000
e0307000
60601c00
60c01c00
31800f00
33000700
36000300
30000100
00000000
00000000
ENDCHAR
STARTCHAR 225d
ENCODING 8797
SWIDTH 962 0
DWIDTH 26 0
BBX 26 27 0 -1
BITMAP
00000000
00000000
60000000
38000400
183ffe00
00000e00
02020c00
02120c00
02130c00
c4198c00
64191800
0c081800
080c1800
18041800
38043000
30063000
30026000
f0036000
6001c000
60018000
6003c000
30066000
300c3800
30301f00
31c00600
00000000
00000000
ENDCHAR
STARTCHAR 225e
ENCODING 8798
SWIDTH 962 0
DWIDTH 26 0
BBX 26 27 0 -1
BITMAP
00000000
40700000
30600000
18600600
18ffff00
00c00000
00800000
c5800000
65000400
6a3ffe00
08000e00
08000c00
18001800
10003000
30006000
3000c000
30018000
e0030000
60060200
600c0200
30180200
30300300
303fff00
301ffe00
30000000
00000000
00000000
ENDCHAR
STARTCHAR 225f
ENCODING 8799
SWIDTH 962 0
DWIDTH 26 0
BBX 26 27 0 -1
BITMAP
00000000
00180000
301c0000
1c180000
0c300000
00300200
007fff00
c0600700
64c00600
64800600
05000600
080e0600
08070600
18038600
1801c600
3000e600
30000600
f0000600
60000600
60000600
60000c00
30000c00
30001c00
3003f800
30007000
00000000
00000000
ENDCHAR
STARTCHAR 2260
ENCODING 8800
SWIDTH 962 0
DWIDTH 26 0
BBX 26 27 0 -1
BITMAP
00000000
00000000
c0380e00
6031cc00
70318c00
20318c00
00318c00
00318c00
c0318c00
71318c00
39318c00
32318c00
02318c00
04318c00
0c318c00
18318c00
30318c00
30618c00
e0618c00
60618c00
60c18c00
70c00c00
30c00c00
31800c00
32000000
00000000
00000000
ENDCHAR
STARTCHAR 2261
ENCODING 8801
SWIDTH 962 0
DWIDTH 26 0
BBX 26 27 0 -1
BITMAP
00000000
0e000000
0c000200
0c3fff00
0c030700
0c030600
4c030600
4c630600
4c630600
ccc30600
cd830600
8e030600
0c060600
0c060600
0c060600
0c0c0600
0c0c0c00
1b0c0c00
19980c00
19d80c00
10b01800
30301800
20601000
4183f000
8000e000
00000000
00000000
ENDCHAR
STARTCHAR 2262
ENCODING 8802
SWIDTH 962 0
DWIDTH 26 0
BBX 26 27 0 -1
BITMAP
00000000
07000000
0601c000
46018000
66018000
66018000
66418000
7fe18200
460fff00
c6018700
86018600
86018600
06218600
06c18600
07830600
1e030600
f6030600
c6060c00
06060c00
060c0c00
060c0c00
06181800
06203800
0601f800
06006000
00000000
00000000
ENDCHAR
STARTCHAR 2263
ENCODING 8803
SWIDTH 962 0
DWIDTH 26 0
BBX 26 27 0 -1
BITMAP
00000000
01000000
21800c00
133ffe00
0a018000
0e018000
0c018000
1e018000
32018000
42018000
03018600
077fff00
07018000
0f018000
1b018000
13018000
23018000
43018000
03018000
03018000
06018000
06018000
0e018000
7c018000
18018000
00000000
00000000
ENDCHAR
STARTCHAR 2264
ENCODING 8804
SWIDTH 962 0
DWIDTH 26 0
BBX 26 27 0 -1
BITMAP
00000000
43070000
23860000
16060000
0c0c0000
080c0600
1c0fff00
34080000
64180000
84100000
06300800
0e2ffc00
0f003800
1b006000
1300c000
33018000
63030000
43060000
83060000
030c0200
03180200
06180200
0e180300
fc0fff00
3807fe00
00000000
00000000
ENDCHAR
STARTCHAR 2265
ENCODING 8805
SWIDTH 962 0
DWIDTH 26 0
BBX 26 27 0 -1
BITMAP
00000000
00000000
03000600
ffbfff00
1800c000
1800c000
1800c000
1800c000
1800c000
1800c000
1a00c000
ff00c000
1800c000
1800c000
1800c000
1800c000
1800c000
1800c000
1800c000
1f00c000
f800c000
e00fc000
00038000
00000000
00000000
00000000
00000000
ENDCHAR
STARTCHAR 2266
ENCODING 8806
SWIDTH 962 0
DWIDTH 26 0
BBX 26 27 0 -1
BITMAP
00000000
00600000
00f00000
03800000
0e000000
38000400
3ffffe00
30180e00
30180c00
30180c00
30180c00
3ffffc00
30180c00
30180c00
30180c00
30180c00
3ffffc00
30180c00
30180c00
30180c00
30180c00
30180c00
30180c00
3018fc00
30003800
00000000
00000000
ENDCHAR
STARTCHAR 2267
ENCODING 8807
SWIDTH 962 0
DWIDTH 26 0
BBX 26 27 0 -1
BITMAP
00000000
03070000
07060000
06060000
0c060000
50260000
7ff60000
60760000
60660000
60660000
60660000
60660000
7fe60000
60660000
60660000
60660000
60660200
60660200
60660200
7fe60200
60660300
60060300
6007ff00
0003fe00
00000000
00000000
00000000
ENDCHAR
STARTCHAR 2268
ENCODING 8808
SWIDTH 962 0
DWIDTH 26 0
BBX 26 27 0 -1
BITMAP
00000000
001c0000
00180000
20180400
3ffffe00
61860700
e1860c00
c3060000
03060400
0607fc00
0c03f800
18000000
60008000
03ffc000
0001c000
00018000
00030000
00060000
000c0000
00180000
00600800
01800800
03000c00
03fffc00
01fff800
00000000
00000000
ENDCHAR
STARTCHAR 2269
ENCODING 8809
SWIDTH 962 0
DWIDTH 26 0
BBX 26 27 0 -1
BITMAP
00000000
40000400
7ffffe00
60000e00
60810c00
60e1cc00
60e1cc00
60c18c00
60c18c00
6edd8c00
63c78c00
61c38c00
60e1cc00
61b36c00
61a34c00
63060c00
6c180c00
60000c00
60000c00
60000c00
60000c00
60000c00
60000c00
6000fc00
60003800
00000000
00000000
ENDCHAR
STARTCHAR 226a
ENCODING 8810
SWIDTH 962 0
DWIDTH 26 0
BBX 26 27 0 -1
BITMAP
00000000
07007000
06006000
06006000
06006000
66666700
66666600
66666600
66666600
66666600
66666600
66666600
66666600
66666600
66666600
7fe7fe00
66066600
06066000
06006000
0c006000
0c006000
18006000
30006000
60006000
80006000
00000000
00000000
ENDCHAR
STARTCHAR 226b
ENCODING 8811
SWIDTH 962 0
DWIDTH 26 0
BBX 26 27 0 -1
BITMAP
00000000
07007000
06006000
06006600
ffe7ff00
06006000
06006000
06006000
00000000
00000c00
7ffffe00
000c0000
000c0000
000c0000
000c0000
000c0000
000c0000
000c0000
000c0000
000c0000
000c0000
000c0000
000c0000
01fc0000
00380000
00000000
00000000
ENDCHAR
STARTCHAR 226c
ENCODING 8812
SWIDTH 962 0
DWIDTH 26 0
BBX 26 27 0 -1
BITMAP
00000000
07007000
06006000
06006600
ffe7ff00
06006000
06006000
06006000
00000000
00001000
3ffff800
00c03800
00c03000
00c03000
00c03000
01803000
01803000
01803000
03003000
03003000
06003000
06006000
0c00e000
301fc000
00078000
00000000
00000000
ENDCHAR
STARTCHAR 226d
ENCODING 8813
SWIDTH 962 0
DWIDTH 26 0
BBX 26 27 0 -1
BITMAP
00000000
07007000
06006000
06006600
ffe7ff00
06006000
06006000
00380000
00300000
00300000
00302000
1ffff000
00607000
00606000
00606000
00c06000
00c06000
00c06000
01806000
01806200
03006200
03006200
06006300
18007f00
00003e00
00000000
00000000
ENDCHAR
STARTCHAR 226e
ENCODING 8814
SWIDTH 962 0
DWIDTH 26 0
BBX 26 27 0 -1
BITMAP
00000000
07007000
06006000
06006600
ffe7ff00
06006000
06006000
00000000
1fff8000
01838000
01830000
01830000
01830000
0183fe00
01860e00
01860c00
03000c00
03000c00
06000c00
06000c00
0c000c00
0c001800
18003000
2003f000
0000e000
00000000
00000000
ENDCHAR
STARTCHAR 226f
ENCODING 8815
SWIDTH 962 0
DWIDTH 26 0
BBX 26 27 0 -1
BITMAP
00000000
00380000
00300000
00303000
003ff800
00300000
20300200
3fffff00
30000600
30380600
30300400
30306400
303ff000
37f00000
30300000
30300000
303ffe00
301ffc00
30000000
20000000
20000000
60000000
40000000
40000000
80000000
00000000
00000000
ENDCHAR
STARTCHAR 2270
ENCODING 8816
SWIDTH 962 0
DWIDTH 26 0
BBX 26 27 0 -1
BITMAP
00000000
00000600
ffffff00
01830000
01830000
01830000
41830400
7ffffe00
61830e00
61830c00
61830c00
61830c00
61830c00
61830c00
61830c00
61ff0c00
61830c00
61830c00
60000c00
60000c00
60000c00
60000c00
60000c00
60000c00
60000c00
00000000
00000000
ENDCHAR
STARTCHAR 2271
ENCODING 8817
SWIDTH 962 0
DWIDTH 26 0
BBX 26 27 0 -1
BITMAP
00000000
01c08200
0180ff00
0180c700
0180c600
018cc600
fffec600
3000c600
3000cc00
3000cc00
3000d800
3000cc00
3000c600
3000c300
3000c300
3000c300
3000c300
3000c300
3000c300
3000de00
3000cc00
3000c000
3ffcc000
1ff8c000
0000c000
00000000
00000000
ENDCHAR
STARTCHAR 2272
ENCODING 8818
SWIDTH 962 0
DWIDTH 26 0
BBX 26 27 0 -1
BITMAP
00000000
00010400
0031ff00
7ff98600
03018600
03018400
03018c00
03018800
03019000
03018800
03018c00
03198600
fffd8600
03018300
03018300
03018300
03018700
0301fe00
03018c00
03018000
03018000
03018000
03018000
03018000
03018000
00000000
00000000
ENDCHAR
STARTCHAR 2273
ENCODING 8819
SWIDTH 962 0
DWIDTH 26 0
BBX 26 27 0 -1
BITMAP
00000000
00010200
0031ff00
7ff98700
03018600
03018c00
03018800
03019800
0301a000
03199000
fffd9800
03018c00
03018600
03018600
03018300
03018300
03018300
03018700
0301be00
03018c00
03018000
03018000
03018000
3f018000
0e018000
00000000
00000000
ENDCHAR
STARTCHAR 2274
ENCODING 8820
SWIDTH 962 0
DWIDTH 26 0
BBX 26 27 0 -1
BITMAP
00000000
00010200
0001ff00
00318700
3ff98600
03018c00
03018c00
03018800
03018800
03019000
03018800
03018c00
03018c00
03018600
03018600
03018600
03018600
03018600
0319fc00
03e19800
7f018000
3c018000
00018000
00018000
00018000
00000000
00000000
ENDCHAR
STARTCHAR 2275
ENCODING 8821
SWIDTH 962 0
DWIDTH 26 0
BBX 26 27 0 -1
BITMAP
00000000
00000000
00120400
7ffbfe00
003b0e00
00330c00
00330c00
00331800
00331800
00333000
20336000
3ff33000
30331800
30030c00
30030c00
30030600
30030600
30030600
30030600
30130c00
30137c00
30131800
301b0000
3ffb0000
1ff30000
00000000
00000000
ENDCHAR
STARTCHAR 2276
ENCODING 8822
SWIDTH 962 0
DWIDTH 26 0
BBX 26 27 0 -1
BITMAP
00000000
82000000
ff000000
c6000600
c6ffff00
c40c3000
cc0c3000
cc0c3000
c80c3000
d80c3000
d00c3000
c80c3000
cc0c3000
c60c3000
c30c3000
c30c3000
c30c3000
c30c3000
c3183200
df183200
ce303200
c0603300
c0c03f00
c1001e00
c0000000
00000000
00000000
ENDCHAR
STARTCHAR 2277
ENCODING 8823
SWIDTH 962 0
DWIDTH 26 0
BBX 26 27 0 -1
BITMAP
00000000
82038000
ff030000
c7030000
c6730000
cc630000
cc630400
c8633e00
d863ce00
d06f0c00
c8730c00
cde30c00
c6630c00
c6630c00
c6630c00
c6630800
c6630800
de630000
cc630000
c0630200
c0630200
c0600200
c0600300
c07fff00
c03ffe00
00000000
00000000
ENDCHAR
STARTCHAR 2278
ENCODING 8824
SWIDTH 962 0
DWIDTH 26 0
BBX 26 27 0 -1
BITMAP
00000000
82000000
ff002000
c77ff000
c6187000
cc186000
cc186000
d8186000
d0186000
e0186000
d8186000
cc186000
c6ffe000
c6186000
c6186000
c6186000
c6186000
cc186000
fc186200
d8186200
c0186200
c0186300
c0186300
c0187f00
c0003e00
00000000
00000000
ENDCHAR
STARTCHAR 2279
ENCODING 8825
SWIDTH 962 0
DWIDTH 26 0
BBX 26 27 0 -1
BITMAP
00000000
81180000
ff980000
c3b00000
c3300c00
c33ffe00
c6600000
c4400000
cc800000
c8801000
d03ffc00
c8007800
cc00e000
c601c000
c3038000
c3070000
c18e0000
c19c0000
c1b00200
c3b00200
df600200
c6600300
c07fff00
c03ffe00
c0000000
00000000
00000000
ENDCHAR
STARTCHAR 227a
ENCODING 8826
SWIDTH 962 0
DWIDTH 26 0
BBX 26 27 0 -1
BITMAP
00000000
0c000000
0e030e00
0c018c00
0c00cc00
18008c00
18000c00
18000c00
300e1800
300c1800
300c1800
780c3000
584c3400
d84c3200
984c6200
18cc6300
18ccc300
198c8300
198d8100
180f0400
180e0400
180c0400
181c0600
182ffe00
18c7fc00
00000000
00000000
ENDCHAR
STARTCHAR 227b
ENCODING 8827
SWIDTH 962 0
DWIDTH 26 0
BBX 26 27 0 -1
BITMAP
00000000
0c000000
0e000400
0c7ffe00
0c018000
18018000
18218600
18118600
30198c00
30198c00
300d9800
78099000
78018000
d8018300
98ffff00
18018000
18018000
18018000
18018000
18018000
18018000
18018000
18018000
18018000
18018000
00000000
00000000
ENDCHAR
STARTCHAR 227c
ENCODING 8828
SWIDTH 962 0
DWIDTH 26 0
BBX 26 27 0 -1
BITMAP
00000000
06000000
07200c00
063ffe00
0c300000
0c300000
0c300000
18300000
18300400
183ffe00
38300e00
2c300c00
6c300c00
4c300c00
8c300c00
0c300c00
0c3ffc00
0c300c00
0c300000
0c300000
0c300000
0c300000
0c300600
0c3fff00
0c300000
00000000
00000000
ENDCHAR
STARTCHAR 227d
ENCODING 8829
SWIDTH 962 0
DWIDTH 26 0
BBX 26 27 0 -1
BITMAP
00000000
0c038000
0c030000
0c030000
0c030000
18030c00
18fffe00
18030000
30030000
30030000
30030000
78030600
59ffff00
d8070000
98060000
18060000
180c2000
180c1000
18080800
18180c00
18100600
18207e00
1bff8700
19f00300
18000300
00000000
00000000
ENDCHAR
STARTCHAR 227e
ENCODING 8830
SWIDTH 962 0
DWIDTH 26 0
BBX 26 27 0 -1
BITMAP
00000000
07038000
06030000
06030000
0c030000
0c030000
0c030600
19ffff00
18030000
18070000
30078000
300f8000
580f4000
581b6000
981b2000
18333000
18331800
18631c00
18c30f00
19bff700
1a030200
18030000
18030000
18030000
18030000
00000000
00000000
ENDCHAR
STARTCHAR 2321
ENCODING 8993
SWIDTH 962 0
DWIDTH 26 0
BBX 26 27 0 -1
BITMAP
00000000
03001800
03bffc00
030c0000
030c0000
060c0000
060c1000
0c0ff800
0c0c3800
180c3000
100c3000
3c0e3000
2c0d3000
6c0d3000
4c193000
8c193000
0c18b000
0c183000
0c183000
0c183000
0c183000
0c19b200
0c3e3300
0c783f00
0c601e00
00000000
00000000
ENDCHAR
STARTCHAR 2322
ENCODING 8994
SWIDTH 962 0
DWIDTH 26 0
BBX 26 27 0 -1
BITMAP
00000000
0c000000
0e000600
0cffff00
0c00e000
1800c000
1800c000
18018000
30018000
30030000
70072000
58079000
d80d9800
98198c00
18318600
18618600
18c18300
19018200
18018000
18018000
18018000
18018000
18018000
183fff00
183fff00
00000000
00000000
ENDCHAR
STARTCHAR 2323
ENCODING 8995
SWIDTH 962 0
DWIDTH 26 0
BBX 26 27 0 -1
BITMAP
00000000
06070000
06060000
06060000
0c060000
0c061800
0c07fc00
18060000
18060000
18060600
39ffff00
2c078000
6c064000
4c066000
8c063000
0c063800
0c061800
0c061000
0c060000
0c060000
0c060000
0c060000
0c060000
0c060000
0c060000
00000000
00000000
ENDCHAR
STARTCHAR 2324
ENCODING 8996
SWIDTH 962 0
DWIDTH 26 0
BBX 26 27 0 -1
BITMAP
00000000
0c038000
0c030000
0c030000
0c030000
18430800
187ffc00
18631c00
30631800
30631800
30631800
78631800
78631800
d8631a00
9bffff00
98068000
18068000
1806c000
180c4000
180c6000
18182000
18303000
18601c00
18c00f00
1b000200
00000000
00000000
ENDCHAR
STARTCHAR 2325
ENCODING 8997
SWIDTH 962 0
DWIDTH 26 0
BBX 26 27 0 -1
BITMAP
00000000
0e380000
0c300000
0c300c00
0c7ffe00
18601c00
18e01800
19a03000
36103000
30186000
300cc000
78078000
581c7000
d8701f00
9b800600
18060000
18038000
1801c000
18004000
18780000
180f0000
1801c000
1800f000
18003800
18001800
00000000
00000000
ENDCHAR
STARTCHAR 2326
ENCODING 8998
SWIDTH 962 0
DWIDTH 26 0
BBX 26 27 0 -1
BITMAP
00000000
0c038000
0e030000
0c030000
0c030000
18060000
18062000
18041800
300c0c00
30083e00
30ffe700
787c0600
78000000
d8000000
98200400
983ffe00
18300e00
18300c00
18300c00
18300c00
18300c00
18300c00
18300c00
183ffc00
18300c00
00000000
00000000
ENDCHAR
STARTCHAR 2327
ENCODING 8999
SWIDTH 962 0
DWIDTH 26 0
BBX 26 27 0 -1
BITMAP
00000000
001c0000
003c0000
00320000
00610000
00c18000
0180c000
03007000
06009f00
0fffc600
30000000
c0000000
00000000
00000c00
7ffffe00
00180000
00180000
07186000
06183000
0c181800
18180c00
30180e00
c0180600
03f80000
00700000
00000000
00000000
ENDCHAR
STARTCHAR 2328
ENCODING 9000
SWIDTH 962 0
DWIDTH 26 0
BBX 26 27 0 -1
BITMAP
00000000
0301c000
03818000
03018600
037fff00
06030000
0e030000
0c060000
18041800
186c1800
30383000
3c183000
6c0c6000
4c0e6000
8c04c000
0c00c000
0c018000
0c010000
0c031800
0c020c00
0c040600
0c081e00
0c7fe700
0c7e0300
0c200300
00000000
00000000
ENDCHAR
STARTCHAR 2329
ENCODING 9001
SWIDTH 962 0
DWIDTH 26 0
BBX 26 27 0 -1
BITMAP
00000000
07000000
06700000
06639c00
06631800
06631800
0c631800
0c631800
19ffff00
10631800
30631800
38631800
78631800
d8631800
18631800
18631800
18631800
1863f800
18631800
18600000
18600000
18600200
187fff00
18600000
18600000
00000000
00000000
ENDCHAR
STARTCHAR 232a
ENCODING 9002
SWIDTH 962 0
DWIDTH 26 0
BBX 26 27 0 -1
BITMAP
00000000
03000000
03800000
03100400
031ffe00
06180e00
06180c00
0e180c00
08180c00
18180c00
1c180c00
3c180c00
6c180c00
4c180c00
8c1ffc00
0c180c00
0c000000
0c062000
0c071800
0c0e0c00
0c0c0c00
0c180600
0c300600
0c600300
0d800300
00000000
00000000
ENDCHAR
STARTCHAR 232b
ENCODING 9003
SWIDTH 962 0
DWIDTH 26 0
BBX 26 27 0 -1
BITMAP
00000000
07038000
06030000
06064000
060c6000
0c183000
0c301800
0c600c00
18c38700
19030200
38030000
2c030000
6c030000
4c731c00
8c631800
0c631800
0c631800
0c631800
0c631800
0c631800
0c631800
0c631800
0c7ff800
0c601800
0c601800
00000000
00000000
ENDCHAR
STARTCHAR 232c
ENCODING 9004
SWIDTH 962 0
DWIDTH 26 0
BBX 26 27 0 -1
BITMAP
00000000
40000200
7fffff00
60c60700
60c60600
60c60600
60c60600
60c62600
61862600
61863600
6307f600
6603e600
68000600
61008600
61ffc600
6181c600
61818600
61818600
61818600
61818600
61ff8600
61800600
60000600
6000fe00
60001c00
00000000
00000000
ENDCHAR
STARTCHAR 232d
ENCODING 9005
SWIDTH 962 0
DWIDTH 26 0
BBX 26 27 0 -1
BITMAP
00000000
000e0000
000c8000
800c6000
600c3000
300c3000
300c0000
020c0600
02ffff00
060c0000
040c0000
0c0c1c00
0c1c1800
181a1800
181a3000
303a3000
f0333000
60316000
6061e000
6060c000
30c1c000
31836000
33063000
360c1f00
08700e00
00000000
00000000
ENDCHAR
STARTCHAR 232e
ENCODING 9006
SWIDTH 962 0
DWIDTH 26 0
BBX 26 27 0 -1
BITMAP
00000000
0ee00700
0cc00600
0cc40600
7ffe0600
0ccee600
0cccc600
0cccc600
0cccc600
fffcc600
ccc0c600
ccc0c600
ccc0c600
ccc2c600
fffec600
8cc6c600
0cc6c600
18c6c600
18c6c600
18cc0600
30fc0600
30c80600
60c00600
80c0fe00
00c03c00
00000000
00000000
ENDCHAR
STARTCHAR 232f
ENCODING 9007
SWIDTH 962 0
DWIDTH 26 0
BBX 26 27 0 -1
BITMAP
00000000
00000700
10100600
1ff80600
1838e600
1830c600
1830c600
1830c600
1830c600
1830c600
1ff0c600
1830c600
1830c600
1830c600
1830c600
1830c600
1ff0c600
1830c600
1830c600
18300600
18300600
18300600
18340600
fffe7e00
00001c00
00000000
00000000
ENDCHAR
STARTCHAR 2330
ENCODING 9008
SWIDTH 962 0
DWIDTH 26 0
BBX 26 27 0 -1
BITMAP
00000000
00000000
40040300
7ffe0300
600e0300
600c7300
600c6300
600c6300
7ffc6300
60cc6300
60c06300
60c06300
60c66300
7fff6300
60c06300
60c06300
60606300
60606300
60626300
60326300
60326300
61da0300
7e0f0300
f8070f00
c0020600
00000000
00000000
ENDCHAR
STARTCHAR 2331
ENCODING 9009
SWIDTH 962 0
DWIDTH 26 0
BBX 26 27 0 -1
BITMAP
00000000
0010e000
fff8c000
0c38c000
0c30c200
0c37ff00
0c30c700
1830c600
1830c600
3030c600
6030c600
83e0c600
00c0c600
0020c600
3ff0c600
30718600
30618600
30618600
30630600
30630600
30660600
30660600
3fec0e00
3018fc00
30603800
00000000
00000000
ENDCHAR
STARTCHAR 2332
ENCODING 9010
SWIDTH 962 0
DWIDTH 26 0
BBX 26 27 0 -1
BITMAP
00000000
0380e000
0300c000
3300c000
3300c000
3320c000
7ff0c200
6307ff00
4300c700
4300c600
8300c600
8300c600
0308c600
fffcc600
0300c600
0680c600
0680c600
06c18600
0c618600
0c618600
18330600
30330c00
601a1c00
c01cfc00
00083800
00000000
00000000
ENDCHAR
STARTCHAR 2333
ENCODING 9011
SWIDTH 962 0
DWIDTH 26 0
BBX 26 27 0 -1
BITMAP
00000000
03800000
03000000
03000000
06000200
07ffff00
0c000700
0c000600
1c018600
19ffc600
30180600
61188600
81998600
00db0600
005c0600
00186600
0ffff600
00180600
00180600
00180c00
00180c00
00180c00
00181c00
001bf800
00187000
00000000
00000000
ENDCHAR
STARTCHAR 2334
ENCODING 9012
SWIDTH 962 0
DWIDTH 26 0
BBX 26 27 0 -1
BITMAP
00000000
00380000
00300000
00306000
003ff000
00300000
00300000
20300400
3ffffe00
30000e00
30000c00
30000c00
30008c00
3fffcc00
3001cc00
30018c00
30018c00
30018c00
3fff8c00
30018c00
30000c00
30000c00
30000c00
3ffffc00
30000c00
00000000
00000000
ENDCHAR
STARTCHAR 2335
ENCODING 9013
SWIDTH 962 0
DWIDTH 26 0
BBX 26 27 0 -1
BITMAP
00000000
00100000
7ff90200
0c39ff00
0c318700
0c318600
0c318600
18318600
18318600
30318600
60718600
87e18600
01c18600
00018600
40218600
7ff18600
6071be00
60618c00
60618000
60618000
60618000
60618000
60618000
7fe18000
60618000
00000000
00000000
ENDCHAR
STARTCHAR 2336
ENCODING 9014
SWIDTH 962 0
DWIDTH 26 0
BBX 26 27 0 -1
BITMAP
00000000
00000000
00000000
20000600
3fffff00
30000000
30006000
3207f000
33fe0000
33060000
33060000
33060000
33060c00
33fffe00
33030000
33030000
33030000
23018000
230d8000
63f0c200
4f80e200
46007200
80033b00
87ff9f00
00000e00
00000000
00000000
ENDCHAR
STARTCHAR 2337
ENCODING 9015
SWIDTH 962 0
DWIDTH 26 0
BBX 26 27 0 -1
BITMAP
00000000
00000400
20000e00
3fffff00
30000000
30e00000
30c00000
30c00000
31800c00
31fffe00
318c0000
330c0000
360c0000
380c1800
300ffc00
300c0000
300c0000
300c0000
300c1800
600ffc00
600c0000
600c0000
400c0000
400c0000
800c0000
00000000
00000000
ENDCHAR
STARTCHAR 2338
ENCODING 9016
SWIDTH 962 0
DWIDTH 26 0
BBX 26 27 0 -1
BITMAP
00000000
00070000
00060000
00060000
00060000
00060000
fe060000
c6060000
c6060600
c7ffff00
c6060000
c60c0000
c60c0000
c60ce000
c618c000
c6198000
c6318000
c6312000
fe631000
00621800
00c60c00
0184fc00
031f0e00
041c0600
00000000
00000000
00000000
ENDCHAR
STARTCHAR 2339
ENCODING 9017
SWIDTH 962 0
DWIDTH 26 0
BBX 26 27 0 -1
BITMAP
00000000
00038000
00030000
00030000
41030000
7f830800
63bffc00
63031c00
63031800
63031800
63031800
63031800
63031800
63031a00
63ffff00
63068000
63068000
630c8000
630cc000
7f184000
63186000
60303000
00603800
00c01e00
01000400
00000000
00000000
ENDCHAR
STARTCHAR 233a
ENCODING 9018
SWIDTH 962 0
DWIDTH 26 0
BBX 26 27 0 -1
BITMAP
00000000
0006e000
0006c000
8406c000
ff0cc000
c70cc000
c60cc000
c618c000
c618c000
c630c000
c670c600
c698ff00
c618c000
c618c000
c618c000
c618c000
c618c000
c618c000
c618c000
c618c200
fe18c200
c618c200
c018c300
0018ff00
00187e00
00000000
00000000
ENDCHAR
STARTCHAR 233b
ENCODING 9019
SWIDTH 962 0
DWIDTH 26 0
BBX 26 27 0 -1
BITMAP
00000000
00070000
00060000
00060000
00060000
00060000
00060000
00060000
fe060600
c6ffff00
c6060000
c6060000
c60d0000
c60d0000
c60d0000
c60c8000
c6188000
fe18c000
c0304000
c0366000
00633000
00619c00
00c18e00
01800700
02000300
00000000
00000000
ENDCHAR
STARTCHAR 233c
ENCODING 9020
SWIDTH 962 0
DWIDTH 26 0
BBX 26 27 0 -1
BITMAP
00000000
0001c000
00018000
00018000
00018000
41018600
7fbfff00
63881800
63081800
63081800
63081800
63081800
63043000
63043000
63063000
63022000
63026000
63034000
6301c000
7f018000
6303c000
60066000
600c3800
00301f00
01c00600
00000000
00000000
ENDCHAR
STARTCHAR 233d
ENCODING 9021
SWIDTH 962 0
DWIDTH 26 0
BBX 26 27 0 -1
BITMAP
00000000
00038000
00030000
82030000
ff030000
c7030000
c6030c00
c6230e00
c6230c00
c6231800
c6633000
c666a000
c6c6c000
c6c64000
c6064000
c6066000
c60c2000
c60c3000
c60c3000
c6181800
fe181800
c6300c00
c0600e00
00c00700
01000200
00000000
00000000
ENDCHAR
STARTCHAR 233e
ENCODING 9022
SWIDTH 962 0
DWIDTH 26 0
BBX 26 27 0 -1
BITMAP
00000000
00000800
00fffc00
000c1c00
820c1800
ff0c1800
c70c1800
c60c1800
c60c1800
c60c1800
c60c1800
c60c1a00
c7ffff00
c6181800
c6181800
c6181800
c6181800
c6181800
c6183000
fe183000
c6183000
c0183000
c0183600
03ffff00
00000000
00000000
00000000
ENDCHAR
STARTCHAR 233f
ENCODING 9023
SWIDTH 962 0
DWIDTH 26 0
BBX 26 27 0 -1
BITMAP
00000000
00000000
00000600
00ffff00
8200e000
ff00c000
c700c000
c6018000
c6018000
c6030000
c6072000
c6079000
c60d9800
c6198c00
c6318600
c6618600
c6c18300
c7018200
c6018000
fe018000
c6018000
c0018000
c0018000
00018000
00018000
00000000
00000000
ENDCHAR
STARTCHAR 2340
ENCODING 9024
SWIDTH 962 0
DWIDTH 26 0
BBX 26 27 0 -1
BITMAP
00000000
000e0000
000c0000
410c0000
7f8c0000
63980800
631ffc00
6318c000
6310c000
6330c000
6320c000
6340c000
6300c000
6300cc00
637ffe00
6300c000
6300c000
6300c000
6300c000
7f00c000
6300c000
6000c000
6000c000
0000c000
0000c000
00000000
00000000
ENDCHAR
STARTCHAR 2341
ENCODING 9025
SWIDTH 962 0
DWIDTH 26 0
BBX 26 27 0 -1
BITMAP
00000000
0001c000
00018000
82018000
ff318000
c7398000
c6318000
c6618c00
c67ffe00
c6618000
c6c18000
c6818000
c6818000
c6018000
c6018000
c6018600
c6ffff00
c6018000
fe018000
c6018000
c0018000
c0018000
00018000
00018000
00018000
00000000
00000000
ENDCHAR
STARTCHAR 2342
ENCODING 9026
SWIDTH 962 0
DWIDTH 26 0
BBX 26 27 0 -1
BITMAP
00000000
0001b800
0007b000
001c3000
42fc3000
7f0c3000
670c3000
660c3000
660c3000
660c3000
660c3000
660c3200
667fff00
660c3000
660c3000
660c3000
660c3000
66183000
66183000
7e183000
66303000
60303000
60603000
00c03000
03003000
00000000
00000000
ENDCHAR
STARTCHAR 2343
ENCODING 9027
SWIDTH 962 0
DWIDTH 26 0
BBX 26 27 0 -1
BITMAP
00000000
00070000
00060000
00060000
410c0000
7f880200
639fff00
63100700
63200600
63400600
63004600
630fe600
63000600
63000600
63000600
63000600
63004600
631fe600
63000600
7f000600
63000e00
60000c00
60001c00
0003f800
0000f000
00000000
00000000
ENDCHAR
STARTCHAR 2344
ENCODING 9028
SWIDTH 962 0
DWIDTH 26 0
BBX 26 27 0 -1
BITMAP
00000000
0001c000
00018000
82018000
ff018e00
c77fff00
c6018000
c6018000
c6018000
c6718700
c6618600
c6618600
c6618600
c6618600
c6618600
c6618600
c67ffe00
c6618600
c6018000
c6018000
fe018200
c6018200
c0018300
00018300
0000fe00
00000000
00000000
ENDCHAR
STARTCHAR 2345
ENCODING 9029
SWIDTH 962 0
DWIDTH 26 0
BBX 26 27 0 -1
BITMAP
00000000
00038000
00030000
00068000
82064000
ff0c6000
c70c2000
c6183000
c6181800
c6300c00
c6600700
c6ce3a00
c70c3000
c60c3000
c60c3000
c60c3000
c60c3000
c60c3000
c60c3000
fe0c3000
c6183000
c0183000
c0303000
00603000
00803000
00000000
00000000
ENDCHAR
STARTCHAR 2346
ENCODING 9030
SWIDTH 962 0
DWIDTH 26 0
BBX 26 27 0 -1
BITMAP
00000000
001c0000
00181000
00983800
7f9c3000
019c6000
019ac000
031b0000
03190000
06198000
0618c000
0c187000
18f83c00
30300f00
c4002200
07fff000
06007000
06006000
06006000
06006000
06006000
06006000
06006000
07ffe000
04002000
00000000
00000000
ENDCHAR
STARTCHAR 2347
ENCODING 9031
SWIDTH 962 0
DWIDTH 26 0
BBX 26 27 0 -1
BITMAP
00000000
40000200
7fffff00
60000700
61ce0600
618c0600
618c0600
630c0600
630c0600
630c0600
670c6600
670ff600
6f0c0600
6b0c0600
730c0600
630c2600
630c2600
630c3600
630ff600
6307e600
60000600
60000600
7ffffe00
60000600
60000600
00000000
00000000
ENDCHAR
STARTCHAR 2348
ENCODING 9032
SWIDTH 962 0
DWIDTH 26 0
BBX 26 27 0 -1
BITMAP
00000000
00000000
20000400
3ffffe00
30430e00
30430c00
30430c00
30830c00
30830c00
30830c00
3703fc00
30000c00
30000c00
30000c00
33ffcc00
3300cc00
3300cc00
3300cc00
3300cc00
3300cc00
3300cc00
3300cc00
3ffffc00
30000c00
30000c00
00000000
00000000
ENDCHAR
STARTCHAR 2349
ENCODING 9033
SWIDTH 962 0
DWIDTH 26 0
BBX 26 27 0 -1
BITMAP
00000000
40000100
7fffff00
600e0300
600c0300
600c3300
63fffb00
60000300
60000300
60808300
60ffc300
60c1c300
60c18300
60c18300
60c18300
60c18300
60c19300
61819300
61819300
63019300
66019b00
6c01fb00
7000f300
7fffff00
60000300
00000000
00000000
ENDCHAR
STARTCHAR 234a
ENCODING 9034
SWIDTH 962 0
DWIDTH 26 0
BBX 26 27 0 -1
BITMAP
00000000
0e000c00
0c103e00
0c1fe000
0c186000
0c186000
0c186000
0c986000
ffd86000
0c186000
0c186c00
0c1ffe00
0c186000
0c186000
0c186000
0c186000
0c186000
0c186000
0cd83200
0f183200
7c183a00
f018da00
001f1f00
00fc0f00
00700600
00000000
00000000
ENDCHAR
STARTCHAR 234b
ENCODING 9035
SWIDTH 962 0
DWIDTH 26 0
BBX 26 27 0 -1
BITMAP
00000000
1c01c000
18018000
18018000
18034000
18034000
18062000
19063000
ff8c1000
18081800
181bfe00
18300700
18400200
18000800
181ffc00
18001c00
18001800
18001800
19803000
3e003000
f8003000
c0006000
00006000
0000c000
0000c000
00000000
00000000
ENDCHAR
STARTCHAR 234c
ENCODING 9036
SWIDTH 962 0
DWIDTH 26 0
BBX 26 27 0 -1
BITMAP
00000000
03860000
02030000
06018000
0c00c000
18007000
30001c00
6fffef00
80606600
00606000
00c06000
00c06000
0180e000
031fc000
0c038000
001c0000
00180000
00183000
1ffff800
00180000
00180000
00180000
00180000
00180600
ffffff00
00000000
00000000
ENDCHAR
STARTCHAR 234d
ENCODING 9037
SWIDTH 962 0
DWIDTH 26 0
BBX 26 27 0 -1
BITMAP
00000000
1c038000
18030000
18031800
187ffc00
18030000
18030000
1a030000
ff731c00
18631800
18631800
18631800
18631800
18631800
18631800
18631800
1b7ff800
1e631800
f8630000
e0030000
40030200
00030200
00030300
0003ff00
0001fe00
00000000
00000000
ENDCHAR
STARTCHAR 234e
ENCODING 9038
SWIDTH 962 0
DWIDTH 26 0
BBX 26 27 0 -1
BITMAP
00000000
0e000000
0c000000
0c00c000
0c0c6000
0c0c3000
0c181800
0c180c00
0d100e00
7fb00700
0c200200
0c6ffe00
0c430e00
0c830c00
0c030c00
0c030c00
0c060c00
0cc60c00
0f060c00
fc0c0c00
f00c0c00
40180c00
00301800
0063f800
00807000
00000000
00000000
ENDCHAR
STARTCHAR 234f
ENCODING 9039
SWIDTH 962 0
DWIDTH 26 0
BBX 26 27 0 -1
BITMAP
00000000
38070000
30060000
30060400
30360e00
31c63800
3e07c200
30060200
30060200
30060300
30f60300
3f07ff00
1803fe00
001c0000
00180000
00180000
00181800
1ffffc00
00180000
00180000
00180000
00180000
00180600
ffffff00
00000000
00000000
00000000
ENDCHAR
STARTCHAR 2350
ENCODING 9040
SWIDTH 962 0
DWIDTH 26 0
BBX 26 27 0 -1
BITMAP
00000000
07000000
06006000
07fff000
0e00e000
0d818000
18630000
303e0000
c0738000
01c0e000
0f003800
f01c0f00
00180600
00182000
0ffff000
00180000
00181000
1ffff800
00180000
00180c00
7ffffe00
00180000
00180000
00180000
00180000
00000000
00000000
ENDCHAR
STARTCHAR 2351
ENCODING 9041
SWIDTH 962 0
DWIDTH 26 0
BBX 26 27 0 -1
BITMAP
00000000
00000c00
7ffffe00
00070000
000c0000
00180000
00300000
00780000
00d98000
01986000
03181800
0c180c00
70180700
00000200
001c0000
00180600
ffffff00
00180000
00340000
00660000
01c38000
0700e000
1c003800
e0000f00
00000600
00000000
00000000
ENDCHAR
STARTCHAR 2352
ENCODING 9042
SWIDTH 962 0
DWIDTH 26 0
BBX 26 27 0 -1
BITMAP
00000000
1c01c000
18018000
18018600
18019f00
1881f800
ffdf8000
31818000
31818000
31818000
61818c00
61bffe00
63018000
63018000
e3018000
db018600
0e7fff00
06018000
0f018000
0d818000
18c18000
30818000
40018000
80018000
00018000
00000000
00000000
ENDCHAR
STARTCHAR 2353
ENCODING 9043
SWIDTH 962 0
DWIDTH 26 0
BBX 26 27 0 -1
BITMAP
00000000
0e000000
0c000000
0c000000
0c001800
0c8ffc00
ffc00000
19c00000
19800000
19800600
19bfff00
31818000
31818000
31818000
31830000
63030000
73060000
6e060800
070c0400
0d8c0600
0cd87f00
18bfc300
30180300
60000000
80000000
00000000
00000000
ENDCHAR
STARTCHAR 2354
ENCODING 9044
SWIDTH 962 0
DWIDTH 26 0
BBX 26 27 0 -1
BITMAP
00000000
3801c000
30018000
30018000
30018000
31218200
ffbfff00
63318700
63318600
63318600
63334600
63334600
63332600
c6323600
c6363600
c6343600
f6380600
cc300600
0e300600
1a300600
13300600
31300600
20300600
40307e00
80301c00
00000000
00000000
ENDCHAR
STARTCHAR 2355
ENCODING 9045
SWIDTH 962 0
DWIDTH 26 0
BBX 26 27 0 -1
BITMAP
00000000
38038000
30030000
30068000
30064000
310c6000
ff8c3000
63181c00
63300f00
63402600
630ff000
63000000
63000000
c6000400
c61ffe00
c6000c00
f6000c00
cc001800
0e001800
1a001800
13003000
31003000
20003000
40006000
80006000
00000000
00000000
ENDCHAR
STARTCHAR 2356
ENCODING 9046
SWIDTH 962 0
DWIDTH 26 0
BBX 26 27 0 -1
BITMAP
00000000
0e01c000
0c018000
0c01a000
0c033000
0c833000
ffc61800
19cc0c00
19980600
19a33700
19833200
31833000
31833000
31833000
31833000
63033000
73033000
6e033000
07063000
0d863000
0cc63000
18cc3000
30183000
60203000
80003000
00000000
00000000
ENDCHAR
STARTCHAR 2357
ENCODING 9047
SWIDTH 962 0
DWIDTH 26 0
BBX 26 27 0 -1
BITMAP
00000000
1c018000
18008000
1804c000
18064000
18046000
180c3000
19181800
ff980e00
33300700
33200000
33400400
631ffe00
63060e00
66060c00
c6060c00
e60c0c00
1c0c0c00
1c0c0c00
14180c00
36180c00
63300c00
c2601800
8083f800
00007000
00000000
00000000
ENDCHAR
STARTCHAR 2358
ENCODING 9048
SWIDTH 962 0
DWIDTH 26 0
BBX 26 27 0 -1
BITMAP
00000000
0e002000
0c062000
0c072000
0c062000
0c863000
ffcc1000
19cc1000
198c1800
19980c00
19980e00
31b18700
31a18200
31838000
31830000
63030000
73061000
6e060800
070c0c00
0d0c0600
0d980600
18903f00
307fe300
60380300
80000000
00000000
00000000
ENDCHAR
STARTCHAR 2359
ENCODING 9049
SWIDTH 962 0
DWIDTH 26 0
BBX 26 27 0 -1
BITMAP
00000000
1c01c000
18018000
18018000
18018000
18018600
18bfff00
ffc81800
31881800
31881800
31881800
31881800
31843000
31843000
63046000
63066000
6302c000
7b03c000
66018000
0703c000
0d066000
098c3800
18981f00
10300600
20c00000
00000000
00000000
ENDCHAR
STARTCHAR 235a
ENCODING 9050
SWIDTH 962 0
DWIDTH 26 0
BBX 26 27 0 -1
BITMAP
00000000
0e000000
0c000000
0c000000
0c001000
0c8ff800
ffc00000
19c00000
19800000
19800000
19800600
31bfff00
31866000
31866000
31866000
63066000
73066000
6e066000
070c6000
0d8c6200
0ccc6200
18d86200
30186300
60307f00
80403e00
00000000
00000000
ENDCHAR
STARTCHAR 235b
ENCODING 9051
SWIDTH 962 0
DWIDTH 26 0
BBX 26 27 0 -1
BITMAP
00000000
0e038000
0c030000
0c030000
0c060000
0c860000
ffcc0000
19c80600
198fff00
198c3000
198c3000
318c3000
318c3000
318c3000
318c3000
630c3000
730c3000
6e0c3000
07183000
0d983000
0cd83000
18d83000
30303000
60303000
80403000
00000000
00000000
ENDCHAR
STARTCHAR 235c
ENCODING 9052
SWIDTH 962 0
DWIDTH 26 0
BBX 26 27 0 -1
BITMAP
00000000
001c0000
00180000
20180200
3fffff00
60000700
c0038600
c00fcc00
00f80000
1fb00000
00300000
00300000
00300c00
7ffffe00
00600000
00640000
00660000
00c60000
00c30000
01830000
01818000
0301c000
0600e000
0c007800
30003000
00000000
00000000
ENDCHAR
STARTCHAR 235d
ENCODING 9053
SWIDTH 962 0
DWIDTH 26 0
BBX 26 27 0 -1
BITMAP
00000000
001c0000
00180000
20180200
3fffff00
60000300
e0000600
c0019800
0007c000
001e0000
00f80000
1f300000
00300000
00303000
3ffff800
00300000
00300000
00301800
7ffffc00
00300000
00300000
00300200
00300300
003fff00
001ffe00
00000000
00000000
ENDCHAR
STARTCHAR 235e
ENCODING 9054
SWIDTH 962 0
DWIDTH 26 0
BBX 26 27 0 -1
BITMAP
00000000
07000000
06701800
06181c00
061c3000
060c6000
fffec000
06038600
061c0e00
06c01800
06c03000
06c06000
0cc0c000
0cc38000
0cdc0600
0cc00e00
18c03800
18c0e000
18c38000
30dc0200
30c00200
60c00200
40c00300
c0ffff00
807ffe00
00000000
00000000
ENDCHAR
STARTCHAR 235f
ENCODING 9055
SWIDTH 962 0
DWIDTH 26 0
BBX 26 27 0 -1
BITMAP
00000000
07000000
06000c00
0607fe00
06006000
06106000
fff86000
06006000
06006000
06006400
06c3fe00
06c06000
0cc06000
0cc06000
0cc06000
0cc06000
18c06000
18c06000
18c06c00
10c7fe00
30c00000
20c00200
60c00300
40ffff00
807ffe00
00000000
00000000
ENDCHAR
STARTCHAR 2360
ENCODING 9056
SWIDTH 962 0
DWIDTH 26 0
BBX 26 27 0 -1
BITMAP
00000000
0e000000
0c000200
0c0fff00
0c031800
0c031800
0c031800
ece31800
ccc31800
ccc31800
ccc31a00
ccdfff00
ccc31800
ccc31800
ccc31800
ccc31800
ccc31800
ccc31800
ccc31800
ffc61800
c0c41800
c00c1800
00081800
00101800
00001800
00000000
00000000
ENDCHAR
STARTCHAR 2361
ENCODING 9057
SWIDTH 962 0
DWIDTH 26 0
BBX 26 27 0 -1
BITMAP
00000000
0e000000
0c000400
0c0ffe00
0c000000
0c000000
ece00000
ccc00000
ccc00000
ccc00200
ccdfff00
ccc33000
ccc33000
ccc33000
ccc33000
ccc33000
ccc63000
ccc63000
ccc63000
ffcc3200
c0cc3200
c0183300
00303300
00603f00
00801e00
00000000
00000000
ENDCHAR
STARTCHAR 2362
ENCODING 9058
SWIDTH 962 0
DWIDTH 26 0
BBX 26 27 0 -1
BITMAP
00000000
0e000200
0c07ff00
0c031800
0c031800
0c031800
ece31800
ccc31800
ccc61800
ccc61a00
ccc7ff00
ccc03800
ccc07800
ccc07800
ccc0d800
ccc09800
ccc19800
ccc31800
ffc61800
c0d81800
c0001800
00001800
00001800
0001f800
00007000
00000000
00000000
ENDCHAR
STARTCHAR 2363
ENCODING 9059
SWIDTH 962 0
DWIDTH 26 0
BBX 26 27 0 -1
BITMAP
00000000
0e000800
0c1ffc00
0c031c00
0c031800
ece31800
ccc31800
ccc33000
ccc33100
ccc33f00
ccc33300
ccc30300
ccc28300
ccc68300
ccc68600
ccc6c600
cccc4c00
cccc6c00
cccc3800
ffd83000
c0d87800
c030cc00
00618600
00870700
000c0200
00000000
00000000
ENDCHAR
STARTCHAR 2364
ENCODING 9060
SWIDTH 962 0
DWIDTH 26 0
BBX 26 27 0 -1
BITMAP
00000000
000c0000
0e0e0000
0c0c0000
0c0c0000
ecd80100
ccdfff00
ccdb3300
ccd33300
ccc33300
ccc63300
ccc63300
ccc63300
cccc6300
cccc6300
ccd86300
ccd0c300
ccc0c300
ccc18300
ffc30300
c0c60600
c00c0600
00180e00
0060fc00
00803800
00000000
00000000
ENDCHAR
STARTCHAR 2365
ENCODING 9061
SWIDTH 962 0
DWIDTH 26 0
BBX 26 27 0 -1
BITMAP
00000000
0e01c000
0c018000
0c038000
0c03c000
0c066000
ece43000
cccc1800
ccd80e00
ccd00700
cce7f200
ccc00000
ccc00000
ccc00800
cccffc00
ccc00c00
ccc00800
ccc01800
ffc01800
c0c01000
c0003000
00002000
00006000
0000c000
00010000
00000000
00000000
ENDCHAR
STARTCHAR 2366
ENCODING 9062
SWIDTH 962 0
DWIDTH 26 0
BBX 26 27 0 -1
BITMAP
00000000
20001000
3ffff800
30303800
30303000
30303000
30303000
3ffff000
30003000
30000000
30000000
30000400
30000600
3ffffe00
1ffffc00
001c0000
00180000
00180000
70180700
60180600
60180600
60180600
60180600
7ffffe00
60000600
00000000
00000000
ENDCHAR
STARTCHAR 2367
ENCODING 9063
SWIDTH 962 0
DWIDTH 26 0
BBX 26 27 0 -1
BITMAP
00000000
00000000
0e001c00
0c00fe00
0c03e000
0c3d8000
0c018000
0c018000
0c018000
0c018000
ccc18600
ccffff00
ccc18000
ccc18000
ccc38000
ccc38000
ccc64000
ccc64000
cccc6000
ffc82000
c0d83000
00301800
00601c00
00c00f00
01000200
00000000
00000000
ENDCHAR
STARTCHAR 2368
ENCODING 9064
SWIDTH 962 0
DWIDTH 26 0
BBX 26 27 0 -1
BITMAP
00000000
0e000600
0c043f00
0c07e000
0c060000
0c060000
0c060000
cc860000
cc860600
cc87ff00
cc861800
cc861800
cc861800
cc861800
cc861800
cc8c1800
cc8c1800
cc8c1800
cc981800
cc981800
ffb01800
c0b01800
00601800
00801800
00001800
00000000
00000000
ENDCHAR
STARTCHAR 2369
ENCODING 9065
SWIDTH 962 0
DWIDTH 26 0
BBX 26 27 0 -1
BITMAP
00000000
001c0000
1c181c00
18181800
18181800
18181800
1ffff800
00380000
00380000
00740000
00e20000
01830000
03018000
0600c000
0c007000
30c33c00
c0c31f00
00c30600
00c30000
00c30000
01830000
01830000
03030000
03030000
04030000
00000000
00000000
ENDCHAR
STARTCHAR 236a
ENCODING 9066
SWIDTH 962 0
DWIDTH 26 0
BBX 26 27 0 -1
BITMAP
00000000
00001800
3ffffc00
00000000
03186000
0318e000
0638c000
06318000
0c630000
18c60000
0c630000
06318000
0738c000
039ce000
018c7000
018c3000
00000000
1ffff800
00180000
00180000
00180000
00180000
00180000
00180600
ffffff00
00000000
00000000
ENDCHAR
STARTCHAR 236b
ENCODING 9067
SWIDTH 962 0
DWIDTH 26 0
BBX 26 27 0 -1
BITMAP
00000000
0c000000
0c100200
0c1fff00
0c18c700
cc58c600
ffd8c600
ccd8c600
ccd8c600
ccd8c600
ccd8c600
ccd8c600
ccdffe00
ccd80600
ccd80000
ccd80000
ccd80000
ccd80000
ccd80200
cfd80200
cd980200
0c180300
0c180300
0c1fff00
0c0ffe00
00000000
00000000
ENDCHAR
STARTCHAR 236c
ENCODING 9068
SWIDTH 962 0
DWIDTH 26 0
BBX 26 27 0 -1
BITMAP
00000000
0e00e000
0c00c000
0c00c000
0c08c000
0c08c200
8c4fff00
ffd8c300
ccd8c600
ccd8cc00
ccc18000
ccc18000
ccc1e000
ccc1e000
ccc16000
ccc36000
ccc36000
ccc36000
ccc36200
cfc26200
cd866200
0c046200
0c0c6300
0c187f00
0c203e00
00000000
00000000
ENDCHAR
STARTCHAR 236d
ENCODING 9069
SWIDTH 962 0
DWIDTH 26 0
BBX 26 27 0 -1
BITMAP
00000000
000e0000
200c0c00
3ffffe00
30000000
300e0000
300c0000
300c1800
37fffc00
300c0000
300c0000
300c1000
33fff800
30003000
30806000
30c06000
3060c000
30318000
201b0000
600e0000
400e0000
401b0000
c0318000
8060e000
83803800
00000000
00000000
ENDCHAR
STARTCHAR 236e
ENCODING 9070
SWIDTH 962 0
DWIDTH 26 0
BBX 26 27 0 -1
BITMAP
00000000
000e0000
000c0000
200c0600
3fffff00
30000000
300e0000
300c0000
300c0c00
37fffe00
300c0000
300c0000
338c1c00
330c1800
330c1800
330c1800
330c1800
330c1800
63fff800
630c1800
600c0200
400c0200
c00c0300
800fff00
0007fe00
00000000
00000000
ENDCHAR
STARTCHAR 236f
ENCODING 9071
SWIDTH 962 0
DWIDTH 26 0
BBX 26 27 0 -1
BITMAP
00000000
000e0000
000c0000
200c0600
3fffff00
30000000
30801800
30fffc00
30c18000
30c18000
30c18000
31818000
31818600
31ffff00
30018000
30098000
30198000
30198000
60318000
60318000
60618000
40c18000
c1818000
861f8000
00070000
00000000
00000000
ENDCHAR
STARTCHAR 2370
ENCODING 9072
SWIDTH 962 0
DWIDTH 26 0
BBX 26 27 0 -1
BITMAP
00000000
001c0000
00180000
20180c00
3ffffe00
30000000
301c0000
30180000
30360000
30638000
30c0e000
31863800
337f0e00
3c000400
30002000
33fff000
3000f000
3000c000
20018000
20018000
60030000
40060000
c00c0000
80300000
80000000
00000000
00000000
ENDCHAR
STARTCHAR 2371
ENCODING 9073
SWIDTH 962 0
DWIDTH 26 0
BBX 26 27 0 -1
BITMAP
00000000
001c0000
00180000
20180600
3fffff00
30000000
30006000
3207f000
33fe0000
33000000
33000000
33000c00
33fffe00
33030000
33030000
33030000
33030000
23030000
23030000
63030000
42030000
46030000
84030000
8c030000
08030000
00000000
00000000
ENDCHAR
STARTCHAR 2372
ENCODING 9074
SWIDTH 962 0
DWIDTH 26 0
BBX 26 27 0 -1
BITMAP
00000000
01c60000
01830000
03018000
0600c000
0c006000
18003000
30001c00
6fffef00
40606600
80606000
00c06000
01806000
030fe000
0603c000
19030000
01030000
01030600
ffffff00
01030000
03030000
03030000
06030000
0c030000
0c030000
00000000
00000000
ENDCHAR
STARTCHAR 2373
ENCODING 9075
SWIDTH 962 0
DWIDTH 26 0
BBX 26 27 0 -1
BITMAP
00000000
00480200
7fefff00
00cc4700
00cc4600
00cc4600
00cc4600
40cc4600
7fcc4600
60cc4600
600c4600
c00ffe00
c04c0600
ffec0000
c0ec0000
00cc0000
00cc0000
00cc0000
00cc0200
00cc0200
00cc0200
01cc0300
038c0300
3f0fff00
0e07fe00
00000000
00000000
ENDCHAR
STARTCHAR 2374
ENCODING 9076
SWIDTH 962 0
DWIDTH 26 0
BBX 26 27 0 -1
BITMAP
00000000
06002000
06062000
0c072000
0c062000
18063000
330c1000
630c1000
860c1800
06180c00
0c180e00
0c318700
1c218200
3c038000
6c030000
4c030000
8c061000
0c060800
0c0c0c00
0c0c0600
0c180600
0c107f00
0c7fc300
0c380300
0c000000
00000000
00000000
ENDCHAR
STARTCHAR 2375
ENCODING 9077
SWIDTH 962 0
DWIDTH 26 0
BBX 26 27 0 -1
BITMAP
00000000
06001000
063ff800
0c063800
0c063000
18063000
33066000
63066000
8606c200
0607ff00
0c060700
0c060600
1c050600
3c0d0600
6c0d0c00
4c0d8c00
8c189800
0c18d800
0c187000
0c306000
0c30f000
0c619800
0cc30e00
0d0e0700
0c180200
00000000
00000000
ENDCHAR
STARTCHAR 2376
ENCODING 9078
SWIDTH 962 0
DWIDTH 26 0
BBX 26 27 0 -1
BITMAP
00000000
00074000
00063000
00061800
00061800
00060000
00060600
ffffff00
00060000
00060000
00060000
00060000
0e060000
2d070000
2d930000
6ddb0000
6cdd8000
6c0d8200
ec01c200
ec04c200
ec04e200
cc066200
4ffe7300
07fc3f00
00001e00
00000000
00000000
ENDCHAR
STARTCHAR 2377
ENCODING 9079
SWIDTH 962 0
DWIDTH 26 0
BBX 26 27 0 -1
BITMAP
00000000
00000000
00000200
ffffff00
00180000
00180000
001a0000
001b0000
00198000
00198000
0018c000
00184000
00180000
00180000
00300000
03980000
130c3000
130c1800
13000c00
33004e00
63004600
63004700
e3006600
c3ffe000
01ffc000
00000000
00000000
ENDCHAR
STARTCHAR 2378
ENCODING 9080
SWIDTH 962 0
DWIDTH 26 0
BBX 26 27 0 -1
BITMAP
00000000
00380000
00300000
00300000
00302000
003ff000
00300000
00300000
00300000
00300000
00301800
3ffffe00
00000000
00000000
00300000
03980000
130c3000
130c1800
13000c00
33004e00
63004600
63004700
e3006600
c3ffe000
01ffc000
00000000
00000000
ENDCHAR
STARTCHAR 2379
ENCODING 9081
SWIDTH 962 0
DWIDTH 26 0
BBX 26 27 0 -1
BITMAP
00000000
1c0e0000
18070000
18030000
18030000
18030000
5c020600
5affff00
5b030000
d9030000
98030000
98034000
98033000
18031800
18030c00
18030e00
18030600
18030400
18030000
18030000
18030000
18030000
18030000
18030000
18030000
00000000
00000000
ENDCHAR
STARTCHAR 237a
ENCODING 9082
SWIDTH 962 0
DWIDTH 26 0
BBX 26 27 0 -1
BITMAP
00000000
1c000000
18001800
181ffc00
18000000
18000000
1e000000
5b000000
59800000
58000600
d87fff00
980cc000
980cc000
180cc000
180cc000
180cc000
1818c000
1818c000
1818c000
1830c200
1830c200
1860c200
18c0c300
1b00ff00
1c007e00
00000000
00000000
ENDCHAR
STARTCHAR 237b
ENCODING 9083
SWIDTH 962 0
DWIDTH 26 0
BBX 26 27 0 -1
BITMAP
00000000
0e01c000
0c018000
0c018000
0c018600
0c7fff00
2f018000
2d818000
6c818000
4c818000
cc018800
cc3ffc00
0c081800
0c081800
0c043000
0c043000
0c066000
0c026000
0c03c000
0c018000
0c03c000
0c066000
0c1c3800
0c301f00
0dc00600
00000000
00000000
ENDCHAR
STARTCHAR 237c
ENCODING 9084
SWIDTH 962 0
DWIDTH 26 0
BBX 26 27 0 -1
BITMAP
00000000
0e01c000
0c018000
0c018000
0c018000
0c018c00
2f3ffe00
2d818000
6cc18000
4cd98e00
cc198c00
cc198c00
0c198c00
0c198c00
0c198c00
0c198c00
0c1ffc00
0c198c00
0c018000
0c018000
0c018200
0c018200
0c018300
0c01ff00
0c00fe00
00000000
00000000
ENDCHAR
STARTCHAR 237d
ENCODING 9085
SWIDTH 962 0
DWIDTH 26 0
BBX 26 27 0 -1
BITMAP
00000000
1c01c000
18018000
18018000
18018000
18418200
1c7fff00
5a618700
5b618600
59618600
d8618600
98618600
98618600
18618600
18618600
187ffe00
18618600
18018000
18018000
18018000
18018000
18018000
18018000
18018000
18018000
00000000
00000000
ENDCHAR
STARTCHAR 237e
ENCODING 9086
SWIDTH 962 0
DWIDTH 26 0
BBX 26 27 0 -1
BITMAP
00000000
0e070000
0c060000
0c060000
0c060000
0c0c0400
2f0ffe00
2d8c6000
6cc86000
4cd86000
cc106000
cc206000
0c006000
0c006600
0c3fff00
0c006000
0c006000
0c006000
0c006000
0c006000
0c006000
0c006000
0c006000
0c006000
0c006000
00000000
00000000
ENDCHAR
STARTCHAR 2421
ENCODING 9249
SWIDTH 962 0
DWIDTH 26 0
BBX 26 27 0 -1
BITMAP
00000000
1c002000
19fff000
18307000
18306000
18306000
1c306000
5a30c000
5a30c400
593ffe00
58380e00
d8340c00
98340c00
98640c00
98621800
18621800
18613000
18c13000
1881e000
1980c000
1901e000
1a033000
1c0c1c00
18300f00
19c00600
00000000
00000000
ENDCHAR
STARTCHAR 2422
ENCODING 9250
SWIDTH 962 0
DWIDTH 26 0
BBX 26 27 0 -1
BITMAP
00000000
1c180000
181c0000
18180000
18180000
18300000
1c300400
5a3ffe00
5b660e00
59460c00
d8460c00
98861800
980f3000
180d0000
180d0000
18188000
18188000
1830c000
18304000
18606000
18603000
18c03800
19801c00
1b000f00
1c000600
00000000
00000000
ENDCHAR
STARTCHAR 2423
ENCODING 9251
SWIDTH 962 0
DWIDTH 26 0
BBX 26 27 0 -1
BITMAP
00000000
1c000e00
18407f00
187fc000
1860c000
1860c000
1860c000
1c60c000
5a60c000
5b60c000
d960c600
d97fff00
9860c000
9860c000
18606000
18606000
18606000
18606200
18633200
187c3200
19f01a00
19e01a00
18000f00
18000700
18000200
00000000
00000000
ENDCHAR
STARTCHAR 2424
ENCODING 9252
SWIDTH 962 0
DWIDTH 26 0
BBX 26 27 0 -1
BITMAP
00000000
1c000000
18000000
18000000
18000000
18300700
59300600
5fb00600
d8341600
d8341600
d8322600
98332600
98316600
98314600
1830c600
18318600
1831c600
18334600
18326600
18342600
18343600
18302600
183ffe00
18300600
18300600
00000000
00000000
ENDCHAR
STARTCHAR 2425
ENCODING 9253
SWIDTH 962 0
DWIDTH 26 0
BBX 26 27 0 -1
BITMAP
00000000
1c000e00
18003f00
1821f000
183f0000
18300000
1c300000
5b300000
59b00000
59300600
d83fff00
98303000
98303000
18303000
18303000
18303000
18303000
18303000
18603000
18603000
18403000
18c03000
18803000
19003000
1a003000
00000000
00000000
ENDCHAR
STARTCHAR 2426
ENCODING 9254
SWIDTH 962 0
DWIDTH 26 0
BBX 26 27 0 -1
BITMAP
00000000
1c000000
18000600
18ffff00
1800e000
1800c000
5800c000
5c018000
5a018000
5b030000
d9072000
98079000
980d9800
98198c00
98318600
18618600
18c18300
19018200
18018000
18018000
18018000
18018000
18018000
18018000
18018000
00000000
00000000
ENDCHAR
STARTCHAR 2427
ENCODING 9255
SWIDTH 962 0
DWIDTH 26 0
BBX 26 27 0 -1
BITMAP
00000000
1c038000
18030000
18068000
18064000
180c6000
580c3000
5c181c00
5a300f00
5b402700
d90ff000
98000000
98000000
98000400
181ffe00
18000c00
18000c00
18001800
18001800
18001800
18003000
18003000
18003000
18006000
18006000
00000000
00000000
ENDCHAR
STARTCHAR 2428
ENCODING 9256
SWIDTH 962 0
DWIDTH 26 0
BBX 26 27 0 -1
BITMAP
00000000
01c00000
03e40200
0f07ff00
78060700
60260600
7ff60600
60760600
60660600
60660600
60660600
6067fe00
60660600
7fe60000
60660000
60060000
60060000
60060000
60060200
60060200
60060200
60060300
4007ff00
4003fe00
80000000
00000000
00000000
ENDCHAR
STARTCHAR 2429
ENCODING 9257
SWIDTH 962 0
DWIDTH 26 0
BBX 26 27 0 -1
BITMAP
00000000
0e070000
0c030000
0c018000
0c018000
0c010600
0cbfff00
ffc18000
0c018000
0c018000
0c018000
0c01a000
0d019000
0e019800
3c018c00
ec018e00
cc018600
0c018400
0c018000
0c018000
0c018000
0c018000
0c018000
fc018000
38018000
00000000
00000000
ENDCHAR
STARTCHAR 242a
ENCODING 9258
SWIDTH 962 0
DWIDTH 26 0
BBX 26 27 0 -1
BITMAP
00000000
1c01c000
18018000
18018000
18218000
18218200
1a3fff00
ff618300
18618600
18618c00
18030000
19030000
1a03e000
1c03c000
1803c000
3806c000
f806c000
d806c000
180cc000
180cc200
1818c200
1830c200
1860c300
f8c0ff00
33007e00
00000000
00000000
ENDCHAR
STARTCHAR 242b
ENCODING 9259
SWIDTH 962 0
DWIDTH 26 0
BBX 26 27 0 -1
BITMAP
00000000
1c000000
18000000
18000c00
181ffe00
18000000
1a000000
ff000000
18000000
18000000
18000600
193fff00
1a018000
1c018000
38018000
f8030000
d8030000
18021000
18060800
18040c00
180c0400
18087e00
18ff8600
f8fc0300
30400300
00000000
00000000
ENDCHAR
STARTCHAR 242c
ENCODING 9260
SWIDTH 962 0
DWIDTH 26 0
BBX 26 27 0 -1
BITMAP
00000000
1c000000
18001800
183ffc00
18000000
18000000
18000000
1a000000
ff000000
18000600
18ffff00
180cc000
190cc000
1a0cc000
1c0cc000
180cc000
3818c000
f818c000
d818c000
1830c200
1830c200
1860c200
18c0c300
fb00ff00
34007e00
00000000
00000000
ENDCHAR
STARTCHAR 242d
ENCODING 9261
SWIDTH 962 0
DWIDTH 26 0
BBX 26 27 0 -1
BITMAP
00000000
0e000000
0c000600
0cffff00
0c006000
0c006000
0d80c000
ffc0c000
0c018000
0c018000
0c038000
0cc7b000
0f058800
0c0d8c00
fc198600
ec318600
0c618700
0d818300
0c018000
0c018000
0c018000
0c018000
0c018000
7c018000
18018000
00000000
00000000
ENDCHAR
STARTCHAR 242e
ENCODING 9262
SWIDTH 962 0
DWIDTH 26 0
BBX 26 27 0 -1
BITMAP
00000000
0e000000
0c000000
0c000000
0c080200
0c0fff00
0c8c0700
ffcc0600
0c0c0600
0c0c0600
0c0c0600
0c0c0600
0ccc0600
1f0ffe00
fc0c0600
ec0c0600
0c0c0600
0c0c0600
0c0c0600
0c0c0600
0c0c0600
0c0c0600
0c0ffe00
fc0c0600
180c0000
00000000
00000000
ENDCHAR
STARTCHAR 242f
ENCODING 9263
SWIDTH 962 0
DWIDTH 26 0
BBX 26 27 0 -1
BITMAP
00000000
0e001000
0c7ff800
0c0c3800
0c0c3000
0c8c3000
ffcc6000
0c0cc000
0c0d8400
0c0ffe00
0c0e0e00
0c8e0c00
0f1b0c00
3c1b0c00
fc191800
cc199800
0c31b000
0c31b000
0c30e000
0c60c000
0c41e000
0cc33000
0c861c00
fd0c0f00
3a300600
00000000
00000000
ENDCHAR
STARTCHAR 2430
ENCODING 9264
SWIDTH 962 0
DWIDTH 26 0
BBX 26 27 0 -1
BITMAP
00000000
1c0e0000
180c0000
180c0000
18180000
18180400
1a3ffe00
ff330700
18630600
18430c00
18830800
18068000
19068000
1a068000
1c0c8000
180cc000
380c4000
f8186000
d8186000
18303000
18603000
18c01800
19801c00
fa000f00
34000600
00000000
00000000
ENDCHAR
STARTCHAR 2431
ENCODING 9265
SWIDTH 962 0
DWIDTH 26 0
BBX 26 27 0 -1
BITMAP
00000000
1c000c00
18103e00
181fe000
18186000
18186000
1a186000
ff186000
18186000
18186000
19186c00
1a1ffe00
1c186000
18186000
38186000
f8186000
d8186000
18186000
18183200
18183200
18183a00
1818da00
181f1f00
f8fc0f00
30700600
00000000
00000000
ENDCHAR
STARTCHAR 2432
ENCODING 9266
SWIDTH 962 0
DWIDTH 26 0
BBX 26 27 0 -1
BITMAP
00000000
1c038000
18032000
18031800
18030c00
18030c00
18030000
18030600
ff7fff00
18030000
18030000
1803e000
1803c000
1b03c000
1e06c000
1806c000
3806c000
780cc000
d80cc000
180cc200
1818c200
1818c200
1830c300
f860ff00
30807e00
00000000
00000000
ENDCHAR
STARTCHAR 2433
ENCODING 9267
SWIDTH 962 0
DWIDTH 26 0
BBX 26 27 0 -1
BITMAP
00000000
1c038000
18030000
18030000
18060000
18060000
1a0c0000
ff180000
18300c00
18300600
187ffe00
1a666600
1c066000
38066000
f8066000
d8066000
18066000
18066000
180c6000
180c6200
180c6200
18186200
18186300
f8307f00
70c03e00
00000000
00000000
ENDCHAR
STARTCHAR 2434
ENCODING 9268
SWIDTH 962 0
DWIDTH 26 0
BBX 26 27 0 -1
BITMAP
00000000
07000000
06060200
0607ff00
06060700
06060600
06060600
7fc60600
06060600
0607fe00
06060600
06060600
06460600
07860600
7e060600
6607fe00
06060600
06060600
06060600
06040600
06040600
060c0600
06180600
7e183e00
1c181c00
00000000
00000000
ENDCHAR
STARTCHAR 2435
ENCODING 9269
SWIDTH 962 0
DWIDTH 26 0
BBX 26 27 0 -1
BITMAP
00000000
1c000000
18001c00
1800fe00
1803e000
183d8000
19018000
ff818000
18018000
18018000
18018600
187fff00
1a018000
1c018000
38038000
f8038000
d8064000
18064000
180c6000
18082000
18183000
18301800
18601c00
f8c00f00
31000200
00000000
00000000
ENDCHAR
STARTCHAR 2436
ENCODING 9270
SWIDTH 962 0
DWIDTH 26 0
BBX 26 27 0 -1
BITMAP
00000000
0e01c000
0c018000
0c018000
0c818000
ffc18c00
0c1ffe00
0c018000
0c018e00
0c198c00
0c198c00
0d198c00
0e198c00
3c198c00
ec198c00
cc1ffc00
0c198c00
0c198000
0c018000
0c018000
0c018200
0c018200
0c018300
fc01ff00
3800fe00
00000000
00000000
ENDCHAR
STARTCHAR 2437
ENCODING 9271
SWIDTH 962 0
DWIDTH 26 0
BBX 26 27 0 -1
BITMAP
00000000
0e038000
0c030000
0c068000
0d064000
ff8c6000
0c0c3000
0c181c00
0c300e00
0c602700
0ccff200
0c000000
0d000000
0e000800
3c1ffc00
ec001c00
cc001800
0c001800
0c003000
0c003000
0c003000
0c006000
0c00c000
7c018000
38020000
00000000
00000000
ENDCHAR
STARTCHAR 2438
ENCODING 9272
SWIDTH 962 0
DWIDTH 26 0
BBX 26 27 0 -1
BITMAP
00000000
0e038000
0c030000
0c068000
0c864000
ffcc6000
0c0c2000
0c183000
0c181800
0c300c00
0c600700
0cce3a00
0d0c3000
0e0c3000
3c0c3000
ec0c3000
cc0c3000
0c0c3000
0c0c3000
0c0c3000
0c183000
0c183000
0c303000
fc603000
70803000
00000000
00000000
ENDCHAR
STARTCHAR 2439
ENCODING 9273
SWIDTH 962 0
DWIDTH 26 0
BBX 26 27 0 -1
BITMAP
00000000
00000000
00001800
409ffc00
7f818000
61818000
61818000
61818000
61818000
61818000
61818000
61818c00
7fbffe00
61818000
61818000
61818000
61818000
61818000
61818000
61818000
7f818000
60018000
60018000
00018000
00018000
00000000
00000000
ENDCHAR
STARTCHAR 243a
ENCODING 9274
SWIDTH 962 0
DWIDTH 26 0
BBX 26 27 0 -1
BITMAP
00000000
00000000
00001800
409ffc00
7f818000
61818000
61818000
61818000
61818000
61818000
61818000
61818c00
7fbffe00
61818000
61818000
61818000
61818000
61818000
61818000
61818000
7f818000
60018000
60018000
001f8000
00070000
00000000
00000000
ENDCHAR
STARTCHAR 243b
ENCODING 9275
SWIDTH 962 0
DWIDTH 26 0
BBX 26 27 0 -1
BITMAP
00000000
00070000
00060000
40860000
7f8c0000
618c0200
618fff00
61980700
61900600
61a00600
61800600
61840600
7f830600
61818600
6181c600
61808600
61800600
61800600
61800600
61800600
7f800c00
60000c00
60001800
0003f800
00007000
00000000
00000000
ENDCHAR
STARTCHAR 243c
ENCODING 9276
SWIDTH 962 0
DWIDTH 26 0
BBX 26 27 0 -1
BITMAP
00000000
08001000
0ffff800
0c003800
0c003000
0c003000
0ffff000
0c003000
0c003000
0c003000
0ffff000
0c1c0000
00180000
00180600
ffffff00
00640000
00e20000
01c30000
03018000
0600e000
0c003800
30001f00
c0000600
00000000
00000000
00000000
00000000
ENDCHAR
STARTCHAR 243d
ENCODING 9277
SWIDTH 962 0
DWIDTH 26 0
BBX 26 27 0 -1
BITMAP
00000000
10000800
1ffffc00
18001c00
18001800
18001800
1ffff800
18001800
18001800
18001800
1ffff800
18001800
00000000
001c0000
00180000
00180000
70180700
60180600
60180600
60180600
60180600
60180600
60180600
7ffffe00
60000600
00000000
00000000
ENDCHAR
STARTCHAR 243e
ENCODING 9278
SWIDTH 962 0
DWIDTH 26 0
BBX 26 27 0 -1
BITMAP
00000000
1c000c00
183ffe00
1800c000
1800c000
1800c000
1800c000
1900c000
ff80c000
1800c000
1800c600
383fff00
3c00c000
3a00c000
7b00c000
5980c000
d980c000
9800c000
9800c000
1800c000
1800c000
1800c000
1800c000
180fc000
18018000
00000000
00000000
ENDCHAR
STARTCHAR 243f
ENCODING 9279
SWIDTH 962 0
DWIDTH 26 0
BBX 26 27 0 -1
BITMAP
00000000
0e000000
0c000000
0c000000
0c001800
0c1ffc00
0c800000
ff800000
0c000e00
0c7fff00
1c060000
1e060000
1d040000
3d8ffe00
2cd80c00
6cb00c00
4c300c00
8c000c00
8c000c00
0c000c00
0c001800
0c001800
0c003800
0c03f000
0c00e000
00000000
00000000
ENDCHAR
STARTCHAR 2440
ENCODING 9280
SWIDTH 962 0
DWIDTH 26 0
BBX 26 27 0 -1
BITMAP
00000000
0e070000
0c066000
0c063800
0c061800
0c060000
0d060600
ff861f00
0c07e000
0c7e0000
1c030000
1c030000
1f030000
3d830000
2cc38000
6cc18000
4c018000
cc01c000
8c00c200
8c00e200
0c006200
0c007200
0c003f00
0c001f00
0c000600
00000000
00000000
ENDCHAR
STARTCHAR 2441
ENCODING 9281
SWIDTH 962 0
DWIDTH 26 0
BBX 26 27 0 -1
BITMAP
00000000
1c0e0000
180c0000
180c0000
180c0000
180c0000
180c0000
1a0c0000
ff0c0c00
19fffe00
180c0000
380c0000
3e1a0000
3b1a0000
791a0000
58190000
58310000
d8318000
98608000
9860c000
18c06000
18c03800
19801c00
1b000f00
1c000600
00000000
00000000
ENDCHAR
STARTCHAR 2442
ENCODING 9282
SWIDTH 962 0
DWIDTH 26 0
BBX 26 27 0 -1
BITMAP
00000000
0e000000
0c000000
0c000600
0cffff00
0c0c3000
0c8c3000
ffcc3000
0c0c3000
1c0c3000
1c0c3000
1e0c3000
3d0c3000
3c8c3000
2ccc3000
6c4c3000
4c0c3000
4c183000
8c183200
0c183200
0c303200
0c303200
0c603300
0c403f00
0c801e00
00000000
00000000
ENDCHAR
STARTCHAR 2443
ENCODING 9283
SWIDTH 962 0
DWIDTH 26 0
BBX 26 27 0 -1
BITMAP
00000000
1c000000
18000000
18000400
187ffe00
18000e00
19120c00
ff920c00
18130c00
18198c00
18191800
38081800
3e0c1800
7b041800
7b043000
d8063000
d8026000
98036000
9801c000
18018000
1803c000
18066000
180c3800
18301f00
19c00600
00000000
00000000
ENDCHAR
STARTCHAR 2444
ENCODING 9284
SWIDTH 962 0
DWIDTH 26 0
BBX 26 27 0 -1
BITMAP
00000000
1c00e000
1800c000
1800c000
181cc000
1818c000
1918c200
ff18cf00
1819f700
181ec600
38f8c600
3c18c600
3a18c600
7b18c600
5918c600
5818c400
9818c400
9818c400
9818c000
1818c000
1818c200
18180200
18180300
181fff00
180ffe00
00000000
00000000
ENDCHAR
STARTCHAR 2445
ENCODING 9285
SWIDTH 962 0
DWIDTH 26 0
BBX 26 27 0 -1
BITMAP
00000000
0e000200
0c1fff00
0c000300
0c000600
0c000c00
0c807800
ffc06000
0c006000
0c006000
1c006000
1f006000
1d806200
3dbfff00
2c006000
2c006000
6c006000
4c006000
4c006000
cc006000
8c006000
8c006000
0c006000
0c07e000
0c01c000
00000000
00000000
ENDCHAR
STARTCHAR 2446
ENCODING 9286
SWIDTH 962 0
DWIDTH 26 0
BBX 26 27 0 -1
BITMAP
00000000
1c070000
18060000
18060000
180c0000
ff0c0600
181fff00
18180000
18300000
18200800
184ffc00
38001800
3c003000
3e006000
7b00c000
7b018000
d9830000
d8860000
988c0200
180c0200
18180200
18180300
181fff00
180ffe00
18000000
00000000
00000000
ENDCHAR
STARTCHAR 2447
ENCODING 9287
SWIDTH 962 0
DWIDTH 26 0
BBX 26 27 0 -1
BITMAP
00000000
1c000000
18100800
181ffc00
18181c00
19181800
ff981800
18181800
18181800
38181800
3e1b1800
3b199800
7b19d800
5818d800
58181800
d8181800
98181800
98301800
98301800
18301a00
18601a00
18601a00
18c01b00
18801f00
19000e00
00000000
00000000
ENDCHAR
STARTCHAR 2448
ENCODING 9288
SWIDTH 962 0
DWIDTH 26 0
BBX 26 27 0 -1
BITMAP
00000000
001c0000
00180000
00180c00
7ffffe00
00180000
00180000
00180000
00180000
00183000
1ffff800
00000000
00000000
0ffff800
0c183800
0c183000
0c183200
ffffff00
18303000
18303000
18303200
1fffff00
18006000
0007e000
0000c000
00000000
00000000
ENDCHAR
STARTCHAR 2449
ENCODING 9289
SWIDTH 962 0
DWIDTH 26 0
BBX 26 27 0 -1
BITMAP
00000000
0e000000
0c000000
0c001800
0ffffc00
18000000
10000000
30006000
27fff000
40000000
80000000
00001000
fffff800
00003800
01c03000
01803000
e183b000
c1833000
c1833100
c1833100
c1831900
c1831900
ffff1d00
c0030f00
00000200
00000000
00000000
ENDCHAR
STARTCHAR 244a
ENCODING 9290
SWIDTH 962 0
DWIDTH 26 0
BBX 26 27 0 -1
BITMAP
00000000
0e000000
0c001800
1ffffc00
18000000
30000000
6ffff000
80000000
00000000
fffff800
18c63800
18c63000
18c63000
18c63000
18c63000
18c63000
30c61800
30c61900
30c61900
30c61900
60c60d00
40060d00
40060700
80060700
00060200
00000000
00000000
ENDCHAR
STARTCHAR 244b
ENCODING 9291
SWIDTH 962 0
DWIDTH 26 0
BBX 26 27 0 -1
BITMAP
00000000
0001c000
60018000
38018000
18018000
00018600
027fff00
02060000
c2060000
64060000
64060000
0c060200
0807ff00
18060700
18060600
300c0600
300c0600
f00c0600
60180600
60180600
60300c00
30600c00
30c01c00
3181f800
36003000
00000000
00000000
ENDCHAR
STARTCHAR 244c
ENCODING 9292
SWIDTH 962 0
DWIDTH 26 0
BBX 26 27 0 -1
BITMAP
00000000
00000000
e0001800
707ffc00
300c6000
000c6000
000c6000
000c6000
e00c6000
700c6000
300c6600
05ffff00
040c6000
040c6000
0c0c6000
080c6000
180c6000
10186000
f0186000
60186000
60306000
60306000
30606000
30c06000
33006000
00000000
00000000
ENDCHAR
STARTCHAR 244d
ENCODING 9293
SWIDTH 962 0
DWIDTH 26 0
BBX 26 27 0 -1
BITMAP
00000000
000e7000
200c6000
180c6000
0c0c6000
0c0c6000
000c6400
803ffe00
620c6000
320c6000
320c6000
040c6000
040c6000
0c0c6600
09ffff00
180c6000
180c6000
30186000
e0186000
60306000
60306000
30606000
30c06000
30806000
33006000
00000000
00000000
ENDCHAR
STARTCHAR 244e
ENCODING 9294
SWIDTH 962 0
DWIDTH 26 0
BBX 26 27 0 -1
BITMAP
00000000
00000000
40000000
30000c00
180ffe00
18000000
00000000
80000000
62000000
32000000
32000600
041fff00
04018000
0c018000
08018000
18030000
18030000
30021000
e0060800
60040c00
600c0400
30087e00
30ff8600
30fc0300
30400300
00000000
00000000
ENDCHAR
STARTCHAR 244f
ENCODING 9295
SWIDTH 962 0
DWIDTH 26 0
BBX 26 27 0 -1
BITMAP
00000000
00038000
60033000
30031800
18031800
00031800
00030600
c4ffff00
64030000
64030000
08060000
08060000
18078000
100d8000
100d8000
300d8000
30198000
f0118200
60318200
60618200
30c18200
31818300
3601ff00
3000fe00
30000000
00000000
00000000
ENDCHAR
STARTCHAR 2450
ENCODING 9296
SWIDTH 962 0
DWIDTH 26 0
BBX 26 27 0 -1
BITMAP
00000000
60380000
30300200
1833ff00
10306700
00306600
00306600
04326600
c43f6600
64f06600
68306600
08306600
18306600
18306600
18306600
30306600
30326600
70324600
f0324600
6032c600
603e8600
603d8e00
30010c00
30027c00
30041800
00000000
00000000
ENDCHAR
STARTCHAR 2451
ENCODING 9297
SWIDTH 962 0
DWIDTH 26 0
BBX 26 27 0 -1
BITMAP
00000000
00038000
60030000
30033000
38031c00
0c030c00
00030000
00030000
00030600
00ffff00
00030000
c0030000
62070000
32068000
02068000
020cc000
060c4000
04186000
04186000
1c303000
30303000
e0601800
30c01e00
31800f00
32000200
00000000
00000000
ENDCHAR
STARTCHAR 2452
ENCODING 9298
SWIDTH 962 0
DWIDTH 26 0
BBX 26 27 0 -1
BITMAP
00000000
60380000
30300000
18300000
10300600
01ffff00
00300000
04300000
c4300000
6430e000
6830c000
0830c000
1830c000
1830c000
30308000
30218000
30219000
f0210800
60630c00
60420400
60420e00
30847600
309fc300
311e0300
32000300
00000000
00000000
ENDCHAR
STARTCHAR 2453
ENCODING 9299
SWIDTH 962 0
DWIDTH 26 0
BBX 26 27 0 -1
BITMAP
00000000
18100200
0c1fff00
0c180700
00180600
00180600
00180600
30980600
18980600
19180600
01180600
03180600
021ffe00
06180600
06180600
0c180600
0c180600
3c180600
0c180600
0c180600
0c180600
06180600
061ffe00
06180600
06180000
00000000
00000000
ENDCHAR
STARTCHAR 2454
ENCODING 9300
SWIDTH 962 0
DWIDTH 26 0
BBX 26 27 0 -1
BITMAP
00000000
0001c000
30018000
18018000
0c018000
09018000
01018000
02018000
c2018000
62718000
64618c00
0461fe00
0c618000
0c618000
18618000
18618000
38618000
f0618000
60618000
60618000
60618000
60618000
30618600
37ffff00
30000000
00000000
00000000
ENDCHAR
STARTCHAR 2455
ENCODING 9301
SWIDTH 962 0
DWIDTH 26 0
BBX 26 27 0 -1
BITMAP
00000000
00008000
2000c000
1800c000
0c008000
0c408200
007fff00
80608700
62618600
3261c600
36634600
04634600
0c666600
08666600
186c3600
30683e00
30701600
f0600600
60600600
60600600
60600600
30600600
30600600
3060fe00
30601c00
00000000
00000000
ENDCHAR
STARTCHAR 2456
ENCODING 9302
SWIDTH 962 0
DWIDTH 26 0
BBX 26 27 0 -1
BITMAP
00000000
60180000
301c2000
18183000
10301800
00300c00
04600e00
04c0f700
c7ff0300
69fe0200
68000000
0806e000
1806c000
100cc000
300cc000
300cc000
3018c000
f018c000
6030c200
6030c200
3060c200
30c0c200
3180c300
3600ff00
30007e00
00000000
00000000
ENDCHAR
STARTCHAR 2457
ENCODING 9303
SWIDTH 962 0
DWIDTH 26 0
BBX 26 27 0 -1
BITMAP
00000000
60380000
30300000
18300000
10300000
00600200
007fff00
04c66700
c4c66600
65866600
6b064600
080cc600
180cc600
1818c600
18318600
30618600
30c30600
71860600
f10c0e00
66080e00
60180c00
60300c00
30601c00
30c3f800
3380f000
00000000
00000000
ENDCHAR
STARTCHAR 2458
ENCODING 9304
SWIDTH 962 0
DWIDTH 26 0
BBX 26 27 0 -1
BITMAP
00000000
6060e000
3060c000
1860c000
1060c000
0060c000
0060c000
0060cc00
c47ffe00
64600000
64600000
08600000
08600000
18601000
187ff800
30603800
30603000
f0c03000
60c03000
61803000
61803000
71803000
33003000
33003000
34003000
00000000
00000000
ENDCHAR
STARTCHAR 2459
ENCODING 9305
SWIDTH 962 0
DWIDTH 26 0
BBX 26 27 0 -1
BITMAP
00000000
30000c00
18303e00
183fe000
0030c000
0030c000
0230c000
0230c000
0230c000
c430c000
6430cc00
6c3ffe00
0830c000
1830c000
1830c000
3030c000
3030c000
f030e000
60306200
60306200
60307b00
3030db00
303f1f00
30fc0f00
30700600
00000000
00000000
ENDCHAR
STARTCHAR 245a
ENCODING 9306
SWIDTH 962 0
DWIDTH 26 0
BBX 26 27 0 -1
BITMAP
00000000
00000000
30200600
1c3fff00
0c300000
00300000
01300000
01300000
c2300400
623ffe00
64340e00
04340c00
0c340c00
08621800
18621800
18623000
30613000
f041e000
60c0c000
6081c000
61836000
61063000
320c1c00
34300f00
30c00600
00000000
00000000
ENDCHAR
STARTCHAR 245b
ENCODING 9307
SWIDTH 962 0
DWIDTH 26 0
BBX 26 27 0 -1
BITMAP
00000000
0001c000
30018000
1c018000
0c018c00
007ffe00
00018000
c2018000
62018000
64018000
04018800
0c3ffc00
08101800
18181800
18083000
300c3000
30066000
f003c000
70018000
3003c000
30066000
180c3000
18381c00
18600f00
1b800600
00000000
00000000
ENDCHAR
STARTCHAR 245c
ENCODING 9308
SWIDTH 962 0
DWIDTH 26 0
BBX 26 27 0 -1
BITMAP
00000000
00070000
70060000
30060000
18060000
080c0400
000ffe00
000c6000
00086000
00186000
00106000
00206000
c2006000
62006600
323fff00
02006000
06006000
0c006000
0c006000
18006000
10006000
70006000
18006000
18006000
18006000
00000000
00000000
ENDCHAR
STARTCHAR 245d
ENCODING 9309
SWIDTH 962 0
DWIDTH 26 0
BBX 26 27 0 -1
BITMAP
00000000
001dc000
30198000
1c198000
0c198000
00198000
00318000
c2318000
62318000
64718000
04618000
0cf18600
09b1ff00
1a318000
18318000
30318000
30318000
f0318000
70318200
30318200
30318200
18318300
18318300
1831ff00
1830fe00
00000000
00000000
ENDCHAR
STARTCHAR 245e
ENCODING 9310
SWIDTH 962 0
DWIDTH 26 0
BBX 26 27 0 -1
BITMAP
00000000
0e000000
0c000000
0c000200
0c0fff00
0c006000
4c006000
4c606000
4c606000
ccc06000
cd806000
8e006000
0c006000
0c006000
0c006000
0c006000
0c006000
1b006000
19806000
19c06000
10e06000
30606200
202fff00
40000000
80000000
00000000
00000000
ENDCHAR
STARTCHAR 245f
ENCODING 9311
SWIDTH 962 0
DWIDTH 26 0
BBX 26 27 0 -1
BITMAP
00000000
1c1c0000
18180000
1818e000
1818c000
5918c000
5998c000
db18c200
dc18df00
d81bf700
987ec600
9818c600
1818c600
1818c600
1818c600
1818c600
1818c600
3618c400
3318c400
3398c000
21980200
61980300
401fff00
c00ffe00
80000000
00000000
00000000
ENDCHAR
STARTCHAR 2460
ENCODING 9312
SWIDTH 962 0
DWIDTH 26 0
BBX 26 27 0 -1
BITMAP
00000000
07000000
06000000
66000200
6607ff00
66018700
46418600
7fe18600
c6018600
86098600
86078600
06038600
0603c600
06636600
0f834600
fe030600
e6030600
06060600
06060600
06060e00
060c0c00
06181c00
06303800
0661f000
06806000
00000000
00000000
ENDCHAR
STARTCHAR 2461
ENCODING 9313
SWIDTH 962 0
DWIDTH 26 0
BBX 26 27 0 -1
BITMAP
00000000
41c0e000
2180c000
1300c000
0e00c000
0c00c600
1c3fff00
3400c000
4600c000
8200c000
0200c000
0700f000
0700c800
0f00cc00
1b00c600
3300c700
2300c300
4300c200
8300c000
0300c000
0300c000
0300c000
0600c000
fe00c000
1c00c000
00000000
00000000
ENDCHAR
STARTCHAR 2462
ENCODING 9314
SWIDTH 962 0
DWIDTH 26 0
BBX 26 27 0 -1
BITMAP
00000000
86000300
463fff00
2c001800
38001800
100e1800
380c1800
480c1800
8c0c1800
0e0c1800
0e181800
1e181900
361fff00
26003800
46007800
8600f800
0601d800
06039800
06061800
0c0c1800
0c301800
1cc01800
f9001800
3003f800
00007000
00000000
00000000
ENDCHAR
STARTCHAR 2463
ENCODING 9315
SWIDTH 962 0
DWIDTH 26 0
BBX 26 27 0 -1
BITMAP
00000000
02000000
43000800
267ffc00
1c061c00
18061800
38061800
6c061800
84061800
060c1800
060c1800
070c1b00
0fffff00
0b0c1800
1b0c1800
330c1800
630c3000
830c3000
03183000
06183000
06183000
0c183000
1c183300
fbffff00
30000000
00000000
00000000
ENDCHAR
STARTCHAR 2464
ENCODING 9316
SWIDTH 962 0
DWIDTH 26 0
BBX 26 27 0 -1
BITMAP
00000000
0181c000
21818000
13018000
0e018000
0c018000
1c018000
34218400
463ffe00
02318e00
02318c00
07318c00
07318c00
0f318c00
1b318c00
333ffc00
23318c00
43018000
03018000
03018000
03018000
03018000
06018000
7e018000
1c018000
00000000
00000000
ENDCHAR
STARTCHAR 2465
ENCODING 9317
SWIDTH 962 0
DWIDTH 26 0
BBX 26 27 0 -1
BITMAP
00000000
06060000
46070000
2c062000
380c1800
18180c00
18100600
68207e00
84ff8700
067c0300
06000200
0e000000
0e1ce000
1e18c000
3618c000
2618c000
4618c000
8618c000
0630c000
0630c200
0630c200
0660c200
0e60c300
fcc0ff00
39007e00
00000000
00000000
ENDCHAR
STARTCHAR 2466
ENCODING 9318
SWIDTH 962 0
DWIDTH 26 0
BBX 26 27 0 -1
BITMAP
00000000
0180e000
2180c000
1300c000
0a00c600
0e3fff00
1c000000
14000000
26040800
4207fc00
03061c00
07061800
07061800
0f061800
1b061800
13061800
23061800
43061800
03061a00
030e1a00
030c1b00
060c1b00
0e181b00
7c181f00
18600e00
00000000
00000000
ENDCHAR
STARTCHAR 2467
ENCODING 9319
SWIDTH 962 0
DWIDTH 26 0
BBX 26 27 0 -1
BITMAP
00000000
83003000
43807800
2603c000
3c0f8000
18798000
38018000
6c018000
84018000
06018000
06018000
0e018000
1e018c00
167ffe00
36018000
26018000
46018000
86018000
06018000
06018000
0e018000
0c018000
1c018000
f8018600
31ffff00
00000000
00000000
ENDCHAR
STARTCHAR 2468
ENCODING 9320
SWIDTH 962 0
DWIDTH 26 0
BBX 26 27 0 -1
BITMAP
00000000
00000000
03001800
ff9ffc00
18018000
18018000
18018000
18018000
18018000
18018600
1a7fff00
ff018000
18018000
18018000
18018000
18018000
18018000
18018000
18018000
1f018000
f8018000
e0018000
00018000
00018000
00018000
00000000
00000000
ENDCHAR
STARTCHAR 2469
ENCODING 9321
SWIDTH 962 0
DWIDTH 26 0
BBX 26 27 0 -1
BITMAP
00000000
00000000
03001800
ff9ffc00
18018000
18018000
18018000
18018000
18018600
187fff00
1a018000
ff018000
18018000
18018000
18018000
18018000
18018000
18018000
18018000
1f018000
f8018000
e0018000
001f8000
00070000
00000000
00000000
00000000
ENDCHAR
STARTCHAR 246a
ENCODING 9322
SWIDTH 962 0
DWIDTH 26 0
BBX 26 27 0 -1
BITMAP
00000000
00070000
00060000
03060000
ff8c0000
180c0400
180ffe00
18180e00
18100c00
18200c00
18000c00
1a080c00
ff060c00
18030c00
18030c00
18018c00
18010c00
18000c00
18000c00
18001800
1f001800
f8001800
e0003800
0007f000
0000e000
00000000
00000000
ENDCHAR
STARTCHAR 246b
ENCODING 9323
SWIDTH 962 0
DWIDTH 26 0
BBX 26 27 0 -1
BITMAP
00000000
00070700
01860600
ffc67600
0c066600
0c066600
0c066600
0c066600
0c066600
0c066600
0d066600
7f866600
0c066600
0c066600
0c066600
0c066600
0c0c6600
0c0c6600
0c0c6600
0dec6600
0f8c6600
fc186600
f0180600
00180600
00200600
00000000
00000000
ENDCHAR
STARTCHAR 246c
ENCODING 9324
SWIDTH 962 0
DWIDTH 26 0
BBX 26 27 0 -1
BITMAP
00000000
00000000
03000c00
ff9ffe00
1800c000
1800c000
1800c000
1800c000
1800c000
1800c000
1880c000
ff80c000
1800c000
1800c000
1800c000
1800c000
1800c000
1800c000
19c0c000
1f00c000
f800c600
e03fff00
00000000
00000000
00000000
00000000
00000000
ENDCHAR
STARTCHAR 246d
ENCODING 9325
SWIDTH 962 0
DWIDTH 26 0
BBX 26 27 0 -1
BITMAP
00000000
00000000
00000600
805fff00
ffe0c000
cce0c000
ccc0c000
ccc0c000
ccc0c000
ccc0c000
ccc0c000
ffc0c000
ccc0c000
ccc0c000
ccc0c000
ccc0c000
ccc0c000
ccc0c000
ccc0c000
ccc0c000
ffc0c000
c0c0c000
c000c000
000fc000
00038000
00000000
00000000
ENDCHAR
STARTCHAR 246e
ENCODING 9326
SWIDTH 962 0
DWIDTH 26 0
BBX 26 27 0 -1
BITMAP
00000000
001c0000
00180000
10180800
1ffffc00
18181c00
18181800
1ffff800
18181800
18181800
1ffff800
18001800
00000000
00000c00
7ffffe00
03000000
03001000
03fff800
06003800
06003000
00003000
00003000
00006000
001fe000
0003c000
00000000
00000000
ENDCHAR
STARTCHAR 246f
ENCODING 9327
SWIDTH 962 0
DWIDTH 26 0
BBX 26 27 0 -1
BITMAP
00000000
00070000
00060000
08060600
0fffff00
8c000000
4c000000
4c000000
6c000000
6c000600
0dffff00
0c030000
0c030000
3c030000
ec030000
cc030000
8c030000
18030000
18030000
10030000
30030000
20030000
40030000
807f0000
000e0000
00000000
00000000
ENDCHAR
STARTCHAR 2470
ENCODING 9328
SWIDTH 962 0
DWIDTH 26 0
BBX 26 27 0 -1
BITMAP
00000000
00070000
00060000
08060600
0fffff00
8c000000
4c600000
4c600000
6c600000
6c600000
0c600000
0c600e00
0c600c00
3c601800
ec607000
cc61c000
8c670000
187c0000
18600000
10600400
30600400
20600600
40600600
807ffe00
003ffc00
00000000
00000000
ENDCHAR
STARTCHAR 2471
ENCODING 9329
SWIDTH 962 0
DWIDTH 26 0
BBX 26 27 0 -1
BITMAP
00000000
00c00000
01e00000
17000800
1ffffc00
18001c00
18001800
18001800
1ffff800
18001800
18001800
18001800
1ffff800
18181800
00180000
00180000
00180600
ffffff00
00180000
00180000
00180000
00180000
00180000
00180000
00180000
00000000
00000000
ENDCHAR
STARTCHAR 2472
ENCODING 9330
SWIDTH 962 0
DWIDTH 26 0
BBX 26 27 0 -1
BITMAP
00000000
38000000
30001000
30fff800
320c3800
ff0c3000
060c3000
060c3000
060c6000
0c0c6200
0c0c7f00
1c0c6700
3f186600
6d980600
4d980600
8c180600
0c180600
0c300600
0c300600
0c200600
0c600600
0c400600
0c800c00
0d01fc00
0c007800
00000000
00000000
ENDCHAR
STARTCHAR 2473
ENCODING 9331
SWIDTH 962 0
DWIDTH 26 0
BBX 26 27 0 -1
BITMAP
00000000
00338000
fffb0000
30630000
30630000
30630000
30630000
3fe30000
30630000
30630000
30630000
30630000
30630000
3fe30000
30630000
30630000
30630000
30630000
31e30000
3f630200
fc630200
e0630300
00630300
00630300
0063fe00
00000000
00000000
ENDCHAR
STARTCHAR 2474
ENCODING 9332
SWIDTH 962 0
DWIDTH 26 0
BBX 26 27 0 -1
BITMAP
00000000
40800000
7fc00000
61c00200
61bfff00
61818700
61818600
79818600
6d818600
63898600
618d8600
61878600
63818600
6d810600
7d830600
71820600
61860600
61840600
618c0600
41980600
41900600
c1a00e00
81800c00
9f81fc00
87003800
00000000
00000000
ENDCHAR
STARTCHAR 2475
ENCODING 9333
SWIDTH 962 0
DWIDTH 26 0
BBX 26 27 0 -1
BITMAP
00000000
08001000
0ffff800
0c003800
0c003000
0c003000
0c003000
0ffff000
0c003000
00000000
10000800
1ffffc00
18001c00
18001800
1bf01800
18ffd800
18001800
1801d800
181f1800
1ff01800
1b801800
18001800
30001800
3003f800
60007000
00000000
00000000
ENDCHAR
STARTCHAR 2476
ENCODING 9334
SWIDTH 962 0
DWIDTH 26 0
BBX 26 27 0 -1
BITMAP
00000000
20470000
3fe60000
30e60000
30c60c00
30c7fe00
30cc0000
3cc80000
36c80000
31d01000
30c7f800
30c03800
30c06000
33c06000
36c0c000
3cc18000
30c30000
30c30000
30c60400
20c60400
20cc0400
60cc0400
40cc0600
47cffe00
0187fc00
00000000
00000000
ENDCHAR
STARTCHAR 2477
ENCODING 9335
SWIDTH 962 0
DWIDTH 26 0
BBX 26 27 0 -1
BITMAP
00000000
410e0000
7f8c0000
638c0000
630c2000
637ff000
630c7000
630c6000
734c6000
7b4c6000
6f6c6000
633c6000
63186000
631c6000
6f1e6000
7b1be000
73336000
63306000
63306200
43206200
43606200
43606200
c3406300
9fc07f00
86803e00
00000000
00000000
ENDCHAR
STARTCHAR 2478
ENCODING 9336
SWIDTH 962 0
DWIDTH 26 0
BBX 26 27 0 -1
BITMAP
00000000
20200000
3ff00c00
30701c00
30603800
30606000
3860c000
3e630000
376c0600
31e00e00
30600c00
30601800
31e03000
37606000
3e618000
386e0300
30600700
30600e00
20600c00
20601800
20603000
60606000
4060c000
43e30000
00cc0000
00000000
00000000
ENDCHAR
STARTCHAR 2479
ENCODING 9337
SWIDTH 962 0
DWIDTH 26 0
BBX 26 27 0 -1
BITMAP
00000000
07007000
06006000
06006600
ffe7ff00
06006000
06006000
06006000
00000000
00000c00
7ffffe00
00180000
00180000
001a0000
00190000
00198000
0018c000
00186000
00183000
00183000
00180000
00180000
00180000
00180000
00180000
00000000
00000000
ENDCHAR
STARTCHAR 247a
ENCODING 9338
SWIDTH 962 0
DWIDTH 26 0
BBX 26 27 0 -1
BITMAP
00000000
00000000
07007000
06006000
06006600
ffe7ff00
06006000
06006000
06006000
00000000
001c0000
00180000
00180000
00180000
00186000
0ffff000
00180000
00180000
00180000
00180000
00180000
00180400
00180e00
ffffff00
00000000
00000000
00000000
ENDCHAR
STARTCHAR 247b
ENCODING 9339
SWIDTH 962 0
DWIDTH 26 0
BBX 26 27 0 -1
BITMAP
00000000
07007000
06006000
06006600
ffe7ff00
06006000
06006000
06006000
00000000
001c1800
00180c00
00180200
00180c00
001ffe00
3ffc0000
000c0000
000c0000
00060000
00060000
00030200
00030200
00018200
0000c300
00007f00
00003e00
00000000
00000000
ENDCHAR
STARTCHAR 247c
ENCODING 9340
SWIDTH 962 0
DWIDTH 26 0
BBX 26 27 0 -1
BITMAP
00000000
07007000
06006000
06006600
ffe7ff00
06006000
06006000
06006000
00001000
0ffff800
00003800
00003000
00003000
0ffff000
0c000000
0c000000
18000800
1ffffc00
18001c00
18001800
00001800
00001800
00003000
000ff000
0001e000
00000000
00000000
ENDCHAR
STARTCHAR 247d
ENCODING 9341
SWIDTH 962 0
DWIDTH 26 0
BBX 26 27 0 -1
BITMAP
00000000
07007000
06006000
06006600
ffe7ff00
06006000
06006000
06006000
00001000
0ffff800
00003800
00003000
00003000
00003000
00003000
0ffff000
0c003000
0c000000
0c000000
0c000200
0c000200
0c000300
0c000300
0fffff00
07fffe00
00000000
00000000
ENDCHAR
STARTCHAR 247e
ENCODING 9342
SWIDTH 962 0
DWIDTH 26 0
BBX 26 27 0 -1
BITMAP
00000000
07007000
06006000
06006600
ffe7ff00
06006000
06006000
00002000
0ffff000
00007000
0000e000
00038000
001c0000
00180000
00180600
ffffff00
00180000
00180000
00180000
00180000
00180000
00180000
00180000
03f80000
00700000
00000000
00000000
ENDCHAR
STARTCHAR 2521
ENCODING 9505
SWIDTH 962 0
DWIDTH 26 0
BBX 26 27 0 -1
BITMAP
00000000
07007000
06006000
06006600
ffe7ff00
06006000
06006000
00000000
00018000
0003c000
001e0000
00f80000
0f980000
00180000
00180000
00180c00
7ffffe00
00180000
00180000
00180000
00180000
00180000
00180000
00180000
00180000
00000000
00000000
ENDCHAR
STARTCHAR 2522
ENCODING 9506
SWIDTH 962 0
DWIDTH 26 0
BBX 26 27 0 -1
BITMAP
00000000
07007000
06006000
06006600
ffe7ff00
06006000
06006000
06006000
00000000
04004000
07ffe000
0600e000
0600c000
0600c000
0620c000
0630c000
0618c000
061cc000
0e0cc000
0c00c200
1c00c200
1800c200
3000c300
2000ff00
40007e00
00000000
00000000
ENDCHAR
STARTCHAR 2523
ENCODING 9507
SWIDTH 962 0
DWIDTH 26 0
BBX 26 27 0 -1
BITMAP
00000000
07007000
06006000
06006600
ffe7ff00
06006000
06006000
06006000
00700000
00600000
00601000
1ffff800
00603800
00603000
03603000
01e03000
01c03000
00e03000
01f03000
01b03200
03003200
03003300
06003300
0c003f00
10001e00
00000000
00000000
ENDCHAR
STARTCHAR 2524
ENCODING 9508
SWIDTH 962 0
DWIDTH 26 0
BBX 26 27 0 -1
BITMAP
00000000
00007800
0001f000
001f8000
0ff00600
020c0e00
01861c00
00c27000
0041c000
001f0000
01f90000
1f838000
0006c000
00184000
0060e000
0381e000
3c033000
00063000
00183000
00e03000
3f007000
00006000
0000e000
003fc000
000f8000
00000000
00000000
ENDCHAR
STARTCHAR 2525
ENCODING 9509
SWIDTH 962 0
DWIDTH 26 0
BBX 26 27 0 -1
BITMAP
00000000
00000000
60600400
307ffe00
18600e00
18600c00
00600c00
00600c00
047ffc00
ff600c00
07600000
06600000
06600000
0c600000
18600000
30400000
18c00000
0cc00000
0c800000
0d000000
18000000
70000000
efffff00
47fffe00
00000000
00000000
00000000
ENDCHAR
STARTCHAR 2526
ENCODING 9510
SWIDTH 962 0
DWIDTH 26 0
BBX 26 27 0 -1
BITMAP
00000000
00000000
6001c000
30018000
18018000
18018000
00018000
00718700
00618600
00618600
08618600
fe618600
06618600
0c618600
0c618600
18618600
60618600
18618600
0c618600
0c7ffe00
0c600600
1c600600
77000000
e3ffff00
40fffe00
00000000
00000000
ENDCHAR
STARTCHAR 2527
ENCODING 9511
SWIDTH 962 0
DWIDTH 26 0
BBX 26 27 0 -1
BITMAP
00000000
07008200
0600ff00
0600c700
0630c600
fff8cc00
0000cc00
0000c800
0000d000
0040d000
3fe0c800
30e0cc00
30c0c400
30c0c600
30c0c300
30c0c300
30c0c300
30c0c300
30c0c700
20c2fe00
60c4cc00
40ccc000
40d8c000
80f0c000
8060c000
00000000
00000000
ENDCHAR
STARTCHAR 2528
ENCODING 9512
SWIDTH 962 0
DWIDTH 26 0
BBX 26 27 0 -1
BITMAP
00000000
03810200
0301ff00
03018600
03018600
03198600
fffd8c00
0c018c00
0c019800
0c01a000
0c099800
0ff98c00
0c1d8600
0c1d8600
0c198300
18198300
18198300
18198300
30198300
30198700
6031be00
c0318c00
80718000
03f18000
00618000
00000000
00000000
ENDCHAR
STARTCHAR 2529
ENCODING 9513
SWIDTH 962 0
DWIDTH 26 0
BBX 26 27 0 -1
BITMAP
00000000
07000000
0600c200
0600ff00
0600c700
4608c600
fffcc600
c61ccc00
c618cc00
c630cc00
0600d000
0600d800
0600cc00
0600c600
0700c700
0580c300
0d80c300
0d80c300
1980c700
1984fe00
3188d800
2198c000
61b0c000
41e0c000
80c0c000
00000000
00000000
ENDCHAR
STARTCHAR 252a
ENCODING 9514
SWIDTH 962 0
DWIDTH 26 0
BBX 26 27 0 -1
BITMAP
00000000
01c04200
01807f00
01806700
01806600
018c6600
3ffe6400
01806400
01806800
01806800
01806400
01806600
01836200
ffffe300
03806300
03406300
03406700
06607e00
06206c00
0c306000
0c186000
180c6000
30076000
6003e000
80016000
00000000
00000000
ENDCHAR
STARTCHAR 252b
ENCODING 9515
SWIDTH 962 0
DWIDTH 26 0
BBX 26 27 0 -1
BITMAP
00000000
00008200
0030ff00
3ff8c700
0000c600
0000cc00
0000cc00
0000c800
0000d000
000cd000
fffec800
0cc0cc00
0cc0c400
0cc0c600
0cc0c300
0cc0c300
18c0c300
18c0c300
18c0c700
30c2fe00
30c4dc00
60ccc000
c0d8c000
80f0c000
0060c000
00000000
00000000
ENDCHAR
STARTCHAR 252c
ENCODING 9516
SWIDTH 962 0
DWIDTH 26 0
BBX 26 27 0 -1
BITMAP
00000000
00008200
0180ff00
0d80c700
18c0c600
1860cc00
3020cc00
3030c800
6010d000
c018d000
000ec800
0004cc00
7ff0c400
0c30c600
0c30c300
0c30c300
0c30c300
1830c300
1830c700
1830fe00
3030dc00
3030c000
6070c000
43e0c000
80c0c000
00000000
00000000
ENDCHAR
STARTCHAR 252d
ENCODING 9517
SWIDTH 962 0
DWIDTH 26 0
BBX 26 27 0 -1
BITMAP
00000000
8270e000
ff60c000
c760c000
c660c000
cc60c000
c860c000
c860cc00
d060ce00
d064d800
c87ee000
c860c000
c460c000
c660c000
c660c000
c660c000
c660c000
dc60c000
c860c400
c060c400
c066c400
c07cc600
c0e0fe00
c0807c00
c0000000
00000000
00000000
ENDCHAR
STARTCHAR 252e
ENCODING 9518
SWIDTH 962 0
DWIDTH 26 0
BBX 26 27 0 -1
BITMAP
00000000
42000000
7f400600
677fff00
66600000
66600000
64600000
64640400
6867fe00
68660e00
64660c00
66660c00
62660c00
63660c00
63660c00
63460c00
67467c00
7e461800
6cc60000
60860200
61860200
61060300
6107ff00
6203fe00
60000000
00000000
00000000
ENDCHAR
STARTCHAR 252f
ENCODING 9519
SWIDTH 962 0
DWIDTH 26 0
BBX 26 27 0 -1
BITMAP
00000000
4201c000
7f018000
66018000
66018000
66018000
64018000
64018000
68398000
64318000
64318c00
6631fe00
62318000
63318000
63318000
63318000
67318000
7e318000
6c318000
60318000
60318000
60318000
60318600
63ffff00
60000000
00000000
00000000
ENDCHAR
STARTCHAR 2530
ENCODING 9520
SWIDTH 962 0
DWIDTH 26 0
BBX 26 27 0 -1
BITMAP
00000000
4200e000
7f00c000
6301c000
62038000
66070000
643e0c00
64780600
683fff00
64033100
64033000
66033000
62033000
63033000
63033000
63033000
63033000
63033000
6f063000
66063000
60063200
601e3300
60183300
60383f00
60701c00
00000000
00000000
ENDCHAR
STARTCHAR 2531
ENCODING 9521
SWIDTH 962 0
DWIDTH 26 0
BBX 26 27 0 -1
BITMAP
00000000
00c1c000
00c18000
00c18000
20c18400
3ffffe00
30c18e00
30c18c00
30c18c00
3ffffc00
30c18c00
00c18000
40c18200
7fffff00
60c18700
60c18600
60c18600
60c18600
7ffffe00
60818600
01818000
01818000
03018000
06018000
0c018000
00000000
00000000
ENDCHAR
STARTCHAR 2532
ENCODING 9522
SWIDTH 962 0
DWIDTH 26 0
BBX 26 27 0 -1
BITMAP
00000000
06038000
06030000
06430200
0e7fff00
0cc00300
0cc00600
1800e000
180ff000
18f60000
30060000
30060000
70060000
58060c00
d8063e00
981fc000
1be60000
18060000
18060000
18060200
18060200
18060200
18060300
1807ff00
1803fe00
00000000
00000000
ENDCHAR
STARTCHAR 2533
ENCODING 9523
SWIDTH 962 0
DWIDTH 26 0
BBX 26 27 0 -1
BITMAP
00000000
0e038000
0c030000
0c030000
0c030600
0dffff00
18000000
18302000
18601800
30600c00
30c00600
31107600
78106000
58306000
9868c000
98c8c000
18cd8000
18078000
18030000
18070000
180d8000
1818c000
18307000
18c03f00
1b000e00
00000000
00000000
ENDCHAR
STARTCHAR 2534
ENCODING 9524
SWIDTH 962 0
DWIDTH 26 0
BBX 26 27 0 -1
BITMAP
00000000
06001000
070ff800
06000000
06000600
0c3fff00
0c060000
0c060000
18040000
18083800
18183000
3c0c6000
2c06c000
6c018e00
4c030c00
8c061800
0c0c3000
0c186000
0c30c000
0cc18000
0c037000
0c061c00
0c0c0600
0c300300
0cc00300
00000000
00000000
ENDCHAR
STARTCHAR 2535
ENCODING 9525
SWIDTH 962 0
DWIDTH 26 0
BBX 26 27 0 -1
BITMAP
00000000
07038000
06030000
06030000
0c030000
0c060200
1807ff00
18466700
33ec6600
38186600
78006c00
58006000
d8006000
98006000
18006000
18606000
1bf0d000
1800d000
18019800
18019800
18030c00
18060c00
180c0600
18180700
18600200
00000000
00000000
ENDCHAR
STARTCHAR 2536
ENCODING 9526
SWIDTH 962 0
DWIDTH 26 0
BBX 26 27 0 -1
BITMAP
00000000
07000700
06000600
06ff6600
06666600
0c666600
0c666600
0c666600
18666600
18666600
1bffe600
38666600
3c666600
6c666600
4c666600
cc666600
8c666600
0c666600
0c666600
0cc60600
0cc60600
0cc60600
0d860600
0d867e00
0e061c00
00000000
00000000
ENDCHAR
STARTCHAR 2537
ENCODING 9527
SWIDTH 962 0
DWIDTH 26 0
BBX 26 27 0 -1
BITMAP
00000000
0c038000
0c030000
0c030600
0dffff00
18030000
18030000
18fffe00
30030e00
30030c00
30fffc00
78c30000
58c30000
d8c30200
99ffff00
19830700
19870600
18068600
180c9e00
180ccc00
18186000
18303000
18601c00
18c00f00
1b000200
00000000
00000000
ENDCHAR
STARTCHAR 2538
ENCODING 9528
SWIDTH 962 0
DWIDTH 26 0
BBX 26 27 0 -1
BITMAP
00000000
06038000
07030000
06030000
0c030600
0dffff00
0c030000
18030000
18030000
18030000
38030c00
28fffe00
6c000000
4c000000
8c400800
0c7ffc00
0c601c00
0c601800
0c601800
0c601800
0c601800
0c601800
0c601800
0c7ff800
0c601800
00000000
00000000
ENDCHAR
STARTCHAR 2539
ENCODING 9529
SWIDTH 962 0
DWIDTH 26 0
BBX 26 27 0 -1
BITMAP
00000000
07000600
06ffff00
06181800
0e181800
0c181800
0c181800
181ff800
38181800
3c181800
6c181800
cc181800
0c181800
0c1ff800
0c181800
0c181800
0c181800
0c181f00
0c1bf800
0cff1800
0c7c1800
0c001800
0c001800
0c001800
0c001800
00000000
00000000
ENDCHAR
STARTCHAR 253a
ENCODING 9530
SWIDTH 962 0
DWIDTH 26 0
BBX 26 27 0 -1
BITMAP
00000000
0c070000
0c060000
0c060600
0dffff00
180c8000
180c4000
18186000
18183000
30301c00
30600f00
719fe600
58000000
98000600
99ffff00
180c0000
180c0800
181ffc00
18181c00
18301800
18001800
18001800
18003800
1807f000
1800e000
00000000
00000000
ENDCHAR
STARTCHAR 253b
ENCODING 9531
SWIDTH 962 0
DWIDTH 26 0
BBX 26 27 0 -1
BITMAP
00000000
06000600
06ffff00
06070000
06060000
0c0e0000
0c0c1000
0c180800
0c100c00
18fffc00
187e0600
38000600
2c038000
4c030000
4c030000
0c031800
0c7ffc00
0c030000
0c030000
0c030000
0c030000
0c030000
0c030600
0dffff00
0c000000
00000000
00000000
ENDCHAR
STARTCHAR 253c
ENCODING 9532
SWIDTH 962 0
DWIDTH 26 0
BBX 26 27 0 -1
BITMAP
00000000
06400800
067ffc00
06601c00
0c601800
0c601800
0c7ff800
18601800
18601800
18601800
38601800
2c7ff800
6c610000
4c610400
8c610e00
0c611800
0c60b000
0c60c000
0c604000
0c606000
0c603000
0c61f800
0dfe1c00
0cf00f00
0c600200
00000000
00000000
ENDCHAR
STARTCHAR 253d
ENCODING 9533
SWIDTH 962 0
DWIDTH 26 0
BBX 26 27 0 -1
BITMAP
00000000
0e387000
0c306000
0c306000
0c306000
18306000
18306000
18306600
30306700
38316c00
783f7000
58306000
99b06000
19b06000
19b06000
19b06000
19b06000
19b06000
19b06200
19b06200
19b36200
19bc6300
1bf07f00
19e03e00
18000000
00000000
00000000
ENDCHAR
STARTCHAR 253e
ENCODING 9534
SWIDTH 962 0
DWIDTH 26 0
BBX 26 27 0 -1
BITMAP
00000000
06000000
06800200
06ffff00
0cc00700
0cc00600
0cc00600
18c06600
18dff600
18c00600
38c00600
2cc82600
6ccfe600
4ccc6600
8ccc6600
0ccc6600
0ccc6600
0ccc6600
0ccfe600
0ccc0600
0ccc0600
0cc00600
0cc00600
0cc07e00
0cc01c00
00000000
00000000
ENDCHAR
STARTCHAR 253f
ENCODING 9535
SWIDTH 962 0
DWIDTH 26 0
BBX 26 27 0 -1
BITMAP
00000000
06000000
06400200
0c7fff00
0c600700
0c600600
18600600
18642600
3067e600
30642600
70642600
58642600
d8642600
98642600
18642600
18642600
18642600
1867e600
18642600
18600600
18600600
18600600
187ffe00
18600600
18600600
00000000
00000000
ENDCHAR
STARTCHAR 2540
ENCODING 9536
SWIDTH 962 0
DWIDTH 26 0
BBX 26 27 0 -1
BITMAP
00000000
0c1c0000
0e180000
0c180000
0c300000
18300200
187fff00
18600700
18c00600
30c04600
30ffe600
7160e600
9960c600
9a60c600
187fc600
1860c600
1860c600
1860c600
1860c600
187fc600
18600c00
18600c00
18001c00
1803f800
18007000
00000000
00000000
ENDCHAR
STARTCHAR 2541
ENCODING 9537
SWIDTH 962 0
DWIDTH 26 0
BBX 26 27 0 -1
BITMAP
00000000
060e0000
060c1000
060ff800
0c183000
0c183000
0c31f000
18606000
18900600
181fff00
38180000
2c180000
6c1a0400
4c1bfe00
8c1b0e00
0c1b0c00
0c1b0c00
0c330c00
0c337c00
0c331800
0c230200
0c230200
0c630300
0c43ff00
0c81fe00
00000000
00000000
ENDCHAR
STARTCHAR 2542
ENCODING 9538
SWIDTH 962 0
DWIDTH 26 0
BBX 26 27 0 -1
BITMAP
00000000
0c038000
0c630000
0c630000
0c630000
18c30c00
18fffe00
19830000
19030000
32030000
30030000
70030600
5bffff00
d8198000
98198000
18198000
18198000
18318000
18318200
18318200
18618200
18618200
18c18300
1981ff00
1a00fe00
00000000
00000000
ENDCHAR
STARTCHAR 2543
ENCODING 9539
SWIDTH 962 0
DWIDTH 26 0
BBX 26 27 0 -1
BITMAP
00000000
0c001c00
0c00fe00
0c07e000
0dfb0000
18030000
18030000
18030000
18030600
31ffff00
30030000
70030000
58030000
98030000
98430400
187ffe00
18600e00
18600c00
18600c00
18600c00
18600c00
18600c00
18600c00
187ffc00
18600c00
00000000
00000000
ENDCHAR
STARTCHAR 2544
ENCODING 9540
SWIDTH 962 0
DWIDTH 26 0
BBX 26 27 0 -1
BITMAP
00000000
0c038000
0c030000
0c060000
0c060000
180c0000
18880400
18fffe00
18ccce00
30cccc00
30cccc00
70cccc00
58cccc00
d8cccc00
98cccc00
18cccc00
18cccc00
18cccc00
18cccc00
18cccc00
18cccc00
18cccc00
18cccd00
1bffff00
18000000
00000000
00000000
ENDCHAR
STARTCHAR 2545
ENCODING 9541
SWIDTH 962 0
DWIDTH 26 0
BBX 26 27 0 -1
BITMAP
00000000
0701c000
07030000
06140800
061ffc00
0e181c00
0c1a1800
0c199800
1c18d800
1c189800
3c181800
3c181f00
6cfff800
4df81800
8c191800
0c199800
0c199800
0c199800
0c189800
0c109800
0c301800
0c301800
0c201800
0c60f800
0cc03000
00000000
00000000
ENDCHAR
STARTCHAR 2546
ENCODING 9542
SWIDTH 962 0
DWIDTH 26 0
BBX 26 27 0 -1
BITMAP
00000000
06070000
06060000
0c0c0000
0c0c2000
0c081800
18103c00
187fce00
30380600
30030000
70630000
58631800
d87ffc00
98430000
18c30000
18830000
19030000
18030600
19ffff00
18030000
18030000
18030000
18030000
18030000
18030000
00000000
00000000
ENDCHAR
STARTCHAR 2547
ENCODING 9543
SWIDTH 962 0
DWIDTH 26 0
BBX 26 27 0 -1
BITMAP
00000000
0c300000
0e380000
0c300000
18308200
1860ff00
1864c700
39fcc600
306cc600
30ccc600
70ccc600
f0ccc600
b0ccc600
3188c600
3188c600
3188c600
3198c600
33d0c600
3330c600
3038c600
306cc600
3046fe00
3084c600
3100c600
3600c600
00000000
00000000
ENDCHAR
STARTCHAR 2548
ENCODING 9544
SWIDTH 962 0
DWIDTH 26 0
BBX 26 27 0 -1
BITMAP
00000000
0e01c000
0c018000
0c218200
0c3fff00
18600700
18e00600
18c70c00
30060000
38060000
780c0600
d87fff00
180c1800
180c1800
18181800
18183000
18183000
183c6000
18336000
1801c000
1801b000
18030c00
18060600
18180700
18e00300
00000000
00000000
ENDCHAR
STARTCHAR 2549
ENCODING 9545
SWIDTH 962 0
DWIDTH 26 0
BBX 26 27 0 -1
BITMAP
00000000
06038000
06030000
06430200
0effff00
0cc00000
0cc00c00
18c03e00
18c1e000
18df8000
30c18000
30c18000
70c18000
58c18c00
d8dffe00
98c18000
19818000
19818000
19818000
19818000
19818200
19818200
19018300
1b01ff00
1b00fe00
00000000
00000000
ENDCHAR
STARTCHAR 254a
ENCODING 9546
SWIDTH 962 0
DWIDTH 26 0
BBX 26 27 0 -1
BITMAP
00000000
0e000600
0dffff00
0c070000
0c060000
180c0000
180c0000
38880200
30ffff00
70cc6700
d8cc6600
18cc6600
18cc6600
18cc6600
18cc6600
18cc6600
18cc6600
18cc6600
18cc6600
18cc6600
18cc6600
18cc6600
18cc6600
18c85e00
18c00c00
00000000
00000000
ENDCHAR
STARTCHAR 254b
ENCODING 9547
SWIDTH 962 0
DWIDTH 26 0
BBX 26 27 0 -1
BITMAP
00000000
0e0c0000
0c0c0000
0c180800
0c1ffc00
18381c00
18281800
38643000
30463000
78836000
d801c000
1801c000
18036000
18063000
18181c00
18f00f00
183ffe00
18301800
18301800
18301800
18301800
18301800
18301800
183ff800
18301800
00000000
00000000
ENDCHAR
STARTCHAR 254c
ENCODING 9548
SWIDTH 962 0
DWIDTH 26 0
BBX 26 27 0 -1
BITMAP
00000000
07038000
06030000
06068000
06064000
0c0c6000
0c183000
0c301c00
18600f00
3c800600
6c1ff000
8c000000
0c000000
0c000000
0c200400
0c3ffe00
0c300e00
0c300c00
0c300c00
0c300c00
0c300c00
0c300c00
0c3ffc00
0c300c00
0c300c00
00000000
00000000
ENDCHAR
STARTCHAR 254d
ENCODING 9549
SWIDTH 962 0
DWIDTH 26 0
BBX 26 27 0 -1
BITMAP
00000000
20000200
3fffff00
60000600
c0000c00
c8182000
06187000
03186000
0318c000
01998000
01990000
001a0000
3ffffc00
003c0000
007a0000
00fa0000
01d90000
03998000
0618c000
0c187000
18183c00
30181e00
60180c00
c0180000
00180000
00000000
00000000
ENDCHAR
STARTCHAR 254e
ENCODING 9550
SWIDTH 962 0
DWIDTH 26 0
BBX 26 27 0 -1
BITMAP
00000000
00038000
00630000
40630000
30630000
38c30c00
18fffe00
11830000
01030000
0a030000
08030000
08030600
13ffff00
10198000
10198000
30198000
30198000
e0318000
60318200
60318200
60618200
30618200
30c18300
3181ff00
3600fe00
00000000
00000000
ENDCHAR
STARTCHAR 254f
ENCODING 9551
SWIDTH 962 0
DWIDTH 26 0
BBX 26 27 0 -1
BITMAP
00000000
00070000
00060000
c00d0000
600c8000
7018c000
30306000
20603000
00c01c00
01800e00
0a000700
087ff200
08000000
18000000
10000000
30400800
307ffc00
f0601c00
60601800
60601800
60601800
30601800
30601800
307ff800
00601800
00000000
00000000
ENDCHAR
STARTCHAR 2550
ENCODING 9552
SWIDTH 962 0
DWIDTH 26 0
BBX 26 27 0 -1
BITMAP
00000000
00180700
7ffc0600
1831c600
18318600
18318600
18318600
1ff18600
18318600
18318600
18318600
18318600
18318600
1ff18600
18318600
18318600
18318600
18318600
18f18600
1fb18600
7e318600
70300600
00300600
0030fe00
00303c00
00000000
00000000
ENDCHAR
STARTCHAR 2551
ENCODING 9553
SWIDTH 962 0
DWIDTH 26 0
BBX 26 27 0 -1
BITMAP
00000000
03800700
03000600
03000600
03180600
7ffce600
0300c600
0300c600
0300c600
030cc600
fffec600
0000c600
0380c600
0300c600
0300c600
0310c600
7ff8c600
0300c600
0300c600
0300c600
03000600
031c0600
ffe00600
78007e00
00001c00
00000000
00000000
ENDCHAR
STARTCHAR 2552
ENCODING 9554
SWIDTH 962 0
DWIDTH 26 0
BBX 26 27 0 -1
BITMAP
00000000
03800700
03000600
0300e600
060cc600
fffec600
0c80c600
0c60c600
1838c600
301ec600
6fe4c600
8000c600
0000c600
fffcc600
0c00c600
0c00c600
1810c600
1ff8c600
1838c600
0030c600
00300600
00300600
00700600
0fe07e00
01c00c00
00000000
00000000
ENDCHAR
STARTCHAR 2553
ENCODING 9555
SWIDTH 962 0
DWIDTH 26 0
BBX 26 27 0 -1
BITMAP
00000000
03800700
03000600
26100600
3ff80600
30380600
30300600
30318600
3ff18600
30318600
30318600
30318600
3ff18600
30318600
30018600
30018600
31018600
30c18600
30600600
30600600
33b00600
fe300600
70300600
0000fe00
00003c00
00000000
00000000
ENDCHAR
STARTCHAR 2554
ENCODING 9556
SWIDTH 962 0
DWIDTH 26 0
BBX 26 27 0 -1
BITMAP
00000000
1dc00000
19800000
19800400
199ffe00
19818e00
fff18c00
19819e00
19899f00
19998f00
19b58d00
19878d00
19830c00
19830c00
fff30c00
19870c00
19860c00
31840c00
31840c00
318c1800
61881800
61981800
c1903800
81a3f000
0180e000
00000000
00000000
ENDCHAR
STARTCHAR 2555
ENCODING 9557
SWIDTH 962 0
DWIDTH 26 0
BBX 26 27 0 -1
BITMAP
00000000
0700e000
0600c000
0600c000
0600c000
0630c000
fff8c000
0600c200
061fff00
0600c700
0600c600
0620c600
7ff0c600
0000c600
0000c600
40218600
7ff18600
60718600
60630600
60630600
60630600
60660e00
7fe60c00
600cfc00
60303800
00000000
00000000
ENDCHAR
STARTCHAR 2556
ENCODING 9558
SWIDTH 962 0
DWIDTH 26 0
BBX 26 27 0 -1
BITMAP
00000000
07000000
06000000
06000000
0c000200
0fffff00
18000700
10300600
30300600
20300600
44318600
82318600
02310600
03320600
3ffff600
00700600
00fc0600
01b30600
03318600
06318600
08300c00
30300c00
00301c00
0033f800
0000e000
00000000
00000000
ENDCHAR
STARTCHAR 2557
ENCODING 9559
SWIDTH 962 0
DWIDTH 26 0
BBX 26 27 0 -1
BITMAP
00000000
03800000
03000000
03000000
06000200
07ffff00
0c000700
0c000600
1dc00600
19818600
31ffc600
63180600
83180600
06180600
1818c600
07ffe600
00180600
0318c600
0318c600
0318cc00
03ffcc00
0300cc00
00001c00
0003f800
00007000
00000000
00000000
ENDCHAR
STARTCHAR 2558
ENCODING 9560
SWIDTH 962 0
DWIDTH 26 0
BBX 26 27 0 -1
BITMAP
00000000
00000000
fffffe00
c0000000
c0000000
c0380000
c0760000
c0c18000
c1806000
c3003c00
ccffcf00
d0000300
c0000000
c4000800
c7fffc00
c6001c00
c6001800
c6001800
c6001800
c6001800
c7fff800
c6001800
c0000000
ffffff00
7ffffe00
00000000
00000000
ENDCHAR
STARTCHAR 2559
ENCODING 9561
SWIDTH 962 0
DWIDTH 26 0
BBX 26 27 0 -1
BITMAP
00000000
00000400
10000e00
1fffff00
18000000
18700000
18600000
18601000
18fff800
18c30000
19830000
1b030000
1c030000
18030400
19fffe00
30030000
31830c00
31830c00
21830c00
61830c00
61fffc00
41800c00
41800c00
80000000
00000000
00000000
00000000
ENDCHAR
STARTCHAR 255a
ENCODING 9562
SWIDTH 962 0
DWIDTH 26 0
BBX 26 27 0 -1
BITMAP
00000000
10000600
1fffff00
18000000
18001800
19fffc00
181c0000
18180000
18300000
18300000
18602000
18601800
18fffc00
18c30c00
18030000
30030000
30031800
30fffc00
20030000
60030000
60030000
40030000
40030600
87ffff00
00000000
00000000
00000000
ENDCHAR
STARTCHAR 255b
ENCODING 9563
SWIDTH 962 0
DWIDTH 26 0
BBX 26 27 0 -1
BITMAP
00000000
00080000
00060000
00030000
00018e00
82018c00
ff000c00
c70e1800
c60c1800
c60c3000
c60c3000
c60c6000
c62c6400
c66cc200
c6ccc300
c6cd8100
c68f0100
c60e0100
c60c0000
fe1c0800
c63c0800
c0cc0800
030c0c00
000ffc00
0007f800
00000000
00000000
ENDCHAR
STARTCHAR 255c
ENCODING 9564
SWIDTH 962 0
DWIDTH 26 0
BBX 26 27 0 -1
BITMAP
00000000
00038000
00030000
00030000
00030000
82031800
ff7ffc00
c7030000
c6030000
c6030000
c6030000
c6030c00
c6fffe00
c6070000
c6060000
c6060000
c60c2000
c60c1000
c6080800
fe180c00
c6100600
c0207e00
01ff8700
00f00300
00000300
00000000
00000000
ENDCHAR
STARTCHAR 255d
ENCODING 9565
SWIDTH 962 0
DWIDTH 26 0
BBX 26 27 0 -1
BITMAP
00000000
000e1c00
000c1800
000c1800
000c1800
000c1800
000c1a00
ff3fff00
c30c1800
c30c1800
c30c1800
c30c1800
c30c1800
c30c1800
c30ff800
c30c1800
c30c1800
c30c1800
c30c1800
c30c1800
c30c1800
c30c1800
ff0ff800
000c1800
000c1800
00000000
00000000
ENDCHAR
STARTCHAR 255e
ENCODING 9566
SWIDTH 962 0
DWIDTH 26 0
BBX 26 27 0 -1
BITMAP
00000000
001c0000
00180000
00180200
0019ff00
c4181800
feff1800
ce181800
cc181800
cc181800
cc181800
cc181800
cc181800
cc1a1800
cc1c1800
ccf81800
ccd81800
cc181800
fc181800
cc181800
c0181800
00181800
00181800
00f8f800
00303000
00000000
00000000
ENDCHAR
STARTCHAR 255f
ENCODING 9567
SWIDTH 962 0
DWIDTH 26 0
BBX 26 27 0 -1
BITMAP
00000000
00800600
00ffff00
82c00000
fec0e000
c6c0c000
c6c0c000
c6c0c000
c6c8c400
c6cffe00
c6ccce00
c6cccc00
c6cccc00
c6cccc00
c6cccc00
c6ccdc00
c6c0c800
c6c0c000
fec0c000
c6c0c000
c0c0c000
c0c0c000
00c00600
00ffff00
00c00000
00000000
00000000
ENDCHAR
STARTCHAR 2560
ENCODING 9568
SWIDTH 962 0
DWIDTH 26 0
BBX 26 27 0 -1
BITMAP
00000000
00077000
00066000
00066200
827fff00
ff066700
c7066600
c6066600
c6066600
c67ffe00
c6666000
c6666000
c6c66000
c6c66100
c6ffff00
c6c66300
c6066300
c60c6300
c60c6300
c60c6600
fe187e00
c6186400
c0306000
00406000
00006000
00000000
00000000
ENDCHAR
STARTCHAR 2561
ENCODING 9569
SWIDTH 962 0
DWIDTH 26 0
BBX 26 27 0 -1
BITMAP
00000000
0001c000
00018000
41018000
7f818000
63818000
63018c00
6301fe00
63018000
63018000
63018000
63018000
63018000
63218400
633ffe00
63300e00
63300c00
63300c00
63300c00
63300c00
7f300c00
63300c00
60300c00
003ffc00
00300c00
00000000
00000000
ENDCHAR
STARTCHAR 2562
ENCODING 9570
SWIDTH 962 0
DWIDTH 26 0
BBX 26 27 0 -1
BITMAP
00000000
00200200
003fff00
00300700
00300600
c2300600
ff300600
c73ffe00
c6300600
c6000000
c6000000
c67fff00
c60c0000
c60c0000
c6180200
c61fff00
c6300700
c6300600
c6600600
fe000600
c6000c00
c0000c00
00001c00
0007f800
0000f000
00000000
00000000
ENDCHAR
STARTCHAR 2563
ENCODING 9571
SWIDTH 962 0
DWIDTH 26 0
BBX 26 27 0 -1
BITMAP
00000000
00000000
00400800
827ffc00
ff601c00
c7601800
c6601800
c6601800
c6601800
c6601800
c67ff800
c6601800
c6601800
c6601800
c6601800
c6601800
c6601800
c67ff800
c6601800
c6000000
fe000000
c6000600
c1ffff00
00000000
00000000
00000000
00000000
ENDCHAR
STARTCHAR 2564
ENCODING 9572
SWIDTH 962 0
DWIDTH 26 0
BBX 26 27 0 -1
BITMAP
00000000
0001c000
00018000
82018000
ff218400
c73ffe00
c6318e00
c6318c00
c6318c00
c6318c00
c63ffc00
c6318c00
c6318c00
c6318c00
c6318d00
c6ffff00
c6300c00
c6300c00
c6300c00
c6300c00
fe300c00
c6300c00
c0300c00
00303c00
00301800
00000000
00000000
ENDCHAR
STARTCHAR 2565
ENCODING 9573
SWIDTH 962 0
DWIDTH 26 0
BBX 26 27 0 -1
BITMAP
00000000
00000000
00800100
82ffff00
fec66300
c6c66300
c6c66300
c6c66300
c6c66300
c6c66300
c6c66300
c6c66300
c6c66b00
c6c66b00
c6cc6b00
c6cc6b00
c6cc7b00
c6d83300
c6e00300
c6c00300
fec00300
c6c00300
c0ffff00
00c00300
00c00300
00000000
00000000
ENDCHAR
STARTCHAR 2566
ENCODING 9574
SWIDTH 962 0
DWIDTH 26 0
BBX 26 27 0 -1
BITMAP
00000000
000c0000
000c0000
00180000
00180000
00300200
ff3fff00
c3600700
c3400600
c3800600
c31fc600
c318c600
c318c600
c318c600
c318c600
c318c600
c318c600
c31fc600
c3180600
c3180600
ff000600
00000c00
00001c00
0001f800
00007000
00000000
00000000
ENDCHAR
STARTCHAR 2567
ENCODING 9575
SWIDTH 962 0
DWIDTH 26 0
BBX 26 27 0 -1
BITMAP
00000000
00187000
00186000
84186000
fe306000
ce306200
cc21ff00
cc666700
cc466600
cc866600
cc8c6600
cc4c6600
cc686600
cc386600
cc106600
cc306600
cc20c600
cc48c600
cc44c600
cc9d8600
ffe78600
cd830600
c0060e00
000c7c00
00301800
00000000
00000000
ENDCHAR
STARTCHAR 2568
ENCODING 9576
SWIDTH 962 0
DWIDTH 26 0
BBX 26 27 0 -1
BITMAP
00000000
00038000
00030000
82030000
ff030000
c7060000
c6062000
c60c1800
c6180c00
c6203e00
c6ffe600
c67c0600
c6000000
c6000000
c6200400
c63ffe00
c6300e00
c6300c00
c6300c00
c6300c00
fe300c00
c6300c00
c0300c00
003ffc00
00300c00
00000000
00000000
ENDCHAR
STARTCHAR 2569
ENCODING 9577
SWIDTH 962 0
DWIDTH 26 0
BBX 26 27 0 -1
BITMAP
00000000
00000000
00000200
007ffe00
c6018000
fe018000
cc018000
cc199000
cc198800
cc318c00
cc318600
cc618700
cc418300
cc818300
cd018000
cc018200
cdfffe00
cc018000
cc018000
fc018000
cc018000
00018000
00018000
00018000
00018000
00000000
00000000
ENDCHAR
STARTCHAR 256a
ENCODING 9578
SWIDTH 962 0
DWIDTH 26 0
BBX 26 27 0 -1
BITMAP
00000000
00000000
00800800
c6fffc00
fec01c00
c6c01800
c6c01800
c6c01800
c6fff800
c6c19800
c6c18000
c6c18000
c6c18600
c6ffff00
c6c18000
c6c18000
c6c0c000
c6c0c000
c6c0c100
c6c06100
fec06100
c6c3b100
01fc1900
01f00f00
01000600
00000000
00000000
ENDCHAR
STARTCHAR 256b
ENCODING 9579
SWIDTH 962 0
DWIDTH 26 0
BBX 26 27 0 -1
BITMAP
00000000
00038000
00030000
cc030000
fc030000
cc030000
cc030600
cdffff00
cc070000
cc078000
cc0f8000
cc0f4000
cc1b4000
cc1b2000
cc333000
cc331800
cc630c00
ccc30700
cd830700
cf3ff200
cc030000
fc030000
cc030000
00030000
00030000
00000000
00000000
ENDCHAR
STARTCHAR 256c
ENCODING 9580
SWIDTH 962 0
DWIDTH 26 0
BBX 26 27 0 -1
BITMAP
00000000
00038000
00030000
cc030300
fcffff00
cc060000
cc0c0000
cc0ce000
cc18c000
cc18c100
cc3fff00
cc30c300
cc70c300
ccf0c300
ccb0c300
cd30c300
cc30c300
cc30c300
cc30c300
cc30c300
cc30df00
fc30c600
cc00c000
0000c000
0000c000
00000000
00000000
ENDCHAR
STARTCHAR 256d
ENCODING 9581
SWIDTH 962 0
DWIDTH 26 0
BBX 26 27 0 -1
BITMAP
00000000
00000000
00200400
cc3ffe00
fc300e00
cc300c00
cc330c00
cc318c00
cc30cc00
cc608c00
cc600d00
cdffff00
cc601800
cc601800
cc661800
cc631800
ccc19800
ccc19800
ccc01800
ccc01900
ccffff00
ccc01800
fc003800
cc07f000
0001e000
00000000
00000000
ENDCHAR
STARTCHAR 256e
ENCODING 9582
SWIDTH 962 0
DWIDTH 26 0
BBX 26 27 0 -1
BITMAP
00000000
00001800
0021fc00
823f8000
ff318000
c7318000
c6318000
c6318000
c6318000
c6318c00
c63ffe00
c630c000
c630c000
c630c000
c630c000
c6306000
c6306000
c630e000
c6333100
c6fc3100
fe601900
c6001d00
c0008f00
007fc600
00000000
00000000
00000000
ENDCHAR
STARTCHAR 256f
ENCODING 9583
SWIDTH 962 0
DWIDTH 26 0
BBX 26 27 0 -1
BITMAP
00000000
00070000
c6070000
fe0c8000
c60cc000
c6186000
c6183000
c6301c00
c6600f00
c6400200
c69ff000
c6000000
c6000000
c6000400
c67ffe00
c6000e00
c6000c00
c6001800
c6303000
c638e000
c61b8000
c60e0000
fe03c000
c601e000
00007000
00000000
00000000
ENDCHAR
STARTCHAR 2570
ENCODING 9584
SWIDTH 962 0
DWIDTH 26 0
BBX 26 27 0 -1
BITMAP
00000000
80000100
ffffff00
c0000300
c0000300
c0000300
c0030300
c00f8300
c3f80300
c0180300
c0181b00
dffffb00
c07c0300
c0fa0300
c1d98300
c318e300
c6187300
d8183b00
c0180300
c0180300
c0780300
c0300300
c0000300
ffffff00
c0000300
00000000
00000000
ENDCHAR
STARTCHAR 2571
ENCODING 9585
SWIDTH 962 0
DWIDTH 26 0
BBX 26 27 0 -1
BITMAP
00000000
40000200
7fffff00
60300700
60380600
60640600
60660600
60c30600
61818600
6300e600
660c7e00
78fe1600
60000600
60008600
67ffc600
6001c600
60018600
60630600
60330600
601e0600
600c0600
600c0600
60040600
7ffffe00
60000600
00000000
00000000
ENDCHAR
STARTCHAR 2572
ENCODING 9586
SWIDTH 962 0
DWIDTH 26 0
BBX 26 27 0 -1
BITMAP
00000000
00000600
003fff00
0e006000
0c006000
0c00c000
0c00c000
0c018000
0c018000
0d038000
7f87e000
0c0d9800
0c198c00
0c318600
0cc18700
0c018200
0c018000
0c018000
0c418000
0d818000
0e018000
7c018000
e0000600
407fff00
00000000
00000000
00000000
ENDCHAR
STARTCHAR 2573
ENCODING 9587
SWIDTH 962 0
DWIDTH 26 0
BBX 26 27 0 -1
BITMAP
00000000
181ce000
1818c000
1818c400
19fffe00
1818ce00
1818cc00
1818cc00
f818cc00
19fffc00
1998cc00
1998c000
1b18c000
1b18c200
1bffff00
1b18c700
1c18c600
f830c600
e030c600
4030de00
0060cc00
0060c000
00c0c000
0180c000
0600c000
00000000
00000000
ENDCHAR
STARTCHAR 2574
ENCODING 9588
SWIDTH 962 0
DWIDTH 26 0
BBX 26 27 0 -1
BITMAP
00000000
1c800400
18fffe00
18c00e00
18c00c00
18c00c00
18c00c00
1ac00c00
fffffc00
18c00c00
18c00000
18ce0000
18cc0000
18cc0000
18cc0000
18cc0c00
1bcffe00
1f8c0000
1d8c0000
f18c0200
e10c0200
430c0200
020c0300
040fff00
0007fe00
00000000
00000000
ENDCHAR
STARTCHAR 2575
ENCODING 9589
SWIDTH 962 0
DWIDTH 26 0
BBX 26 27 0 -1
BITMAP
00000000
1c038000
18030000
18030000
18030000
18030000
18030600
1a03ff00
ff030000
18030000
18030000
18030000
18030000
18030200
183fff00
18300700
1b300600
1e300600
1c300600
f0300600
e0300600
40300600
00300600
003ffe00
00300600
00000000
00000000
ENDCHAR
STARTCHAR 2576
ENCODING 9590
SWIDTH 962 0
DWIDTH 26 0
BBX 26 27 0 -1
BITMAP
00000000
1c070000
18060000
18060000
18060000
18860800
18fffc00
1ac61c00
ffc61800
18c61800
18c61800
18c61800
18c61800
18c61800
18c61a00
1bffff00
1b0d0000
1e0d0000
1c188000
f018c000
e0306000
40603000
00c01c00
01800f00
06000600
00000000
00000000
ENDCHAR
STARTCHAR 2577
ENCODING 9591
SWIDTH 962 0
DWIDTH 26 0
BBX 26 27 0 -1
BITMAP
00000000
0e200200
0c3fff00
0c300700
0c300600
0c300600
0c300600
fff22600
0c33e600
0c322600
0c322600
0c322600
0c322600
0c322600
0c322600
0c322600
0c322600
0c73e600
0fb22600
7e320600
70300600
20300600
00300600
00307e00
00301c00
00000000
00000000
ENDCHAR
STARTCHAR 2578
ENCODING 9592
SWIDTH 962 0
DWIDTH 26 0
BBX 26 27 0 -1
BITMAP
00000000
1c100400
181ffe00
18180e00
18180c00
181b0c00
18198c00
1a18cc00
ff308c00
18300c00
18ffff00
18300c00
18300c00
18320c00
18318c00
1860cc00
1b60cc00
1e600c00
1c600d00
f07fff00
e0601800
40001800
00003800
0003f000
0000e000
00000000
00000000
ENDCHAR
STARTCHAR 2579
ENCODING 9593
SWIDTH 962 0
DWIDTH 26 0
BBX 26 27 0 -1
BITMAP
00000000
1c001c00
1803fe00
187fe000
18030000
18030000
18830c00
1a430c00
ff230c00
18331800
181b1000
18132000
18030000
18030600
187fff00
18030000
1b030000
1e030000
1c030000
f0030000
e0030000
40030000
00030000
003f0000
000e0000
00000000
00000000
ENDCHAR
STARTCHAR 257a
ENCODING 9594
SWIDTH 962 0
DWIDTH 26 0
BBX 26 27 0 -1
BITMAP
00000000
0e000c00
0c087e00
0c0fc000
0c0c0000
0c0c0000
0c0c0000
0c8c0000
ffcc0600
0c0fff00
0c0c3000
0c0c3000
0c0c3000
0c0c3000
0c0c3000
0c0c3000
0c0c3000
0c0c3000
0c0c3000
0d8c3000
0e0c3f00
fc0ff800
f03f8000
00180000
00000000
00000000
00000000
ENDCHAR
STARTCHAR 257b
ENCODING 9595
SWIDTH 962 0
DWIDTH 26 0
BBX 26 27 0 -1
BITMAP
00000000
00000c00
00003e00
0040f800
1c7fc000
1860c000
1860c000
1860c000
1860c000
1860c000
1a60c600
ff7fff00
1860c000
1860c000
1860c000
18606000
18606000
18606200
18633200
1f7c3200
1cf01a00
78401b00
e0018f00
407fc700
00000200
00000000
00000000
ENDCHAR
STARTCHAR 257c
ENCODING 9596
SWIDTH 962 0
DWIDTH 26 0
BBX 26 27 0 -1
BITMAP
00000000
1c187000
18186000
18186000
18306000
18306200
1921ff00
ff666700
18466600
18866600
188c6600
184c6600
18686600
18386600
18106600
18306600
1820c600
1848c600
1f44c600
fc9d8600
e3e78600
41830600
00060e00
000c7c00
00301800
00000000
00000000
ENDCHAR
STARTCHAR 257d
ENCODING 9597
SWIDTH 962 0
DWIDTH 26 0
BBX 26 27 0 -1
BITMAP
00000000
001c0000
00180000
00183000
1ffff800
00180000
00180400
00180e00
ffffff00
00c30000
00c30000
01830200
01830300
0303ff00
0601fe00
381c0000
00180000
00183000
1ffff800
00180000
00180000
00180000
00180600
ffffff00
00000000
00000000
00000000
ENDCHAR
STARTCHAR 257e
ENCODING 9598
SWIDTH 962 0
DWIDTH 26 0
BBX 26 27 0 -1
BITMAP
00000000
0001c000
00218400
0e318e00
0c318c00
0c199800
0c1d9800
0c09a000
0d018000
7f818c00
0c3ffe00
0c018000
0c018000
0c018000
0c018000
0c018600
0c7fff00
0c018000
0c818000
0f018000
fc018000
78018000
00018000
00018000
00018000
00000000
00000000
ENDCHAR
STARTCHAR 2621
ENCODING 9761
SWIDTH 962 0
DWIDTH 26 0
BBX 26 27 0 -1
BITMAP
00000000
1c01c000
18018000
18018000
18418200
187fff00
18c00700
1ac00600
ff000c00
180e0000
180c0000
180c0000
180c0000
180c0000
180c0c00
180ffe00
180c0000
180c0000
198c0200
1e0c0200
f80c0200
e00c0300
000c0300
000fff00
0007fe00
00000000
00000000
ENDCHAR
STARTCHAR 2622
ENCODING 9762
SWIDTH 962 0
DWIDTH 26 0
BBX 26 27 0 -1
BITMAP
00000000
1c038000
18038000
18064000
18066000
180c3000
180c1800
1a180e00
ff300700
18200200
184ff800
18000000
18000000
18000400
181ffe00
18000e00
18800c00
1b000c00
1c001800
f8083000
e00e7000
4007c000
00030000
00018000
00008000
00000000
00000000
ENDCHAR
STARTCHAR 2623
ENCODING 9763
SWIDTH 962 0
DWIDTH 26 0
BBX 26 27 0 -1
BITMAP
00000000
001c0000
00180000
00186000
0ffff000
00180000
00180000
00180600
ffffff00
03018000
03018000
06018200
0c018300
19c1ff00
60c0fe00
01800000
03ffc000
0600c000
09018000
11838000
00ee0000
003c0000
00e78000
0381e000
1e007e00
00000000
00000000
ENDCHAR
STARTCHAR 2624
ENCODING 9764
SWIDTH 962 0
DWIDTH 26 0
BBX 26 27 0 -1
BITMAP
00000000
00380000
00300000
00600000
00600600
ffffff00
01810000
03008000
06006000
0c003000
18001c00
31882f00
e7cff600
3c0c1800
21cc1800
218c1800
218c1800
218c1800
218c1800
378c1800
fb0c1800
e30c1800
020c7800
060c3000
1c0c0000
00000000
00000000
ENDCHAR
STARTCHAR 2625
ENCODING 9765
SWIDTH 962 0
DWIDTH 26 0
BBX 26 27 0 -1
BITMAP
00000000
0e060000
0c018000
0c00e000
0c006000
0c800300
ffdfff00
19c0c000
1980c000
1980c000
1980c000
3180c000
3180c000
3180c600
318fff00
6300c000
7300c000
6e00c000
0700c000
0d80c000
0cc0c000
18c0c000
3000c300
607fff00
80000000
00000000
00000000
ENDCHAR
STARTCHAR 2626
ENCODING 9766
SWIDTH 962 0
DWIDTH 26 0
BBX 26 27 0 -1
BITMAP
00000000
0e01c000
0c018000
0c018000
0c018000
18018600
18bfff00
ffc18000
19818000
31818000
31818c00
319ffe00
63018000
6303c000
6303c000
e307a000
d605b000
0e0d9800
0e098800
0b198c00
19918600
11a18700
20418200
40018000
80018000
00000000
00000000
ENDCHAR
STARTCHAR 2627
ENCODING 9767
SWIDTH 962 0
DWIDTH 26 0
BBX 26 27 0 -1
BITMAP
00000000
0e0e1c00
0c0c1800
0c0c1800
0c0c1800
0c8c1800
ffcc1900
19ffff00
198c1800
198c1800
318c1800
318c1800
318c1800
318c1800
630ff800
7b0c1800
670c1800
030c1800
078c1800
0ccc1800
0c6c1800
184c1800
300ff800
600c1800
800c1800
00000000
00000000
ENDCHAR
STARTCHAR 2628
ENCODING 9768
SWIDTH 962 0
DWIDTH 26 0
BBX 26 27 0 -1
BITMAP
00000000
1c01c000
18018000
18018000
18018000
19218400
ffbffe00
1bb18e00
1b318c00
33318c00
33318c00
33318c00
33318c00
63318c00
67318d00
76ffff00
6c038000
0e068000
1b064000
1b8c6000
31183000
60301800
40600e00
81800700
06000200
00000000
00000000
ENDCHAR
STARTCHAR 2629
ENCODING 9769
SWIDTH 962 0
DWIDTH 26 0
BBX 26 27 0 -1
BITMAP
00000000
0e000000
0c100400
0c1ffe00
0c180e00
18180c00
18980c00
ffd80c00
19d80c00
19980c00
319ffc00
31980c00
31980c00
31980c00
61980c00
61180c00
63180c00
7a180c00
661ffc00
07180c00
0d800000
18800000
10000600
20ffff00
c0000000
00000000
00000000
ENDCHAR
STARTCHAR 262a
ENCODING 9770
SWIDTH 962 0
DWIDTH 26 0
BBX 26 27 0 -1
BITMAP
00000000
0e01c000
0c018000
0c018000
0c018000
0c918400
ffdffe00
19d98c00
19998c00
19998c00
19998c00
319ffc00
31998c00
31998c00
31998c00
63198e00
73ffff00
6e180c00
07180c00
0d980c00
0cd80c00
18d80c00
30180c00
6018fc00
80183800
00000000
00000000
ENDCHAR
STARTCHAR 262b
ENCODING 9771
SWIDTH 962 0
DWIDTH 26 0
BBX 26 27 0 -1
BITMAP
00000000
1c0c0000
180e0000
180c0000
18180000
19180200
ffbfff00
33b00700
33200600
33404600
639fe600
6318e600
6318c600
6318c600
c618c600
f618c600
ce18c600
061fc600
0f18c600
19980600
18c00e00
30800c00
60001c00
4003f800
8000f000
00000000
00000000
ENDCHAR
STARTCHAR 262c
ENCODING 9772
SWIDTH 962 0
DWIDTH 26 0
BBX 26 27 0 -1
BITMAP
00000000
1c00e000
1800c000
1800c000
1800c000
1900c600
ffbfff00
33818000
3301c000
33018000
33031800
63031c00
63161800
630c3000
63063000
73036000
6e026000
0700c000
0d818000
0cc30800
18c20c00
10040600
20083e00
403fc700
803e0300
00000000
00000000
ENDCHAR
STARTCHAR 262d
ENCODING 9773
SWIDTH 962 0
DWIDTH 26 0
BBX 26 27 0 -1
BITMAP
00000000
1c000000
18020000
18038000
1801ce00
3100cc00
ffc00c00
31871800
31861800
31863000
61863000
61866000
63066000
6326c600
6326c300
d6678300
ce670100
06460000
0f4e0000
0d9e0800
19b60800
18460800
30060c00
6007fc00
8003f800
00000000
00000000
ENDCHAR
STARTCHAR 262e
ENCODING 9774
SWIDTH 962 0
DWIDTH 26 0
BBX 26 27 0 -1
BITMAP
00000000
18000000
18000600
187fff00
1800c000
3100c000
ff80c000
3300c000
3300c000
3300c000
6300c000
6300cc00
631cfe00
c618c000
c618c000
c618c000
f618c000
cc18c000
0b18c000
1998c000
1998c000
3018c000
2018c600
407fff00
80000000
00000000
00000000
ENDCHAR
STARTCHAR 262f
ENCODING 9775
SWIDTH 962 0
DWIDTH 26 0
BBX 26 27 0 -1
BITMAP
00000000
1c000000
18100600
181fff00
18180000
31180000
ff980000
33180000
33180400
331ffe00
63180e00
63180c00
63180c00
63180c00
63180c00
d61ffc00
ce180c00
06180000
0f180000
0d980000
19980000
18180600
301fff00
60180000
80180000
00000000
00000000
ENDCHAR
STARTCHAR 2630
ENCODING 9776
SWIDTH 962 0
DWIDTH 26 0
BBX 26 27 0 -1
BITMAP
00000000
0e000000
0c000100
0c1fff00
18030300
18030300
18830300
ffc30300
31c60300
31860300
31860300
31840700
718c7e00
61980c00
61b00000
d3480100
db0fff00
0e0c0300
060c0300
0f0c0300
0d8c0300
19cc0300
308c0300
600fff00
800c0300
00000000
00000000
ENDCHAR
STARTCHAR 2631
ENCODING 9777
SWIDTH 962 0
DWIDTH 26 0
BBX 26 27 0 -1
BITMAP
00000000
0e000000
0c00e000
0c00c000
0c00c000
1800c000
1880c000
ffd0c200
199fff00
1998c700
3198c600
3198c600
319ffe00
3198c600
6198c600
6118c600
631ffe00
7a18c600
6600c000
0700c000
0d80c000
1880c000
1000c000
2000c000
c000c000
00000000
00000000
ENDCHAR
STARTCHAR 2632
ENCODING 9778
SWIDTH 962 0
DWIDTH 26 0
BBX 26 27 0 -1
BITMAP
00000000
1c000000
18001800
18003c00
1800e000
188fc000
ffc0c000
3180c000
3180c000
3180c000
6180c600
61bfff00
6300c000
6301c000
e303f000
db06d800
0e0ccc00
0618c600
0f60c700
0d80c200
18c0c000
3080c000
4000c000
8000c000
00008000
00000000
00000000
ENDCHAR
STARTCHAR 2633
ENCODING 9779
SWIDTH 962 0
DWIDTH 26 0
BBX 26 27 0 -1
BITMAP
00000000
38070000
30070000
300c8000
300cc000
31186000
ff983000
33301c00
33600f00
23404200
638fe000
63000000
66000000
66000400
c67ffe00
e6000e00
dc000c00
0e001800
1b181800
198c3000
31066000
6003c000
80018000
00018000
00008000
00000000
00000000
ENDCHAR
STARTCHAR 2634
ENCODING 9780
SWIDTH 962 0
DWIDTH 26 0
BBX 26 27 0 -1
BITMAP
00000000
1c040400
1827fe00
1ff60e00
30760c00
78660c00
4cc60c00
86c6fc00
01861800
03060200
06060300
1c07ff00
e003fe00
00e00000
00c00600
ffffff00
0300c000
06018000
07830000
0c7e0000
000f8000
0038e000
00e03800
07801c00
78000c00
00000000
00000000
ENDCHAR
STARTCHAR 2635
ENCODING 9781
SWIDTH 962 0
DWIDTH 26 0
BBX 26 27 0 -1
BITMAP
00000000
00e03800
01c03000
07003200
3e7fff00
ec003000
0c003000
0c0c3000
0c063000
0c023000
0c003000
0c01f000
0c386000
00700000
00600600
ffffff00
0180c000
0301c000
06018000
0ffb0000
0c078000
001ce000
00703800
03c00e00
7c000600
00000000
00000000
ENDCHAR
STARTCHAR 2636
ENCODING 9782
SWIDTH 962 0
DWIDTH 26 0
BBX 26 27 0 -1
BITMAP
00000000
00060000
00060000
008c0000
ffcc0200
00dfff00
01980700
03300600
06400600
18a04600
0c3fe600
0c30e600
0c30c600
0d30cc00
ffb0cc00
0c3fcc00
0c301c00
0c31f800
0c307000
0c300000
0c300200
0c300200
0c300300
7c3fff00
181ffe00
00000000
00000000
ENDCHAR
STARTCHAR 2637
ENCODING 9783
SWIDTH 962 0
DWIDTH 26 0
BBX 26 27 0 -1
BITMAP
00000000
06000000
06000800
0c5ffc00
ffe41c00
18c41800
18c23000
31833000
3d81e000
3300c000
07e1e000
0c663800
18181f00
37ffe600
c000c000
00038000
001e0000
00180600
ffffff00
00180000
00180000
00180000
00180000
03f80000
00700000
00000000
00000000
ENDCHAR
STARTCHAR 2638
ENCODING 9784
SWIDTH 962 0
DWIDTH 26 0
BBX 26 27 0 -1
BITMAP
00000000
001c0000
00180000
00180000
20180200
3fffff00
60000700
e0300600
601c0c00
000e7000
03846000
0300c000
0300c000
03019800
13018e00
13030700
33060200
730c0000
f3380400
e3e00400
0f800600
71c00e00
00fffc00
003ff800
00000000
00000000
00000000
ENDCHAR
STARTCHAR 2639
ENCODING 9785
SWIDTH 962 0
DWIDTH 26 0
BBX 26 27 0 -1
BITMAP
00000000
001c0000
00180000
20180400
3ffffe00
60000700
c0000c00
c0000000
00000600
ffffff00
00600000
00600000
00c00000
00c00000
01800000
01800800
03fffc00
07801c00
0d801800
19801800
31801800
c1801800
01801800
01fff800
01801800
00000000
00000000
ENDCHAR
STARTCHAR 263a
ENCODING 9786
SWIDTH 962 0
DWIDTH 26 0
BBX 26 27 0 -1
BITMAP
00000000
10000200
1fffff00
18000700
18000600
18000600
18000600
1ffffe00
18000600
18070000
18060000
19060800
19fffc00
1b001c00
1b009800
1a389000
18308000
3030c000
30604000
20606000
20c02000
61803000
c3001c00
86000700
08000300
00000000
00000000
ENDCHAR
STARTCHAR 263b
ENCODING 9787
SWIDTH 962 0
DWIDTH 26 0
BBX 26 27 0 -1
BITMAP
00000000
10000200
1fffff00
18000700
18000600
18000600
18000600
1ffffe00
18000600
18000000
1a000400
1bfffe00
1b060e00
1b060c00
33060c00
33060c00
33060c00
23fffc00
63060c00
63060c00
43060c00
c3060c00
83060c00
83fffc00
03000c00
00000000
00000000
ENDCHAR
STARTCHAR 263c
ENCODING 9788
SWIDTH 962 0
DWIDTH 26 0
BBX 26 27 0 -1
BITMAP
00000000
0e00e000
0c00c000
0c00c000
0c10c200
0c1fff00
ccb00300
ccb00600
ccb70400
cc860000
cc860000
cc860000
cc860c00
cc87fe00
cc860000
cc860000
cc860000
cc860000
cc860200
ff860200
c0060200
00060200
00060300
0007ff00
0003fe00
00000000
00000000
ENDCHAR
STARTCHAR 263d
ENCODING 9789
SWIDTH 962 0
DWIDTH 26 0
BBX 26 27 0 -1
BITMAP
00000000
00000000
0000e000
0e00c000
0c00c000
0c10c200
0c1fff00
0c300300
0c300600
0c00c400
ece04000
ccc06000
ccc66000
ccc66000
ccc66000
ccc62000
ccc43000
cccc3000
cccc3000
ffc81000
c0d81800
c0d01800
00300c00
00200e00
00400700
00000000
00000000
ENDCHAR
STARTCHAR 263e
ENCODING 9790
SWIDTH 962 0
DWIDTH 26 0
BBX 26 27 0 -1
BITMAP
00000000
00000000
00000600
18ffff00
18300000
18300000
99300000
99300000
99300400
993ffe00
99300e00
99300c00
99300c00
99300c00
99300c00
99300c00
993ffc00
99300c00
99300000
ff300000
81300000
80300000
00300600
01ffff00
00000000
00000000
00000000
ENDCHAR
STARTCHAR 263f
ENCODING 9791
SWIDTH 962 0
DWIDTH 26 0
BBX 26 27 0 -1
BITMAP
00000000
0e00e000
0c00c000
0c00c000
0c00c000
ccc0c000
cc80c300
cc9fff00
cc80c000
cc80c000
cc80c000
cc80c000
cc90c200
cc9fff00
cc980700
cc980600
cc980600
cc980600
cc980600
ff980600
c0980600
c0180600
001ffe00
00180600
00180600
00000000
00000000
ENDCHAR
STARTCHAR 2640
ENCODING 9792
SWIDTH 962 0
DWIDTH 26 0
BBX 26 27 0 -1
BITMAP
00000000
0e000600
0c1fff00
0c003000
0c003000
0c006000
ccc06000
ccc0c000
ccc0c000
ccc1c000
ccc3f000
ccc6d800
cccccc00
ccf0c600
ccc0c700
ccc0c200
ccc0c000
ccc0c000
ccc0c000
ffc0c000
c0c0c000
c0c00000
00000600
003fff00
00000000
00000000
00000000
ENDCHAR
STARTCHAR 2641
ENCODING 9793
SWIDTH 962 0
DWIDTH 26 0
BBX 26 27 0 -1
BITMAP
00000000
0e000000
0c080800
0c0ffc00
0c0c1c00
0c0c1800
cccc1800
cccc1800
cccc1800
cccff800
cccc1800
cccc1800
cccc1800
cccc1800
cccc1800
cccc1800
cccff800
cccc1800
ffcc1800
c0cc1800
c0cc1800
c00c1800
000c1900
01ffff00
00000000
00000000
00000000
ENDCHAR
STARTCHAR 2642
ENCODING 9794
SWIDTH 962 0
DWIDTH 26 0
BBX 26 27 0 -1
BITMAP
00000000
0e100200
0c1fff00
0c18c700
0c18c600
cc98c600
cc98c600
cc98c600
cc98c600
cc9ffe00
cc98c600
cc98c600
cc98c600
cc98c600
cc98c600
cc98c600
cc9ffe00
cc98c600
ff80c000
c080c000
c000c000
0000c000
0000c000
0000c000
0000c000
00000000
00000000
ENDCHAR
STARTCHAR 2643
ENCODING 9795
SWIDTH 962 0
DWIDTH 26 0
BBX 26 27 0 -1
BITMAP
00000000
0e00e000
0c00c000
0c00c000
0c00c000
0c00c400
cccffe00
ccccce00
cccccc00
cccccc00
cccccc00
cccccc00
cccccc00
cccccd00
ccffff00
ccc0c000
ccc1a000
ccc1a000
ffc1a000
c0c31000
c0031800
00060c00
000c0e00
00180700
00600200
00000000
00000000
ENDCHAR
STARTCHAR 2644
ENCODING 9796
SWIDTH 962 0
DWIDTH 26 0
BBX 26 27 0 -1
BITMAP
00000000
1c0c0000
180e0000
180c0000
18180000
18180200
993fff00
99300700
99200600
99404600
999fe600
9918e600
9918c600
9918c600
9918c600
9918c600
9918c600
991fc600
ff18c600
80180600
80000e00
00000c00
00001c00
0003f800
0000f000
00000000
00000000
ENDCHAR
STARTCHAR 2645
ENCODING 9797
SWIDTH 962 0
DWIDTH 26 0
BBX 26 27 0 -1
BITMAP
00000000
1c038000
18030000
18068000
18064000
180c6000
990c3000
99181800
99300c00
99602600
999ff300
99000000
99000000
99000400
993ffe00
99000e00
99000c00
99001800
99001800
ff003000
81086000
800cc000
00070000
00038000
00010000
00000000
00000000
ENDCHAR
STARTCHAR 2646
ENCODING 9798
SWIDTH 962 0
DWIDTH 26 0
BBX 26 27 0 -1
BITMAP
00000000
001c0000
00180000
1c181c00
18181800
18181800
18181800
18181800
1ffff800
18001800
00000000
00000600
ffffff00
00003000
00003000
0ffc3000
0c1c3000
0c183000
0c183000
0c183000
0ff83000
0c183000
0c003000
0003f000
00006000
00000000
00000000
ENDCHAR
STARTCHAR 2647
ENCODING 9799
SWIDTH 962 0
DWIDTH 26 0
BBX 26 27 0 -1
BITMAP
00000000
001c0000
00180000
1c181c00
18181800
18181800
18181800
18181800
1ffff800
18001800
00000000
01838000
01830800
7ffffc00
01831800
01831800
3ffff800
31830000
31830000
7ffffe00
63030e00
03030c00
06030c00
0c037c00
70031800
00000000
00000000
ENDCHAR
STARTCHAR 2648
ENCODING 9800
SWIDTH 962 0
DWIDTH 26 0
BBX 26 27 0 -1
BITMAP
00000000
001c0000
00180000
38180e00
30180c00
30180c00
30180c00
3ffffc00
30000c00
00000000
1ffff800
00603800
00603000
00c03000
01807000
060fe000
3803c000
10001000
1ffff800
18003800
18003000
18003000
18003000
1ffff000
18003000
00000000
00000000
ENDCHAR
STARTCHAR 2649
ENCODING 9801
SWIDTH 962 0
DWIDTH 26 0
BBX 26 27 0 -1
BITMAP
00000000
001c0000
00180000
1c181c00
18181800
18181800
18181800
18181800
1ffff800
18000000
00000000
07000000
06000000
06000c00
0ffffe00
0c600000
18600000
187ff800
30600000
60600000
80603000
007ff800
00600000
00600000
00600000
00000000
00000000
ENDCHAR
STARTCHAR 264a
ENCODING 9802
SWIDTH 962 0
DWIDTH 26 0
BBX 26 27 0 -1
BITMAP
00000000
00038000
00030000
1c030000
18430400
187ffe00
18630700
db630600
db630c00
db631000
db630000
db630800
db7ffc00
db681c00
db681800
db643000
db663000
db426000
db436000
ffc1c000
0181c000
01036000
03063800
02181f00
04e00600
00000000
00000000
ENDCHAR
STARTCHAR 264b
ENCODING 9803
SWIDTH 962 0
DWIDTH 26 0
BBX 26 27 0 -1
BITMAP
00000000
0e00e000
0c00c000
0c018000
0c018000
0c110200
cc9fff00
cc980700
cc980600
cc980600
cc980600
cc980600
cc980600
cc980600
cc9ffe00
cc980600
cc980600
cc980600
cc980600
ff980600
c0980600
c0180600
00180600
001ffe00
00180600
00000000
00000000
ENDCHAR
STARTCHAR 264c
ENCODING 9804
SWIDTH 962 0
DWIDTH 26 0
BBX 26 27 0 -1
BITMAP
00000000
1c0c3800
180c3000
180c3000
18183000
18183100
9910ff00
99333300
99233300
99433300
99463300
99263300
99343300
991c3300
99083300
99183300
99106300
99246300
99226300
ff4ec300
81f3c300
80418300
00030700
00063e00
00180c00
00000000
00000000
ENDCHAR
STARTCHAR 264d
ENCODING 9805
SWIDTH 962 0
DWIDTH 26 0
BBX 26 27 0 -1
BITMAP
00000000
001c0000
00180000
1c181c00
18181800
18181800
18181800
18181800
18181800
1ffff800
18001800
18001800
001c0000
00180000
00181800
1ffffc00
0000c000
0200c000
0300c000
01818000
00810000
00c30000
00c20600
7fffff00
00000000
00000000
00000000
ENDCHAR
STARTCHAR 264e
ENCODING 9806
SWIDTH 962 0
DWIDTH 26 0
BBX 26 27 0 -1
BITMAP
00000000
1c070000
18064000
18063000
18061800
99061800
ff060000
99060600
997fff00
99060000
99060000
99060e00
990e0c00
990d0c00
990d1800
991d1800
99199800
9918b000
9930f000
9f306000
9a60e000
18c1b000
19831800
1b060f00
1c380600
00000000
00000000
ENDCHAR
STARTCHAR 264f
ENCODING 9807
SWIDTH 962 0
DWIDTH 26 0
BBX 26 27 0 -1
BITMAP
00000000
1c00e000
1800c000
1800c000
1820c200
993fff00
ff30c600
9930c400
9930c800
9930c000
9930c000
9930c400
993ffe00
99320e00
99320c00
99320c00
99311800
99311800
9961b000
9f60e000
9a40e000
18c1b000
19831c00
190c0f00
1a300200
00000000
00000000
ENDCHAR
STARTCHAR 2650
ENCODING 9808
SWIDTH 962 0
DWIDTH 26 0
BBX 26 27 0 -1
BITMAP
00000000
1c01c000
18018000
18198000
18198000
99199800
ff3ffc00
99318000
99218000
99218000
99418000
99418000
99018600
997fff00
99018000
99034000
99034000
99036000
9f062000
9a063000
180c1800
18181c00
18300e00
18600700
19800200
00000000
00000000
ENDCHAR
STARTCHAR 2651
ENCODING 9809
SWIDTH 962 0
DWIDTH 26 0
BBX 26 27 0 -1
BITMAP
00000000
00800200
7fffff00
01c18700
01818600
01818600
01818600
41830600
7f830c00
61860c00
60060c00
c00cf800
c0903000
ff800000
c1880200
018fff00
018c0700
018c0600
018c0600
018c0600
018c0600
030c0600
030c0600
7e0ffe00
3c0c0600
00000000
00000000
ENDCHAR
STARTCHAR 2652
ENCODING 9810
SWIDTH 962 0
DWIDTH 26 0
BBX 26 27 0 -1
BITMAP
00000000
0080e000
ffc0c000
01dcc700
0198c600
0198c600
4198c600
7f98c600
619ffe00
6000c000
6000c000
c0800400
ffdffe00
c1c80e00
c1881800
01841800
01863000
01823000
01836000
0181c000
0183c000
01876000
038c3800
ff181f00
3c600600
00000000
00000000
ENDCHAR
STARTCHAR 2653
ENCODING 9811
SWIDTH 962 0
DWIDTH 26 0
BBX 26 27 0 -1
BITMAP
00000000
021c3800
7e183000
06183000
06303000
06303000
06303000
46603300
7e6fff00
60e03000
c0e03000
c1603000
c0603000
ff643000
c3633000
0361b000
03613000
03603000
03603000
03603000
03603000
03603000
06603000
fc63f000
3860e000
00000000
00000000
ENDCHAR
STARTCHAR 2654
ENCODING 9812
SWIDTH 962 0
DWIDTH 26 0
BBX 26 27 0 -1
BITMAP
00000000
01000c00
ffa07e00
03bfc000
0330c000
0330c000
0330c000
4330c000
7f30c000
6330c600
603fff00
c030c000
c130c000
ff30c000
c3306000
03306000
03306000
03303000
0331f100
037f3100
03701900
03001d00
0600cf00
fc7fe700
38000300
00000000
00000000
ENDCHAR
STARTCHAR 2655
ENCODING 9813
SWIDTH 962 0
DWIDTH 26 0
BBX 26 27 0 -1
BITMAP
00000000
01c00000
01804000
01ffe000
0300c000
0300c000
06018000
07ff8000
00030000
00030600
ffffff00
00180000
0c18e000
0618c000
03198000
03990000
019a0000
00180000
001a0000
03198000
0618c000
3c187000
38183c00
10f81800
00100000
00000000
00000000
ENDCHAR
STARTCHAR 2656
ENCODING 9814
SWIDTH 962 0
DWIDTH 26 0
BBX 26 27 0 -1
BITMAP
00000000
06000000
06200800
0c3ffc00
0c301c00
18301800
30301800
66301800
86301800
063ff800
0c301800
0c301800
18301800
18301800
38301800
78301800
583ff800
98301800
18301800
18301800
18301800
18301800
18301900
1bffff00
18000000
00000000
00000000
ENDCHAR
STARTCHAR 2657
ENCODING 9815
SWIDTH 962 0
DWIDTH 26 0
BBX 26 27 0 -1
BITMAP
00000000
0c070000
0c060000
180d0000
18088000
3018c000
64306000
84603800
0cc09f00
0f1fc600
18000000
18000000
38000400
79fffe00
58000e00
d8000c00
98001800
18001800
18003000
18006000
1808c000
180d8000
18070000
18038000
18018000
00000000
00000000
ENDCHAR
STARTCHAR 2658
ENCODING 9816
SWIDTH 962 0
DWIDTH 26 0
BBX 26 27 0 -1
BITMAP
00000000
0c000e00
1c407f00
307fc000
6060c000
c260c000
0360c000
0660c000
0c60c000
1860c000
7860c600
d87fff00
1860c000
1860c000
18606000
18606000
18606000
18606200
18633200
187c3200
18f01a00
18e01a00
18004f00
187fe700
18000200
00000000
00000000
ENDCHAR
STARTCHAR 2659
ENCODING 9817
SWIDTH 962 0
DWIDTH 26 0
BBX 26 27 0 -1
BITMAP
00000000
00000000
00000000
001c0000
00180600
ffffff00
0200c000
01018000
00c30000
006e0000
00380000
01ef0000
0f01ff00
f0001e00
00000000
00000000
00100000
038c1000
23070c00
63030600
63001700
e3001b00
c3001b00
c3fff800
01fff000
00000000
00000000
ENDCHAR
STARTCHAR 265a
ENCODING 9818
SWIDTH 962 0
DWIDTH 26 0
BBX 26 27 0 -1
BITMAP
00000000
0e000000
0c000000
0c001800
0ffffc00
18000000
10000000
30006000
27fff000
40000000
80000000
00001000
fffff800
00003800
00803000
1cc03000
18e23000
58633000
5803b100
d805b100
d8041900
d8061900
1ffe1d00
0ffc0f00
00000200
00000000
00000000
ENDCHAR
STARTCHAR 265b
ENCODING 9819
SWIDTH 962 0
DWIDTH 26 0
BBX 26 27 0 -1
BITMAP
00000000
0e000000
0c060000
0c038e00
0c01cc00
0c00cc00
2f001800
2d871800
6cc61000
4cc63000
cc063000
cc263000
0c266000
0c266c00
0c26c600
0c66c300
0c678300
0cc70300
0cc70000
0c0e0800
0c1e0800
0c360800
0c660c00
0d87fc00
0c03f800
00000000
00000000
ENDCHAR
STARTCHAR 265c
ENCODING 9820
SWIDTH 962 0
DWIDTH 26 0
BBX 26 27 0 -1
BITMAP
00000000
0e000600
0c7fff00
0c018000
0c018000
0c018000
4e618600
4d318600
4d998c00
cd9d9800
cc8db000
cc018000
0c018000
0c018600
0cffff00
0c018000
0c018000
0c018000
0c018000
0c018000
0c018000
0c018000
0c018000
0c018000
0c018000
00000000
00000000
ENDCHAR
STARTCHAR 265d
ENCODING 9821
SWIDTH 962 0
DWIDTH 26 0
BBX 26 27 0 -1
BITMAP
00000000
1c038000
18030000
18030000
18030000
18030000
1c030600
5affff00
5b030000
5b030000
d9030000
98030000
98030000
98430400
187ffe00
18600e00
18600c00
18600c00
18600c00
18600c00
18600c00
18600c00
18600c00
187ffc00
18600c00
00000000
00000000
ENDCHAR
STARTCHAR 265e
ENCODING 9822
SWIDTH 962 0
DWIDTH 26 0
BBX 26 27 0 -1
BITMAP
00000000
1c000000
18000600
18ffff00
18018000
18018000
1c018000
5b018000
59c18200
597fff00
d8618700
98618600
98630600
18638600
18624600
18666600
18643600
18682600
18700600
18600600
18600600
18600600
18600600
18607e00
18601c00
00000000
00000000
ENDCHAR
STARTCHAR 265f
ENCODING 9823
SWIDTH 962 0
DWIDTH 26 0
BBX 26 27 0 -1
BITMAP
00000000
1c000000
18800800
18fffc00
18c01c00
1cc01800
1ac01800
5ac01800
5bfff800
59c19800
d8c18000
98c18000
98c18600
98ffff00
18c18000
18c18000
18c0c000
18c0c000
18c0c100
18c06100
18c06100
18c3b100
1bfc1900
1bf00f00
19000600
00000000
00000000
ENDCHAR
STARTCHAR 2660
ENCODING 9824
SWIDTH 962 0
DWIDTH 26 0
BBX 26 27 0 -1
BITMAP
00000000
1c00e000
1800c800
1800c600
1800c300
1800c000
1820c600
5c3fff00
5a30c000
5a30c000
db30c000
d930c600
9830c600
9830c600
98306c00
18306c00
18306800
18303000
18303200
18307200
183ef200
19f19b00
18e31b00
18060f00
18180600
00000000
00000000
ENDCHAR
STARTCHAR 2661
ENCODING 9825
SWIDTH 962 0
DWIDTH 26 0
BBX 26 27 0 -1
BITMAP
00000000
0e000200
0c1fff00
0c018700
0c018600
0c018600
2f018600
2d830600
6cc30c00
4cc60c00
cc060c00
cc0cf800
0c303000
0c000000
0c100200
0c1fff00
0c180700
0c180600
0c180600
0c180600
0c180600
0c180600
0c180600
0c1ffe00
0c180600
00000000
00000000
ENDCHAR
STARTCHAR 2662
ENCODING 9826
SWIDTH 962 0
DWIDTH 26 0
BBX 26 27 0 -1
BITMAP
00000000
1c038000
18030000
18030000
18030000
18030000
1c030800
5a03fc00
5b030000
5b030000
d9030000
98030000
98030000
98430400
187ffe00
18600e00
18600c00
18600c00
18600c00
18600c00
18600c00
18600c00
18600c00
187ffc00
18600c00
00000000
00000000
ENDCHAR
STARTCHAR 2663
ENCODING 9827
SWIDTH 962 0
DWIDTH 26 0
BBX 26 27 0 -1
BITMAP
00000000
0e000000
0c200400
0c3ffe00
0c300e00
0c300c00
0e300c00
2d300c00
2db00c00
2cb00c00
6c300c00
4c3ffc00
4c006000
0c076000
0c066000
0c066000
0c066000
0c0c6000
0c0c6000
0c0c6200
0c186200
0c186200
0c306300
0c607f00
0d803e00
00000000
00000000
ENDCHAR
STARTCHAR 2664
ENCODING 9828
SWIDTH 962 0
DWIDTH 26 0
BBX 26 27 0 -1
BITMAP
00000000
1c000000
18200800
183ffc00
18301c00
18301800
1c301800
5b301800
59b01800
593ff800
d8301800
98301800
98301800
18301800
18301800
18301800
183ff800
18301800
18301800
18301800
18301800
18301800
18301a00
1bffff00
18000000
00000000
00000000
ENDCHAR
STARTCHAR 2665
ENCODING 9829
SWIDTH 962 0
DWIDTH 26 0
BBX 26 27 0 -1
BITMAP
00000000
0e00e000
0c00c000
0c00c000
0c00c000
0c00c000
2f10c200
2d9fff00
6cd8c700
4cd8c600
cc18c600
cc18c600
0c18c600
0c18c600
0c1ffe00
0c18c600
0c18c600
0c18c600
0c18c600
0c18c600
0c18c600
0c18c600
0c1ffe00
0c180600
0c180600
00000000
00000000
ENDCHAR
STARTCHAR 2666
ENCODING 9830
SWIDTH 962 0
DWIDTH 26 0
BBX 26 27 0 -1
BITMAP
00000000
1c000000
18800200
18ffff00
18ccc700
18ccc600
18ccc600
5cccc600
5accc600
5bccc600
d9ccc600
98d8c600
98d8ce00
18d8ce00
18d0ce00
18f0ce00
18e0fe00
18e07600
18c00600
18c00600
18c00600
18c00600
18fffe00
18c00600
18c00600
00000000
00000000
ENDCHAR
STARTCHAR 2667
ENCODING 9831
SWIDTH 962 0
DWIDTH 26 0
BBX 26 27 0 -1
BITMAP
00000000
1c01c000
18018000
18198000
18198000
18198c00
1c3ffe00
5b318000
59a18000
59418000
d8018000
98018600
987fff00
18018000
18018000
18034000
18034000
18032000
18062000
18062000
180c3000
18181800
18301c00
18600f00
18800600
00000000
00000000
ENDCHAR
STARTCHAR 2668
ENCODING 9832
SWIDTH 962 0
DWIDTH 26 0
BBX 26 27 0 -1
BITMAP
00000000
1c1c0000
18180000
18180000
18180000
18300600
1c3fff00
5a218000
5b618000
59418000
d8818c00
9801fe00
98018000
18018000
18018000
18018000
18018c00
1801fe00
18018000
18018000
18018000
18018000
18018000
18018000
18018000
00000000
00000000
ENDCHAR
STARTCHAR 2669
ENCODING 9833
SWIDTH 962 0
DWIDTH 26 0
BBX 26 27 0 -1
BITMAP
00000000
1c1c0000
18180000
18180000
18180000
18300200
183fff00
1e300700
5b600600
59400600
58404600
d8bfe600
9930c600
9830c600
1830c600
1830c600
1830c600
1830c600
183fc600
1830c600
18300600
18000c00
18001c00
1801f800
18007000
00000000
00000000
ENDCHAR
STARTCHAR 266a
ENCODING 9834
SWIDTH 962 0
DWIDTH 26 0
BBX 26 27 0 -1
BITMAP
00000000
1c187000
18186000
18186000
18306000
18306200
1c21ff00
5a666700
5b466600
59866600
d88c6600
984c6600
98686600
18386600
18106600
18306600
1820c600
1848c600
1844c600
189d8600
1be78600
19830600
18060e00
180c7c00
18301800
00000000
00000000
ENDCHAR
STARTCHAR 266b
ENCODING 9835
SWIDTH 962 0
DWIDTH 26 0
BBX 26 27 0 -1
BITMAP
00000000
1c180000
181c0000
18180000
18180000
18300200
1c33ff00
5b7ec700
59b6c600
5966c600
d866c600
98666600
98666600
18c46c00
18c46c00
18c41c00
18cc1800
19e81800
19983800
181c2800
18362c00
18236e00
18424700
18808200
1b000000
00000000
00000000
ENDCHAR
STARTCHAR 266c
ENCODING 9836
SWIDTH 962 0
DWIDTH 26 0
BBX 26 27 0 -1
BITMAP
00000000
1c038000
18030000
18030000
18331800
18333000
18133000
181b6000
5e0fc000
5b030800
db7ffc00
d8030000
d8030000
18030000
18030000
18030600
19ffff00
18030000
18030000
18030000
18030000
18030000
18030000
18030000
18030000
00000000
00000000
ENDCHAR
STARTCHAR 266d
ENCODING 9837
SWIDTH 962 0
DWIDTH 26 0
BBX 26 27 0 -1
BITMAP
00000000
1c000000
18000600
18ffff00
18006000
18006000
1800c000
1800c000
58018000
5e018000
db038000
db07b000
d8058800
180d8c00
18198600
18318600
18618700
19818300
18018000
18018000
18018000
18018000
18018000
187fff00
18000000
00000000
00000000
ENDCHAR
STARTCHAR 266e
ENCODING 9838
SWIDTH 962 0
DWIDTH 26 0
BBX 26 27 0 -1
BITMAP
00000000
1c060000
18070000
18060000
180c0000
180c0100
180fff00
58180300
58300300
de402300
db1ff300
db187300
d8186300
18186300
18186300
181fe300
18180300
18181f00
18180e00
18180000
18180100
18180100
18180100
181fff00
180fff00
00000000
00000000
ENDCHAR
STARTCHAR 266f
ENCODING 9839
SWIDTH 962 0
DWIDTH 26 0
BBX 26 27 0 -1
BITMAP
00000000
1c070000
18070000
180c8000
180cc000
1c186000
5a183000
5b301c00
59600f00
d8400200
989ff000
98000000
18000000
18000400
19fffe00
18000e00
18000c00
18001800
18001800
18183000
180ce000
18078000
18030000
1801e000
18006000
00000000
00000000
ENDCHAR
STARTCHAR 2670
ENCODING 9840
SWIDTH 962 0
DWIDTH 26 0
BBX 26 27 0 -1
BITMAP
00000000
00e40000
00c30000
00c10c00
00fffe00
ffe00000
0030c000
0019c200
000f8200
003e0300
01e3ff00
7e007e00
00660000
00618000
00608600
007fff00
ffe00000
00306000
0030e000
0019c000
000f0200
001e0200
00738300
03c1ff00
fc007e00
00000000
00000000
ENDCHAR
STARTCHAR 2671
ENCODING 9841
SWIDTH 962 0
DWIDTH 26 0
BBX 26 27 0 -1
BITMAP
00000000
0001f000
000ff800
11fc0000
1f000000
1ffffe00
18000c00
18000c00
18000c00
1ffffc00
1880cc00
1860c000
1830c000
1830c000
18c0c000
1860c000
1830dc00
1820f800
1807c000
3078c000
37c0c000
2000c000
6000c000
4000c000
0000c000
00000000
00000000
ENDCHAR
STARTCHAR 2672
ENCODING 9842
SWIDTH 962 0
DWIDTH 26 0
BBX 26 27 0 -1
BITMAP
00000000
1c00e000
1800c000
1800c000
1810c200
1a1fff00
ff300600
18300600
18600400
18000000
1a073800
1c063000
18063000
38063000
f8063000
d8063000
18063000
18063000
180c3000
180c3000
180c3200
18183200
18183300
f8303f00
30401e00
00000000
00000000
ENDCHAR
STARTCHAR 2673
ENCODING 9843
SWIDTH 962 0
DWIDTH 26 0
BBX 26 27 0 -1
BITMAP
00000000
1c700000
18638e00
18630c00
18630c00
18630c00
1a630c00
ff630d00
19ffff00
18630c00
19630c00
1a630c00
1c630c00
18630c00
38630c00
f8630c00
d8630c00
1863fc00
18630c00
18600000
18600000
18600300
187fff00
f8600000
30000000
00000000
00000000
ENDCHAR
STARTCHAR 2674
ENCODING 9844
SWIDTH 962 0
DWIDTH 26 0
BBX 26 27 0 -1
BITMAP
00000000
1c383800
18303000
18303000
18303000
18303000
1a303000
ff303600
18ffff00
18303000
18303000
18303000
19b03000
3e303000
f8303000
d83ff000
18303000
18303000
18303000
18303000
18303000
18303000
18303000
f83ff000
30303000
00000000
00000000
ENDCHAR
STARTCHAR 2675
ENCODING 9845
SWIDTH 962 0
DWIDTH 26 0
BBX 26 27 0 -1
BITMAP
00000000
1c038000
18030000
18030000
18030000
18030c00
1afffe00
ff030000
18030000
18030000
19030000
1a030600
1dffff00
18070000
38060000
f8060000
d80c2000
180c1000
18080800
18180c00
18100600
18207e00
1bff8700
f9f00300
30000300
00000000
00000000
ENDCHAR
STARTCHAR 2676
ENCODING 9846
SWIDTH 962 0
DWIDTH 26 0
BBX 26 27 0 -1
BITMAP
00000000
1c070000
18060000
18060600
1bffff00
180c0000
18180000
1a19c000
ff318000
18318200
187fff00
19618700
1ae18600
1de18600
19618600
3a618600
f8618600
d8618600
18618600
18618600
1861be00
18618c00
18018000
f8018000
30018000
00000000
00000000
ENDCHAR
STARTCHAR 2677
ENCODING 9847
SWIDTH 962 0
DWIDTH 26 0
BBX 26 27 0 -1
BITMAP
00000000
1c01c000
18018000
18198000
18198000
18199800
1a3ffc00
ff318000
18218000
18218000
18418000
19418000
1a018600
1c7fff00
18018000
38034000
f8034000
d8036000
18062000
18063000
180c1800
18181c00
18300e00
f8600700
11800200
00000000
00000000
ENDCHAR
STARTCHAR 2678
ENCODING 9848
SWIDTH 962 0
DWIDTH 26 0
BBX 26 27 0 -1
BITMAP
00000000
1c0c1c00
180e1800
180c1800
180c1800
18181800
19181800
ff981a00
1833ff00
18301800
18701800
18701800
1b721800
3cf31800
f8b19800
d9b19800
19311800
18301800
18301800
18301800
18301800
18301800
18301800
f831f800
30307000
00000000
00000000
ENDCHAR
STARTCHAR 2679
ENCODING 9849
SWIDTH 962 0
DWIDTH 26 0
BBX 26 27 0 -1
BITMAP
00000000
1c030000
18030000
18068000
1804c000
180c6000
1a183000
ff301c00
18c10f00
18038600
18060000
190c0000
1a306000
1c00f000
1801c000
38030000
f8060c00
d8081e00
18303800
18007000
1801c000
18070000
181c0000
f8700000
33800000
00000000
00000000
ENDCHAR
STARTCHAR 267a
ENCODING 9850
SWIDTH 962 0
DWIDTH 26 0
BBX 26 27 0 -1
BITMAP
00000000
1c800400
18fffe00
18c00e00
18c00c00
18c00c00
fec00c00
18c00c00
18fffc00
18c00c00
18c00000
18ce0000
18cc0000
1ecc0000
f8cc1c00
78cc7e00
18cfc000
198c0000
198c0000
198c0200
190c0200
1b0c0200
1a0c0300
f40fff00
6807fe00
00000000
00000000
ENDCHAR
STARTCHAR 267b
ENCODING 9851
SWIDTH 962 0
DWIDTH 26 0
BBX 26 27 0 -1
BITMAP
00000000
0e000000
0c100800
0c1ffc00
0c181c00
0c181800
0c981800
ffd81800
0c181800
0c181800
0c1ff800
0c181800
0d181800
0e181800
1c181800
7c181800
6c1ff800
0c181800
0c181800
0c181800
0c181800
0c181800
0c181a00
fcffff00
38000000
00000000
00000000
ENDCHAR
STARTCHAR 267c
ENCODING 9852
SWIDTH 962 0
DWIDTH 26 0
BBX 26 27 0 -1
BITMAP
00000000
1c01c000
18018000
18018000
18018000
18218200
193fff00
ffb18700
18318600
18318600
18318600
183ffe00
1b318600
3c318600
f8318600
d8318600
183ffe00
18318600
18318000
18018000
18018000
18018000
18018000
f8018000
30018000
00000000
00000000
ENDCHAR
STARTCHAR 267d
ENCODING 9853
SWIDTH 962 0
DWIDTH 26 0
BBX 26 27 0 -1
BITMAP
00000000
1c01c000
18018000
18018000
18018000
18018000
19018000
ffa18400
183ffe00
18318e00
18318c00
18318c00
1a318c00
1c3ffc00
38318c00
f8318c00
d8318c00
18318c00
19ffff00
18300c00
18300c00
18300c00
18300c00
f8303c00
30301800
00000000
00000000
ENDCHAR
STARTCHAR 267e
ENCODING 9854
SWIDTH 962 0
DWIDTH 26 0
BBX 26 27 0 -1
BITMAP
00000000
0e01c000
0c018000
0c018000
0c018000
0c118400
0d1ffe00
7f998e00
0c198c00
0c198c00
0c198c00
0c198c00
0c198c00
0d198d00
0e7fff00
1c034000
7c034000
6c064000
0c066000
0c0c2000
0c0c3000
0c181800
0c181c00
7c300f00
18c00200
00000000
00000000
ENDCHAR
STARTCHAR 2721
ENCODING 10017
SWIDTH 962 0
DWIDTH 26 0
BBX 26 27 0 -1
BITMAP
00000000
1c000e00
1800ff00
1803f000
187c0000
1801c000
18018000
1a018000
ff018200
187fff00
18000e00
18000e00
1a001c00
1c003800
38007000
f800c000
d8018000
18030000
188c0000
18b00000
19400000
19300000
19180000
f90fff00
3103fe00
00000000
00000000
ENDCHAR
STARTCHAR 2722
ENCODING 10018
SWIDTH 962 0
DWIDTH 26 0
BBX 26 27 0 -1
BITMAP
00000000
00000000
0601c000
12018000
1b018000
11018000
31818200
60c1ff00
60630600
403b0600
80128600
7ff48600
06608400
0660c400
06604c00
0c605800
0c605800
0c603000
18603000
18607000
30c0d800
60c18c00
41830700
8f860300
03080100
00000000
00000000
ENDCHAR
STARTCHAR 2723
ENCODING 10019
SWIDTH 962 0
DWIDTH 26 0
BBX 26 27 0 -1
BITMAP
00000000
00e00e00
38c23f00
30c3e000
30c30000
30c30000
30c30000
30c30000
30c30000
3fc30600
30c3ff00
00c31800
00c31800
00c31800
00c31800
7fc31800
18c31800
18c61800
18c61800
18c41800
18cc1800
30c81800
30c81800
60d01800
80c01800
00000000
00000000
ENDCHAR
STARTCHAR 2724
ENCODING 10020
SWIDTH 962 0
DWIDTH 26 0
BBX 26 27 0 -1
BITMAP
00000000
0e030000
0c030000
0c060000
0d8c0600
ffdfff00
18300000
18400000
18800000
3fc40800
31c7fc00
31861c00
31861800
61861800
61861800
61861800
43061800
c3061800
83061800
030c1800
060c1a00
06181a00
0c181b00
78301f00
30600e00
00000000
00000000
ENDCHAR
STARTCHAR 2725
ENCODING 10021
SWIDTH 962 0
DWIDTH 26 0
BBX 26 27 0 -1
BITMAP
00000000
0001c000
00018000
40818000
7f818000
61818c00
61bffe00
61830000
61830000
61830400
6183fe00
61830e00
7f830c00
61830c00
61860c00
61860c00
61860c00
61860c00
618c0c00
618c1800
7f981800
60181800
60303000
0041f000
00006000
00000000
00000000
ENDCHAR
STARTCHAR 2726
ENCODING 10022
SWIDTH 962 0
DWIDTH 26 0
BBX 26 27 0 -1
BITMAP
00000000
0001c000
00018000
41018000
7f818000
63818600
633fff00
63081800
63081800
63081800
63081800
7f081800
63043000
63043000
63063000
63022000
63026000
63034000
6301c000
63018000
7f03c000
60066000
600c3800
00301f00
01c00600
00000000
00000000
ENDCHAR
STARTCHAR 2727
ENCODING 10023
SWIDTH 962 0
DWIDTH 26 0
BBX 26 27 0 -1
BITMAP
00000000
00000000
00200600
813fff00
ffb00000
c3b00000
c3300000
c3300000
c3300400
c33ffe00
c3340e00
ff320c00
c3320c00
c3321800
c3311800
c3313000
c3312000
c360e000
c360c000
ff40e000
c0c1b000
c0831800
01060e00
000c0700
00700200
00000000
00000000
ENDCHAR
STARTCHAR 2728
ENCODING 10024
SWIDTH 962 0
DWIDTH 26 0
BBX 26 27 0 -1
BITMAP
00000000
00180000
001c0000
41180000
7f980000
63b00200
633fff00
63266700
63466600
63466600
638c6600
7f0c6600
630c6600
6318c600
6318c600
6330c600
63318600
63618600
63c30600
7f060600
600c0c00
60180c00
00301c00
00c1f800
07007000
00000000
00000000
ENDCHAR
STARTCHAR 2729
ENCODING 10025
SWIDTH 962 0
DWIDTH 26 0
BBX 26 27 0 -1
BITMAP
00000000
00000600
00003f00
4088f800
7fcf8000
61cc0000
618c0400
618ffe00
618c0e00
618c0c00
618c0c00
7f8c0c00
618c0c00
618c0c00
618ffc00
618c0c00
618c0c00
618c0000
61980000
61980000
7f980000
60100000
60300000
00200000
00400000
00000000
00000000
ENDCHAR
STARTCHAR 272a
ENCODING 10026
SWIDTH 962 0
DWIDTH 26 0
BBX 26 27 0 -1
BITMAP
00000000
08001000
0ffff800
0c003800
0c003000
0ffff000
0c003000
0c003000
0c003000
0ffff000
0c183000
00180000
00180600
ffffff00
0200c000
07018000
0c818000
38430000
10660000
003c0000
00180000
007e0000
01c3f000
0f007f00
f0000e00
00000000
00000000
ENDCHAR
STARTCHAR 272b
ENCODING 10027
SWIDTH 962 0
DWIDTH 26 0
BBX 26 27 0 -1
BITMAP
00000000
08001000
0ffff800
0c003800
0c003000
0ffff000
0c003000
0c003000
0c003000
0ffff000
00000000
20000600
3fffff00
30000000
301c0000
30180000
30180000
30340000
30320000
20630000
20618000
60c0e000
41807800
c6001f00
98000600
00000000
00000000
ENDCHAR
STARTCHAR 272c
ENCODING 10028
SWIDTH 962 0
DWIDTH 26 0
BBX 26 27 0 -1
BITMAP
00000000
0000f000
000ff800
1ffc0000
00300000
00300000
00300600
ffffff00
00620000
00c30000
01818000
0300c000
06007000
0c003c00
30000f00
cffff600
0c003000
0c003000
0c003000
0ffff000
0c003000
0c003000
0c003000
0ffff000
0c003000
00000000
00000000
ENDCHAR
STARTCHAR 272d
ENCODING 10029
SWIDTH 962 0
DWIDTH 26 0
BBX 26 27 0 -1
BITMAP
00000000
00000000
40240200
7ff7ff00
60760700
60660600
60660600
60660600
60660600
60660600
60660600
7fe7fe00
60660600
60660600
60660600
60660600
60660600
60660600
60660600
60660600
60660600
7fe7fe00
60660600
60060000
00000000
00000000
00000000
ENDCHAR
STARTCHAR 272e
ENCODING 10030
SWIDTH 962 0
DWIDTH 26 0
BBX 26 27 0 -1
BITMAP
00000000
00001000
003ff800
00063800
00063000
80863000
ff863000
c1866000
c186c200
c187ff00
c1860700
c1860600
c1850600
ff8d0600
c18d0c00
c18d8c00
c1989800
c198d800
c1987000
c1b06000
ffb0f000
00e19800
00c30e00
000e0700
00180200
00000000
00000000
ENDCHAR
STARTCHAR 272f
ENCODING 10031
SWIDTH 962 0
DWIDTH 26 0
BBX 26 27 0 -1
BITMAP
00000000
0001c000
00018000
00018000
00018c00
c13ffe00
ff818000
c3818000
c3018000
c3398e00
c3318c00
c3318c00
ff318c00
c3318c00
c3318c00
c3318c00
c33ffc00
c3318c00
ff318000
c3018000
c0018400
00018400
00018600
0001fe00
0000fc00
00000000
00000000
ENDCHAR
STARTCHAR 2730
ENCODING 10032
SWIDTH 962 0
DWIDTH 26 0
BBX 26 27 0 -1
BITMAP
00000000
00038000
00030000
00068000
00064000
408c6000
7fcc3000
61d81c00
61b00f00
61c02600
618ff000
61800000
7f800000
61800400
619ffe00
61800c00
61800c00
61801800
61801800
7f801800
61803000
00003000
00003000
00006000
00006000
00000000
00000000
ENDCHAR
STARTCHAR 2731
ENCODING 10033
SWIDTH 962 0
DWIDTH 26 0
BBX 26 27 0 -1
BITMAP
00000000
00000000
00018000
00008000
0004c000
81066000
ff8c3000
c3881800
c3180e00
c3300700
c3200200
c37ffe00
c3860e00
ff060c00
c3060c00
c3060c00
c30c0c00
c30c0c00
c30c0c00
c3180c00
ff180c00
c3300c00
00601800
0083f800
00007000
00000000
00000000
ENDCHAR
STARTCHAR 2732
ENCODING 10034
SWIDTH 962 0
DWIDTH 26 0
BBX 26 27 0 -1
BITMAP
00000000
01800000
01800000
03000200
03ffff00
0630c700
0c30c600
18618600
30c18600
c1830600
06060c00
180c0c00
60301c00
01c3f800
0e00f000
04001000
07fff800
06003800
06003000
06003000
07fff000
06003000
06003000
06003000
07fff000
00000000
00000000
ENDCHAR
STARTCHAR 2733
ENCODING 10035
SWIDTH 962 0
DWIDTH 26 0
BBX 26 27 0 -1
BITMAP
00000000
41000000
7f800000
63801800
631ffc00
63000000
63000000
63000000
63000000
7f000000
63000600
637fff00
63063000
63063000
7f063000
63063000
63063000
63063000
43063000
43063000
430c3200
c30c3200
830c3300
8f183f00
8e601e00
00000000
00000000
ENDCHAR
STARTCHAR 2734
ENCODING 10036
SWIDTH 962 0
DWIDTH 26 0
BBX 26 27 0 -1
BITMAP
00000000
0e000600
0c3fff00
0c0c3000
0c0c3000
0c0c3000
0c8c3000
ffcc3000
0c0c3000
0c0c3000
1c0c3200
1e7fff00
1d0c3000
3d8c3000
2ccc3000
6ccc3000
4c0c3000
cc0c3000
8c183000
0c183000
0c303000
0c303000
0c603000
0cc03000
0d003000
00000000
00000000
ENDCHAR
STARTCHAR 2735
ENCODING 10037
SWIDTH 962 0
DWIDTH 26 0
BBX 26 27 0 -1
BITMAP
00000000
1c000000
18001800
183ffc00
18000000
18000000
19000000
ff800000
18000000
18000600
38ffff00
3c0cc000
7a0cc000
5b0cc000
db0cc000
980cc000
9818c000
1818c000
1818c200
1830c200
1830c200
1860c200
18c0c300
1980ff00
1a007e00
00000000
00000000
ENDCHAR
STARTCHAR 2736
ENCODING 10038
SWIDTH 962 0
DWIDTH 26 0
BBX 26 27 0 -1
BITMAP
00000000
1c01c000
18018000
18018000
18018000
18018c00
ffbffe00
18018000
18018000
38018000
38018000
3c018600
7a7fff00
7b018000
59838000
d8c34000
d8434000
98066000
98062000
180c3000
18181000
18301800
18600e00
19800700
1a000200
00000000
00000000
ENDCHAR
STARTCHAR 2737
ENCODING 10039
SWIDTH 962 0
DWIDTH 26 0
BBX 26 27 0 -1
BITMAP
00000000
1c000600
181fff00
18001800
180e1800
180c1800
190c1800
ff181800
18181800
18301800
38301900
3c7fff00
3a003800
7b007800
59807800
d980d800
9801d800
98039800
18071800
180c1800
18181800
18601800
18001800
1801f800
18007000
00000000
00000000
ENDCHAR
STARTCHAR 2738
ENCODING 10040
SWIDTH 962 0
DWIDTH 26 0
BBX 26 27 0 -1
BITMAP
00000000
0e01c000
0c018000
0c018000
0c018800
0c9ffc00
ffc18000
0c018000
0c018e00
1c198c00
1c198c00
1f198c00
3d998c00
2d998c00
2c198c00
6c1ffc00
4c198c00
4c198000
8c018000
0c018000
0c018200
0c018200
0c018300
0c01ff00
0c00fe00
00000000
00000000
ENDCHAR
STARTCHAR 2739
ENCODING 10041
SWIDTH 962 0
DWIDTH 26 0
BBX 26 27 0 -1
BITMAP
00000000
1c000800
18fffc00
180c1c00
180c1800
180c1800
180c1800
198c1800
ffcc1800
180c1800
3c0c1800
3a0c1a00
7bffff00
5b181800
d8181800
98181800
98181800
18181800
18183000
18183000
18183000
18183000
18183600
1bffff00
18000000
00000000
00000000
ENDCHAR
STARTCHAR 273a
ENCODING 10042
SWIDTH 962 0
DWIDTH 26 0
BBX 26 27 0 -1
BITMAP
00000000
1c01c000
18018000
18018000
18018000
18218200
193fff00
ffb18700
18318600
18318600
38334600
3e334600
3b332600
39b23600
79b63600
58343600
d8380600
98300600
98300600
18300600
18300600
18300600
18300600
18307e00
18301c00
00000000
00000000
ENDCHAR
STARTCHAR 273b
ENCODING 10043
SWIDTH 962 0
DWIDTH 26 0
BBX 26 27 0 -1
BITMAP
00000000
1c001c00
1801fe00
183f8000
18030000
19030000
ff830000
18030c00
1803fe00
383f0000
38030000
7e030000
7b030000
d9030600
9803ff00
987f0000
18030000
18030000
18030000
18030200
18030200
18030200
18030300
1803ff00
1801fe00
00000000
00000000
ENDCHAR
STARTCHAR 273c
ENCODING 10044
SWIDTH 962 0
DWIDTH 26 0
BBX 26 27 0 -1
BITMAP
00000000
1c038000
18030000
18030000
18060000
18060200
190fff00
ff8c0700
18180600
18100600
38230600
3e030600
3b030600
39820600
79864600
58042600
d8042600
9808f600
981f2600
180c2600
18000600
18000e00
18000c00
1803fc00
18007800
00000000
00000000
ENDCHAR
STARTCHAR 273d
ENCODING 10045
SWIDTH 962 0
DWIDTH 26 0
BBX 26 27 0 -1
BITMAP
00000000
1c038000
18030000
18030000
18060000
18060100
180fff00
1a0cc100
ff18c100
1810c300
1820c200
3801a000
3e01a000
3b01a000
79032000
58033000
d8031000
98061800
98061800
180c0c00
18180c00
18300600
18600700
19800300
1e000100
00000000
00000000
ENDCHAR
STARTCHAR 273e
ENCODING 10046
SWIDTH 962 0
DWIDTH 26 0
BBX 26 27 0 -1
BITMAP
00000000
0e018000
0c008000
0c04c000
0c0c6000
0c0c2000
0c983000
ffb01800
0c300c00
0c600700
1c400200
1ebff800
1d060000
3d860000
2cc80000
6c9ffe00
4c180c00
8c180c00
8c000c00
0c000c00
0c001800
0c001800
0c003800
0c03f000
0c00e000
00000000
00000000
ENDCHAR
STARTCHAR 273f
ENCODING 10047
SWIDTH 962 0
DWIDTH 26 0
BBX 26 27 0 -1
BITMAP
00000000
0e018000
0c008000
0c04c000
0c0c6000
0c0c2000
0c983000
ffb01800
0c300c00
0c600600
1c400700
1ebffe00
1d030c00
3d830c00
2cc30c00
6c830c00
4c060c00
8c060c00
8c060c00
0c0c0c00
0c0c1800
0c181800
0c303800
0c63f000
0d80e000
00000000
00000000
ENDCHAR
STARTCHAR 2740
ENCODING 10048
SWIDTH 962 0
DWIDTH 26 0
BBX 26 27 0 -1
BITMAP
00000000
1c000000
180e0000
180c0000
180c0000
180c0000
1a0cc000
ff0c7000
180c3000
182c0000
382c0000
3e6c0000
3b6c0c00
7b6c0700
58cc0300
58cc0000
d8cc0800
980c0800
980c0800
180c0c00
180ffc00
1807f800
18000000
18000000
18000000
00000000
00000000
ENDCHAR
STARTCHAR 2741
ENCODING 10049
SWIDTH 962 0
DWIDTH 26 0
BBX 26 27 0 -1
BITMAP
00000000
07000000
06000000
06000c00
060ffe00
06000000
06600000
fff00000
06000000
0e000000
0f000600
169fff00
16418000
26618000
26718000
46330000
46030000
86021000
06060800
06040c00
060c0400
06087e00
061f8600
061c0300
06000300
00000000
00000000
ENDCHAR
STARTCHAR 2742
ENCODING 10050
SWIDTH 962 0
DWIDTH 26 0
BBX 26 27 0 -1
BITMAP
00000000
0c000000
0c000600
0c1fff00
0cc18000
ffe18000
0c018000
0c018000
1e018200
1d03ff00
3c830700
2cc30600
6c630600
4c660600
cc060600
8c060600
8c07fe00
0c0c0600
0c0c0600
0c000e00
0c000c00
0c000c00
0c000d00
0c1fff00
0c000000
00000000
00000000
ENDCHAR
STARTCHAR 2743
ENCODING 10051
SWIDTH 962 0
DWIDTH 26 0
BBX 26 27 0 -1
BITMAP
00000000
1c200600
183fff00
18300000
18300000
18340400
1937fe00
ffb60e00
18360c00
18360c00
38360c00
3e360c00
3b360c00
7b36fc00
58363800
d8260000
98260000
98260000
98660000
18660000
18460000
18460200
18c60300
1887ff00
1883fe00
00000000
00000000
ENDCHAR
STARTCHAR 2744
ENCODING 10052
SWIDTH 962 0
DWIDTH 26 0
BBX 26 27 0 -1
BITMAP
00000000
0e0e0000
0c0c0000
0c0c0000
0c180000
0c180200
0c9fff00
ffb00700
0c300600
0c200600
1c200600
1c400600
1f004600
3d9fe600
2cc00600
6c804600
4c1fe600
4c000600
8c000600
8c000600
0c000c00
0c000c00
0c001c00
0c03f800
0c00f000
00000000
00000000
ENDCHAR
STARTCHAR 2745
ENCODING 10053
SWIDTH 962 0
DWIDTH 26 0
BBX 26 27 0 -1
BITMAP
00000000
0e001800
0c003c00
0c01e000
0c0f6000
0c806000
ffc06000
0c006000
0c006400
1c0ffe00
1e006000
1d006000
3c806000
3cc06000
2cc06200
6c1fff00
4c006000
cc006000
8c006000
8c006000
0c006000
0c006000
0c006000
0c07e000
0c01c000
00000000
00000000
ENDCHAR
STARTCHAR 2746
ENCODING 10054
SWIDTH 962 0
DWIDTH 26 0
BBX 26 27 0 -1
BITMAP
00000000
0e001000
0cfff800
0c183800
0c183000
0c183000
0d983000
ffd86000
0c186200
1e1fff00
1d1c0700
3c9a0600
2cda0600
6cd20600
4c110c00
cc310c00
8c309800
8c609800
0c40f000
0cc06000
0c80f000
0d019800
0c060e00
0c180700
0ce00300
00000000
00000000
ENDCHAR
STARTCHAR 2747
ENCODING 10055
SWIDTH 962 0
DWIDTH 26 0
BBX 26 27 0 -1
BITMAP
00000000
1c000000
18102000
181ff000
18187000
18186000
19186000
ff986000
18306000
18306000
18307f00
38603e00
3e800000
7b3ff800
5a103000
d8103000
98086000
980cc000
18078000
18030000
18070000
180dc000
1818f000
18303f00
18c00e00
00000000
00000000
ENDCHAR
STARTCHAR 2748
ENCODING 10056
SWIDTH 962 0
DWIDTH 26 0
BBX 26 27 0 -1
BITMAP
00000000
1c0dc000
180d8000
180d8000
18198000
1e198000
ff398000
18318000
38718000
3c518600
7a91ff00
59198000
d9998000
99998000
98198000
18198000
18198000
18198000
18198200
18198200
18198200
18198200
18198300
1819ff00
1818fe00
00000000
00000000
ENDCHAR
STARTCHAR 2749
ENCODING 10057
SWIDTH 962 0
DWIDTH 26 0
BBX 26 27 0 -1
BITMAP
00000000
1c070000
18060000
180d0000
180d8000
1818c000
18106000
1a303000
ff601c00
18400f00
3c8fc200
3a000000
79800000
59800800
d83ffc00
98001c00
98001800
18003000
18003000
18003000
18006000
18006000
18006000
1800c000
1800c000
00000000
00000000
ENDCHAR
STARTCHAR 274a
ENCODING 10058
SWIDTH 962 0
DWIDTH 26 0
BBX 26 27 0 -1
BITMAP
00000000
00038000
40830000
7fc30000
61c30000
61860200
6187ff00
61840300
618cc600
6188c800
7f98c000
6190c000
61a0c000
6180c000
6181a000
6181a000
6181a000
61833000
61833000
7f861000
60061800
600c0c00
00180e00
00300700
00400200
00000000
00000000
ENDCHAR
STARTCHAR 274b
ENCODING 10059
SWIDTH 962 0
DWIDTH 26 0
BBX 26 27 0 -1
BITMAP
00000000
00001c00
0180fe00
ffdfc000
18018000
18018000
18018000
18818000
1fc18000
31c18000
31818600
21bfff00
61818000
51818000
d9834000
8b034000
03036000
06062000
06063000
0c0c1000
08181800
18300c00
30600e00
40c00700
87000200
00000000
00000000
ENDCHAR
ENDFONT
